<svg width="1440" height="417" viewBox="0 0 1440 417" fill="none" xmlns="http://www.w3.org/2000/svg">
<g clip-path="url(#clip0_762_10)">
<rect width="1440" height="417" fill="#F2F2F2"/>
<path opacity="0.05" fill-rule="evenodd" clip-rule="evenodd" d="M154.407 545.271C268.038 514.823 351.524 420.181 367.166 304.159C372.214 266.67 369.822 229.145 360.049 192.669L315.589 26.7432L311.011 24.6057C284.886 12.4647 258.334 0.0319897 232.715 -11.9545C152.923 -49.3319 70.4173 -87.9543 -11.7569 -123.823L-19.7026 -127.263L-24.8642 -120.311C-52.2406 -83.394 -79.7215 -46.2167 -107.148 -9.05387L-61.8765 159.903L-46.0068 145.036C-22.9853 123.496 5.42359 107.764 36.0792 99.5495C86.0706 86.1543 138.289 92.9857 183.126 118.848C227.962 144.71 259.993 186.475 273.378 236.426C286.762 286.377 279.905 338.561 254.006 383.377C228.107 428.193 186.301 460.218 136.309 473.614C89.8926 486.051 40.7892 480.879 -1.91254 459.085C-44.3397 437.449 -77.1633 401.175 -94.3269 357.051C-98.205 347.128 -100.844 337.278 -103.411 327.699L-170.608 76.9163C-187.687 100.054 -204.617 123.093 -221.429 145.927L-244.239 176.923L-243.746 178.763L-401.357 220.994C-370.579 179.221 -339.708 137.365 -309.623 96.4742C-239.437 1.16115 -166.855 -97.3458 -95.1284 -194.058C-80.9604 -213.109 -65.4847 -224.68 -47.8279 -229.411C-46.9072 -229.658 -45.9864 -229.905 -45.0512 -230.097C-27.1517 -234.139 -7.27332 -231.229 15.8519 -221.185C102.145 -183.809 188.831 -143.233 272.598 -104.02C353.048 -66.355 436.28 -27.4051 519.166 8.73725C543.36 19.3073 559.276 39.9262 557.879 58.9776C556.842 72.6544 546.497 82.7927 528.786 87.5384C504.872 93.8302 480.661 100.317 457.195 106.547L441.975 110.625L456.94 166.475C470.165 215.831 473.416 266.525 466.575 317.255C456.088 394.89 423.521 471.364 374.747 532.634C323.496 597.004 257.997 641.352 185.42 660.798C112.844 680.245 33.9464 674.588 -42.6238 644.468C-111.213 617.488 -174.117 571.641 -221.199 514.652L-110.492 484.988C-38.8455 546.996 59.8945 570.595 154.407 545.271ZM114.703 392.978C173.414 377.246 208.395 316.714 192.676 258.05C176.957 199.386 116.397 164.454 57.6855 180.185C-1.02597 195.917 -36.0069 256.449 -20.288 315.113C-4.56902 373.777 55.9915 408.709 114.703 392.978Z" fill="#434343"/>
</g>
<defs>
<clipPath id="clip0_762_10">
<rect width="1440" height="417" fill="white"/>
</clipPath>
</defs>
</svg>
