<svg width="1440" height="633" viewBox="0 0 1440 633" fill="none" xmlns="http://www.w3.org/2000/svg">
<g clip-path="url(#clip0_766_46)">
<rect width="1440" height="633" fill="url(#paint0_radial_766_46)"/>
<path opacity="0.03" fill-rule="evenodd" clip-rule="evenodd" d="M214.407 653.271C328.038 622.823 411.524 528.181 427.166 412.159C432.214 374.67 429.822 337.145 420.049 300.669L375.589 134.743L371.011 132.606C344.886 120.465 318.334 108.032 292.715 96.0455C212.923 58.6681 130.417 20.0457 48.2431 -15.8234L40.2974 -19.2627L35.1359 -12.3113C7.75941 24.606 -19.7215 61.7833 -47.1483 98.9461L-1.87652 267.903L13.9932 253.036C37.0147 231.496 65.4236 215.764 96.0792 207.549C146.071 194.154 198.289 200.986 243.126 226.848C287.962 252.71 319.993 294.475 333.378 344.426C346.762 394.377 339.905 446.561 314.006 491.377C288.107 536.193 246.301 568.218 196.309 581.614C149.893 594.051 100.789 588.879 58.0875 567.085C15.6603 545.449 -17.1633 509.175 -34.3269 465.051C-38.205 455.128 -40.8441 445.278 -43.4108 435.699L-110.608 184.916C-127.687 208.054 -144.617 231.093 -161.429 253.927L-184.239 284.923L-183.746 286.763L-341.357 328.994C-310.579 287.221 -279.708 245.365 -249.623 204.474C-179.437 109.161 -106.855 10.6542 -35.1284 -86.0578C-20.9604 -105.109 -5.48468 -116.68 12.1721 -121.411C13.0928 -121.658 14.0136 -121.905 14.9488 -122.097C32.8483 -126.139 52.7267 -123.229 75.8519 -113.185C162.145 -75.8091 248.831 -35.2328 332.598 3.97981C413.048 41.645 496.28 80.5949 579.166 116.737C603.36 127.307 619.276 147.926 617.879 166.978C616.842 180.654 606.497 190.793 588.786 195.538C564.872 201.83 540.661 208.317 517.195 214.547L501.975 218.625L516.94 274.475C530.165 323.831 533.416 374.525 526.575 425.255C516.088 502.89 483.521 579.364 434.747 640.634C383.496 705.004 317.997 749.352 245.42 768.798C172.844 788.245 93.9464 782.588 17.3761 752.468C-51.2126 725.487 -114.117 679.641 -161.199 622.652L-50.4922 592.988C21.1545 654.996 119.894 678.595 214.407 653.271ZM174.703 500.978C233.414 485.246 268.395 424.714 252.676 366.05C236.957 307.386 176.397 272.454 117.686 288.185C58.9741 303.917 23.9931 364.449 39.712 423.113C55.431 481.777 115.992 516.709 174.703 500.978Z" fill="white"/>
</g>
<defs>
<radialGradient id="paint0_radial_766_46" cx="0" cy="0" r="1" gradientUnits="userSpaceOnUse" gradientTransform="translate(720 316.5) rotate(90) scale(316.5 720)">
<stop stop-color="#00355B"/>
<stop offset="1" stop-color="#00182A"/>
</radialGradient>
<clipPath id="clip0_766_46">
<rect width="1440" height="633" fill="white"/>
</clipPath>
</defs>
</svg>
