<svg width="148" height="79" viewBox="0 0 148 79" fill="none" xmlns="http://www.w3.org/2000/svg">
<path fill-rule="evenodd" clip-rule="evenodd" d="M66.3653 57.8482C61.7056 64.588 53.8882 68.7395 45.3135 68.7395C35.0107 68.7395 25.8014 62.7476 21.8487 53.4719C20.5699 50.4744 19.9226 47.3107 19.9226 44.0701V29.3165L20.262 29.0364C22.1975 27.4484 24.1581 25.8296 26.059 24.2632C31.963 19.3915 38.0648 14.3566 44.2044 9.55263L44.7982 9.08792L45.3921 9.54955C52.9613 15.4399 60.6342 21.4503 68.0588 27.2668L70.695 29.3319V29.495H84.9851C81.4345 26.716 77.8746 23.9277 74.4026 21.2103C66.3056 14.8675 57.932 8.30931 49.6715 1.88652C48.0377 0.615504 46.4667 0 44.8674 0C44.7825 0 44.6977 0.00307752 44.616 0.00615504C43.0135 0.070783 41.3922 0.753993 39.6641 2.09579C33.2103 7.11523 26.8006 12.4024 20.5982 17.5173C14.6471 22.429 8.49184 27.51 2.29572 32.3478C0.485895 33.7573 -0.390737 35.8254 0.162264 37.3734C0.558162 38.4844 1.66416 39.0968 3.26975 39.0968C5.43462 39.0876 7.63092 39.0845 9.75808 39.0815L11.1374 39.0784V44.0393C11.1374 48.4248 12.0141 52.7026 13.7422 56.7587C16.3878 62.9661 20.8809 68.5826 26.3921 72.5772C32.1892 76.778 38.7309 78.9969 45.3135 78.9969C51.8961 78.9969 58.4379 76.778 64.235 72.5772C69.4256 68.8165 73.7114 63.6155 76.401 57.842H66.3653V57.8482Z" fill="#3C8FCA"/>
<path fill-rule="evenodd" clip-rule="evenodd" d="M45.2222 62.3876C40.6882 62.3876 36.4276 60.658 33.2227 57.5189C30.0178 54.3798 28.252 50.2036 28.252 45.7659C28.252 41.325 30.0178 37.1519 33.2227 34.0128C36.4276 30.8737 40.6913 29.1441 45.2222 29.1441C48.0029 29.1441 50.7585 29.8181 53.1967 31.0922L54.8777 31.9693V14.4336L62.1924 18.9299V44.9565C62.1924 45.8059 62.1924 46.683 62.0918 47.5908C61.6394 51.6347 59.685 55.3708 56.587 58.1067C53.4669 60.8703 49.4294 62.3876 45.2222 62.3876ZM45.2222 36.3055C39.8964 36.3055 35.5666 40.5494 35.5666 45.7628C35.5666 50.9792 39.8995 55.22 45.2222 55.22C50.5479 55.22 54.8777 50.9761 54.8777 45.7628C54.8777 40.5494 50.5479 36.3055 45.2222 36.3055Z" fill="#3C8FCA"/>
<path d="M73.617 33.9844V53.4251H67.3926V33.9844H73.617Z" fill="white"/>
<path d="M86.4022 53.429L82.6443 46.4553V53.429H76.4199V33.9883H85.6733C87.282 33.9883 88.6551 34.2683 89.7956 34.8254C90.9362 35.3855 91.7908 36.1425 92.3595 37.1058C92.9283 38.066 93.2142 39.1524 93.2142 40.3588C93.2142 41.6575 92.8434 42.8115 92.1082 43.8179C91.3698 44.8242 90.3078 45.5475 88.9253 45.9875L93.2425 53.429H86.4022ZM82.6443 42.3899H85.1108C85.7078 42.3899 86.1571 42.2576 86.4556 41.9929C86.7541 41.7282 86.9049 41.3097 86.9049 40.7434C86.9049 40.2326 86.751 39.8294 86.4431 39.534C86.1351 39.2416 85.689 39.0939 85.1108 39.0939H82.6443V42.3899Z" fill="white"/>
<path d="M101.428 38.8201V41.236H107.595V45.8215H101.428V48.5667H108.437V53.4261H95.2031V33.9854H108.437V38.8171H101.428V38.8201Z" fill="white"/>
<path d="M121.823 47.3998C121.273 47.7568 120.641 47.9353 119.931 47.9353C118.885 47.9353 118.055 47.5506 117.449 46.7812C116.843 46.0119 116.538 44.9778 116.538 43.6791C116.538 42.3804 116.843 41.3463 117.449 40.577C118.055 39.8076 118.882 39.4229 119.931 39.4229C120.641 39.4229 121.273 39.6014 121.823 39.9584C122.376 40.3154 122.8 40.8139 123.098 41.454H129.659C129.376 39.9153 128.811 38.5704 127.962 37.4163C127.111 36.2623 126.011 35.3729 124.654 34.7389C123.296 34.108 121.76 33.791 120.041 33.791C118.04 33.791 116.302 34.2065 114.825 35.0405C113.349 35.8745 112.214 37.0409 111.419 38.5396C110.624 40.0415 110.229 41.7526 110.229 43.676C110.229 45.5995 110.624 47.3106 111.419 48.8124C112.208 50.3019 113.333 51.4621 114.794 52.2931C114.803 52.2992 114.816 52.3054 114.825 52.3115C114.91 52.3577 114.995 52.4039 115.08 52.45L115.146 51.8715L115.966 50.8066H116.302L116.783 51.8376L116.638 53.0871C116.717 53.1117 116.792 53.1332 116.874 53.1548H117.776L117.754 53.3579C117.851 53.3764 117.952 53.3948 118.052 53.4071C118.244 53.441 118.439 53.4656 118.64 53.4872C118.74 53.4964 118.838 53.5056 118.941 53.5149L119.014 52.9024L119.611 52.7024L120.132 53.1979L120.091 53.561C120.195 53.561 120.296 53.561 120.396 53.5579C121.97 53.5149 123.387 53.2009 124.651 52.6162C126.005 51.9853 127.108 51.0928 127.959 49.9388C128.811 48.7847 129.376 47.4398 129.656 45.9011H123.095C122.8 46.5443 122.376 47.0428 121.823 47.3998Z" fill="white"/>
<path d="M147.49 33.9854V38.8171H142.218V53.4261H135.993V38.8171H130.777V33.9854H147.49Z" fill="white"/>
<path d="M80.8442 69.198H84.1559V71.3861H77.8906V60.9902H80.8442V69.198Z" fill="white"/>
<path d="M90.296 63.4217C90.7296 63.6709 91.0532 64.0156 91.2637 64.4557V63.1478H94.2015V71.3832H91.2637V70.0753C91.0532 70.5153 90.7327 70.86 90.296 71.1093C89.8624 71.3586 89.3502 71.4848 88.7595 71.4848C88.0902 71.4848 87.487 71.3155 86.9465 70.977C86.4061 70.6384 85.9819 70.1491 85.674 69.509C85.3629 68.8689 85.209 68.118 85.209 67.2562C85.209 66.3945 85.3629 65.6467 85.674 65.0097C85.9851 64.3726 86.4092 63.8864 86.9465 63.5478C87.487 63.2093 88.0902 63.04 88.7595 63.04C89.3502 63.0462 89.8624 63.1724 90.296 63.4217ZM88.6181 66.0222C88.3322 66.3207 88.1908 66.7331 88.1908 67.2624C88.1908 67.801 88.3322 68.2195 88.6181 68.518C88.904 68.8166 89.2748 68.9643 89.7335 68.9643C90.1734 68.9643 90.5379 68.8135 90.827 68.5088C91.116 68.2041 91.2606 67.7887 91.2606 67.2624C91.2606 66.7423 91.116 66.333 90.827 66.0283C90.5379 65.7236 90.1734 65.5728 89.7335 65.5728C89.2748 65.5728 88.9009 65.7236 88.6181 66.0222Z" fill="white"/>
<path d="M104.096 64.025C104.645 64.6559 104.919 65.5145 104.919 66.6009V71.3865H101.997V66.9671C101.997 66.487 101.868 66.1147 101.613 65.8438C101.359 65.573 101.016 65.4407 100.586 65.4407C100.146 65.4407 99.7973 65.5792 99.5365 65.8592C99.2757 66.1393 99.1469 66.524 99.1469 67.0133V71.3895H96.1934V63.151H99.1469V64.5297C99.3857 64.0896 99.7376 63.7357 100.196 63.4741C100.655 63.2126 101.196 63.0771 101.814 63.0771C102.785 63.0771 103.546 63.3941 104.096 64.025Z" fill="white"/>
<path d="M111.514 63.4216C111.945 63.6709 112.265 64.0156 112.473 64.4557V60.5195H115.426V71.3832H112.473V70.0752C112.262 70.5153 111.942 70.86 111.514 71.1093C111.084 71.3586 110.575 71.4847 109.984 71.4847C109.315 71.4847 108.712 71.3155 108.171 70.977C107.631 70.6384 107.207 70.1491 106.899 69.509C106.588 68.8689 106.434 68.1179 106.434 67.2562C106.434 66.3945 106.588 65.6467 106.899 65.0096C107.21 64.3726 107.634 63.8863 108.171 63.5478C108.712 63.2093 109.315 63.04 109.984 63.04C110.575 63.0462 111.084 63.1724 111.514 63.4216ZM109.843 66.0221C109.557 66.3207 109.415 66.7331 109.415 67.2624C109.415 67.801 109.557 68.2195 109.843 68.518C110.129 68.8165 110.499 68.9643 110.958 68.9643C111.398 68.9643 111.763 68.8135 112.052 68.5088C112.341 68.2041 112.485 67.7886 112.485 67.2624C112.485 66.7423 112.341 66.333 112.052 66.0283C111.763 65.7236 111.398 65.5728 110.958 65.5728C110.499 65.5728 110.129 65.7236 109.843 66.0221Z" fill="white"/>
<path d="M120.371 60.5225V71.3861H117.418V60.5225H120.371Z" fill="white"/>
<path d="M128.61 63.5547C129.273 63.8932 129.798 64.3825 130.178 65.0226C130.558 65.6628 130.747 66.4106 130.747 67.2631C130.747 68.1248 130.558 68.8726 130.178 69.5097C129.798 70.1467 129.276 70.636 128.61 70.9777C127.944 71.3193 127.193 71.4916 126.354 71.4916C125.515 71.4916 124.761 71.3193 124.092 70.9777C123.423 70.636 122.898 70.1467 122.518 69.5097C122.138 68.8726 121.949 68.1248 121.949 67.2631C121.949 66.4014 122.138 65.6535 122.518 65.0165C122.898 64.3794 123.423 63.8932 124.092 63.5547C124.761 63.2161 125.515 63.0469 126.354 63.0469C127.193 63.0469 127.944 63.2161 128.61 63.5547ZM125.333 65.9859C125.063 66.2783 124.928 66.706 124.928 67.2631C124.928 67.8293 125.063 68.2602 125.333 68.5556C125.603 68.848 125.943 68.9957 126.351 68.9957C126.75 68.9957 127.086 68.848 127.357 68.5464C127.627 68.2479 127.762 67.8201 127.762 67.2631C127.762 66.706 127.627 66.2783 127.357 65.9859C127.086 65.6935 126.753 65.5458 126.351 65.5458C125.943 65.5427 125.603 65.6905 125.333 65.9859Z" fill="white"/>
<path d="M136.503 63.5172C137.003 63.2218 137.534 63.0771 138.093 63.0771V66.1608H137.238C136.579 66.1608 136.085 66.287 135.755 66.5363C135.426 66.7856 135.262 67.2195 135.262 67.835V71.3865H132.309V63.151H135.262V64.6928C135.589 64.2035 136.004 63.8127 136.503 63.5172Z" fill="white"/>
<path d="M144.087 63.4216C144.517 63.6709 144.838 64.0156 145.045 64.4557V60.5195H147.998V71.3832H145.045V70.0752C144.834 70.5153 144.514 70.86 144.087 71.1093C143.656 71.3586 143.147 71.4847 142.556 71.4847C141.887 71.4847 141.284 71.3155 140.743 70.977C140.203 70.6384 139.779 70.1491 139.471 69.509C139.16 68.8689 139.006 68.1179 139.006 67.2562C139.006 66.3945 139.16 65.6467 139.471 65.0096C139.782 64.3726 140.206 63.8863 140.743 63.5478C141.284 63.2093 141.887 63.04 142.556 63.04C143.147 63.0462 143.656 63.1724 144.087 63.4216ZM142.415 66.0221C142.129 66.3207 141.988 66.7331 141.988 67.2624C141.988 67.801 142.129 68.2195 142.415 68.518C142.701 68.8165 143.072 68.9643 143.53 68.9643C143.97 68.9643 144.335 68.8135 144.624 68.5088C144.913 68.2041 145.057 67.7886 145.057 67.2624C145.057 66.7423 144.913 66.333 144.624 66.0283C144.335 65.7236 143.97 65.5728 143.53 65.5728C143.072 65.5728 142.698 65.7236 142.415 66.0221Z" fill="white"/>
<path d="M147.999 58.9437L147.968 59.2052L141.363 59.2022L141.706 56.2293H139.202L139.06 57.4357L138.259 56.6232L138.36 55.7369H137.866L137.832 56.0354L136.785 56.3924L136.405 59.6761H135.199L135.525 56.854H134.46L134.237 56.0816H132.531L132.468 56.617H131.079L131.152 55.9923H130.555L130.19 59.1529L129.05 60.0793L129.336 57.6265H129.047L128.453 57.6973L128.318 58.8729H126.756L126.649 59.8115L126.005 59.4391L126.297 56.9063L126.021 56.7124L125.848 56.8171L125.772 57.4788H124.773L125.018 55.3491L124.729 55.0537L124.11 55.6569L123.887 57.5834L122.549 57.2387L122.652 56.3524H121.396L121.267 57.4572L120.767 56.9802L120.431 59.8854L119.969 60.3224L119.366 59.8392L120.092 53.5734L120.133 53.2102L119.611 52.7147L119.014 52.9148L118.942 53.5272L118.844 54.3735L117.591 54.7705L117.754 53.3703L117.776 53.1671H116.884C116.805 53.1456 116.727 53.121 116.648 53.0994L116.793 51.85L116.312 50.819H115.976L115.156 51.8838L115.09 52.4624L114.662 56.1339L114.037 56.8694L113.5 56.3585L113.707 54.5643H112.347L112.202 55.8107H111.369L110.876 60.0916L109.915 59.4607L110.109 57.7711H109.582L109.538 58.1343H108.589L108.312 57.8727L107.932 58.5251L107.699 60.5317H106.389L106.97 55.5184H105.079L104.422 56.0292L104.042 59.313L103.002 60.1223L103.291 57.6203H101.28L101.362 56.9063H101.211L101.117 57.7157L100.781 57.9804L100.718 58.5159L99.926 59.2853H99.2127L99.2662 58.8113H98.8765L98.8231 59.2853H94.0566L94.0881 59.0237H98.5498L98.6032 58.5497H99.5992L99.5458 59.0237H99.8035L100.419 58.4266L100.482 57.8727L100.818 57.6111L100.928 56.6478H101.199L101.261 56.0969H101.475L101.412 56.6478H101.689L101.607 57.3618H103.618L103.373 59.4945L103.744 59.2083L104.124 55.9246L104.975 55.2599H107.297L106.719 60.2731H107.42L107.627 58.4759L108.249 57.408L108.736 57.8727H109.258L109.299 57.5095H110.436L110.226 59.3253L110.618 59.5838L111.087 55.5461H111.919L112.064 54.2966H114.034L113.808 56.2447L114.021 56.4478L114.357 56.0539L114.791 52.2993L114.848 51.8069L115.818 50.5543H115.972L116.07 49.708H116.371L116.274 50.5543H116.519L117.094 51.7823L116.965 52.8994H118.109L118.049 53.4133L117.936 54.3858L118.555 54.1889L118.637 53.4934L118.725 52.7332L119.715 52.4008L120.444 53.0964L120.39 53.5611L119.68 59.71L119.966 59.9408L120.129 59.7869L120.528 56.3431L121.028 56.8202L121.113 56.0816H122.979L122.869 57.0356L123.617 57.2264L123.809 55.5553L124.61 54.7798L124.685 54.1212H124.934L124.861 54.7551L125.329 55.2383L125.1 57.211H125.49L125.549 56.6817L126.049 56.3739L126.608 56.7709L126.316 59.2883L126.388 59.3314L126.473 58.6082H128.035L128.167 57.4664L129.059 57.3587H129.662L129.424 59.4207L129.892 59.0391L130.275 55.7246H131.482L131.409 56.3493H132.189L132.251 55.8138H134.479L134.702 56.5863H135.855L135.529 59.4084H136.126L136.496 56.2139L137.543 55.8569L137.59 55.4722H138.693L138.57 56.5155L138.825 56.774L138.919 55.9615H142.033L141.69 58.9344L147.999 58.9437Z" fill="white"/>
<path d="M79.6412 56.6723H78.7645V60.2238H78.0639V56.6723H77.5234V56.1184H78.0639V55.7737C78.0639 55.3244 78.1864 54.9982 78.4315 54.7951C78.6766 54.5919 79.0599 54.4873 79.5846 54.4873V55.0413C79.2798 55.0413 79.0662 55.0967 78.9468 55.2105C78.8274 55.3213 78.7677 55.5121 78.7677 55.7737V56.1184H79.6443V56.6723H79.6412Z" fill="white"/>
<path d="M82.4056 56.0537V56.7646H82.2234C81.8683 56.7646 81.595 56.8569 81.4096 57.0385C81.2242 57.2201 81.1299 57.5371 81.1299 57.9833V60.2268H80.4355V56.1245H81.1299V56.82C81.3782 56.3061 81.8055 56.0537 82.4056 56.0537Z" fill="white"/>
<path d="M86.1607 56.3154C86.4811 56.4909 86.7357 56.7401 86.921 57.0633C87.1064 57.3864 87.2007 57.7588 87.2007 58.1773C87.2007 58.5897 87.1033 58.959 86.9116 59.2791C86.7168 59.5992 86.456 59.8484 86.1261 60.0269C85.7962 60.2054 85.4286 60.2916 85.0264 60.2916C84.6336 60.2916 84.2817 60.2054 83.9706 60.03C83.6564 59.8546 83.4145 59.6084 83.2386 59.2853C83.0626 58.9652 82.9746 58.5928 82.9746 58.1743C82.9746 57.7496 83.0689 57.3772 83.2543 57.0571C83.4396 56.7371 83.6941 56.4878 84.0146 56.3124C84.3351 56.1369 84.6933 56.0508 85.0892 56.0508C85.482 56.0539 85.8402 56.14 86.1607 56.3154ZM84.3665 56.7925C84.1592 56.9125 83.9926 57.0879 83.867 57.3218C83.7413 57.5557 83.6784 57.8388 83.6784 58.1743C83.6784 58.5036 83.7381 58.7836 83.8575 59.0175C83.9769 59.2514 84.1372 59.4299 84.3414 59.5468C84.5456 59.6669 84.7719 59.7253 85.0201 59.7253C85.2746 59.7253 85.5134 59.6638 85.7333 59.5407C85.9533 59.4176 86.1355 59.2391 86.2706 59.0052C86.4089 58.7713 86.478 58.4913 86.478 58.1681C86.478 57.8388 86.412 57.5557 86.2832 57.3187C86.1544 57.0817 85.9816 56.9033 85.7648 56.7832C85.548 56.6632 85.3123 56.6047 85.0578 56.6047C84.8064 56.614 84.5739 56.6724 84.3665 56.7925Z" fill="white"/>
<path d="M93.9385 56.2508C94.1867 56.3832 94.3846 56.5801 94.5292 56.8417C94.6737 57.1033 94.746 57.4203 94.746 57.7957V60.2239H94.0579V57.9065C94.0579 57.4941 93.9542 57.1802 93.75 56.9648C93.5426 56.7494 93.2629 56.6447 92.9079 56.6447C92.5528 56.6447 92.2701 56.7525 92.0658 56.9648C91.8584 57.1802 91.7579 57.4941 91.7579 57.9065V60.2239H91.0698V57.9065C91.0698 57.4941 90.9692 57.1802 90.765 56.9648C90.5608 56.7494 90.278 56.6447 89.9167 56.6447C89.5616 56.6447 89.2788 56.7525 89.0746 56.9648C88.8672 57.1802 88.7667 57.4941 88.7667 57.9065V60.2239H88.0723V56.1216H88.7667V56.7863C88.9049 56.5463 89.0934 56.3647 89.3322 56.2416C89.571 56.1185 89.8381 56.0539 90.1334 56.0539C90.4539 56.0539 90.743 56.1308 91.0038 56.2816C91.2646 56.4324 91.4594 56.654 91.5914 56.9433C91.7453 56.6632 91.9527 56.4447 92.2135 56.2877C92.4743 56.1308 92.7759 56.0508 93.109 56.0508C93.4106 56.0539 93.6871 56.1185 93.9385 56.2508Z" fill="white"/>
</svg>
