<svg width="104" height="56" viewBox="0 0 104 56" fill="none" xmlns="http://www.w3.org/2000/svg">
<path fill-rule="evenodd" clip-rule="evenodd" d="M46.6364 41.0063C43.3621 45.7839 37.8687 48.7268 31.8433 48.7268C24.6035 48.7268 18.1321 44.4793 15.3545 37.9042C14.4559 35.7794 14.0011 33.5367 14.0011 31.2396V20.7813L14.2395 20.5828C15.5996 19.4571 16.9773 18.3096 18.3131 17.1992C22.4618 13.7458 26.7496 10.1769 31.0639 6.77148L31.4812 6.44207L31.8985 6.7693C37.2174 10.9448 42.6092 15.2053 47.8265 19.3284L49.6789 20.7922V20.9078H59.7206C57.2257 18.9379 54.7241 16.9614 52.2843 15.0351C46.5945 10.539 40.7103 5.89014 34.9057 1.33728C33.7576 0.436307 32.6536 0 31.5298 0C31.4702 0 31.4106 0.00218153 31.3532 0.00436307C30.2271 0.0501753 29.0878 0.534476 27.8735 1.48563C23.3384 5.04371 18.8342 8.79158 14.4758 12.4173C10.2939 15.899 5.96861 19.5007 1.61458 22.9301C0.342812 23.9293 -0.2732 25.3952 0.115396 26.4926C0.393594 27.2801 1.17078 27.7142 2.29904 27.7142C3.8203 27.7077 5.36364 27.7055 6.85841 27.7033L7.82769 27.7011V31.2178C7.82769 34.3265 8.4437 37.3588 9.65806 40.234C11.5171 44.6342 14.6745 48.6155 18.5472 51.4471C22.6208 54.4249 27.2177 55.9978 31.8433 55.9978C36.4689 55.9978 41.0658 54.4249 45.1395 51.4471C48.7869 48.7813 51.7986 45.0945 53.6885 41.0019H46.6364V41.0063Z" fill="#3C8FCA"/>
<path fill-rule="evenodd" clip-rule="evenodd" d="M31.779 44.2242C28.5929 44.2242 25.599 42.9981 23.3469 40.773C21.0948 38.5478 19.854 35.5875 19.854 32.4417C19.854 29.2937 21.0948 26.3356 23.3469 24.1104C25.599 21.8852 28.5951 20.6592 31.779 20.6592C33.733 20.6592 35.6693 21.137 37.3827 22.0401L38.5639 22.6619V10.2315L43.704 13.4187V31.8679C43.704 32.47 43.704 33.0918 43.6333 33.7353C43.3154 36.6019 41.9421 39.2503 39.765 41.1896C37.5726 43.1487 34.7354 44.2242 31.779 44.2242ZM31.779 25.7356C28.0365 25.7356 24.994 28.744 24.994 32.4395C24.994 36.1372 28.0387 39.1434 31.779 39.1434C35.5214 39.1434 38.5639 36.135 38.5639 32.4395C38.5639 28.744 35.5214 25.7356 31.779 25.7356Z" fill="#3C8FCA"/>
<path d="M51.732 24.0907V37.8714H47.3581V24.0907H51.732Z" fill="#434343"/>
<path d="M60.7161 37.8736L58.0754 32.9303V37.8736H53.7015V24.0929H60.2038C61.3343 24.0929 62.2992 24.2914 63.1006 24.6862C63.9021 25.0833 64.5027 25.6199 64.9023 26.3028C65.3019 26.9834 65.5029 27.7535 65.5029 28.6086C65.5029 29.5292 65.2423 30.3473 64.7257 31.0607C64.2068 31.774 63.4605 32.2867 62.489 32.5987L65.5227 37.8736H60.7161ZM58.0754 30.0485H59.8086C60.2281 30.0485 60.5438 29.9546 60.7536 29.767C60.9634 29.5794 61.0693 29.2827 61.0693 28.8813C61.0693 28.5192 60.9611 28.2334 60.7448 28.024C60.5284 27.8167 60.2149 27.712 59.8086 27.712H58.0754V30.0485Z" fill="#434343"/>
<path d="M71.2744 29.2304H75.6085V32.4809H71.2744V34.4268H76.2003V37.8714H66.9005V24.0907H76.2003V27.5157H71.2744V29.2304Z" fill="#434343"/>
<path d="M85.606 33.6C85.2196 33.8531 84.7759 33.9796 84.2769 33.9796C83.5416 33.9796 82.9587 33.7069 82.5326 33.1615C82.1065 32.6161 81.8923 31.8831 81.8923 30.9625C81.8923 30.0419 82.1065 29.3089 82.5326 28.7635C82.9587 28.2182 83.5394 27.9455 84.2769 27.9455C84.7759 27.9455 85.2196 28.072 85.606 28.3251C85.9946 28.5781 86.2927 28.9315 86.5024 29.3853H91.1126C90.9139 28.2945 90.5165 27.3412 89.9203 26.5231C89.322 25.705 88.5492 25.0746 87.5954 24.6252C86.6415 24.178 85.5619 23.9533 84.3541 23.9533C82.9477 23.9533 81.7267 24.2478 80.689 24.839C79.6513 25.4302 78.8542 26.257 78.2956 27.3194C77.737 28.384 77.4588 29.5969 77.4588 30.9603C77.4588 32.3238 77.737 33.5367 78.2956 34.6013C78.8498 35.6572 79.6402 36.4796 80.6669 37.0686C80.6735 37.073 80.6824 37.0774 80.689 37.0817C80.7486 37.1145 80.8082 37.1472 80.8678 37.1799L80.9142 36.7698L81.4904 36.015H81.7267L82.0645 36.7458L81.9629 37.6315C82.0181 37.6489 82.0711 37.6642 82.1285 37.6795H82.7622L82.7468 37.8235C82.8152 37.8365 82.8859 37.8496 82.9565 37.8584C83.0912 37.8824 83.2281 37.8998 83.3694 37.9151C83.4401 37.9216 83.5085 37.9282 83.5814 37.9347L83.6321 37.5006L84.0516 37.3588L84.4182 37.71L84.3895 37.9674C84.4623 37.9674 84.533 37.9674 84.6036 37.9653C85.7098 37.9347 86.7056 37.7122 87.5932 37.2977C88.5448 36.8505 89.3198 36.2178 89.9181 35.3998C90.5165 34.5817 90.9139 33.6284 91.1104 32.5376H86.5002C86.2927 32.9935 85.9946 33.3469 85.606 33.6Z" fill="#434343"/>
<path d="M103.643 24.0907V27.5157H99.9377V37.8714H95.5638V27.5157H91.8986V24.0907H103.643Z" fill="#434343"/>
<path d="M56.8102 49.0518H59.1374V50.6029H54.7348V43.2337H56.8102V49.0518Z" fill="#434343"/>
<path d="M63.4517 44.9571C63.7564 45.1338 63.9838 45.3781 64.1317 45.6901V44.7629H66.1961V50.6007H64.1317V49.6736C63.9838 49.9855 63.7586 50.2298 63.4517 50.4066C63.147 50.5833 62.7871 50.6727 62.372 50.6727C61.9017 50.6727 61.4778 50.5527 61.098 50.3127C60.7183 50.0728 60.4202 49.7259 60.2038 49.2722C59.9852 48.8184 59.8771 48.2861 59.8771 47.6753C59.8771 47.0644 59.9852 46.5343 60.2038 46.0827C60.4224 45.6312 60.7205 45.2865 61.098 45.0465C61.4778 44.8066 61.9017 44.6866 62.372 44.6866C62.7871 44.6909 63.147 44.7804 63.4517 44.9571ZM62.2727 46.8005C62.0717 47.0121 61.9724 47.3044 61.9724 47.6796C61.9724 48.0614 62.0717 48.3581 62.2727 48.5697C62.4736 48.7813 62.7341 48.886 63.0565 48.886C63.3656 48.886 63.6217 48.7791 63.8248 48.5632C64.028 48.3472 64.1295 48.0527 64.1295 47.6796C64.1295 47.311 64.028 47.0208 63.8248 46.8048C63.6217 46.5889 63.3656 46.482 63.0565 46.482C62.7341 46.482 62.4714 46.5889 62.2727 46.8005Z" fill="#434343"/>
<path d="M73.1489 45.3847C73.5353 45.8319 73.7274 46.4405 73.7274 47.2106V50.6029H71.674V47.4702C71.674 47.1299 71.5835 46.8659 71.4046 46.6739C71.2258 46.482 70.9851 46.3882 70.6826 46.3882C70.3735 46.3882 70.1285 46.4863 69.9452 46.6849C69.7619 46.8834 69.6714 47.1561 69.6714 47.5029V50.6051H67.596V44.7651H69.6714V45.7424C69.8392 45.4305 70.0865 45.1796 70.4089 44.9942C70.7312 44.8087 71.111 44.7127 71.5459 44.7127C72.2282 44.7127 72.7625 44.9374 73.1489 45.3847Z" fill="#434343"/>
<path d="M78.3618 44.9571C78.6643 45.1338 78.8895 45.3781 79.0352 45.6901V42.8999H81.1107V50.6007H79.0352V49.6736C78.8873 49.9855 78.6621 50.2298 78.3618 50.4065C78.0593 50.5833 77.7016 50.6727 77.2866 50.6727C76.8163 50.6727 76.3923 50.5527 76.0126 50.3127C75.6328 50.0728 75.3347 49.7259 75.1184 49.2722C74.8998 48.8184 74.7916 48.2861 74.7916 47.6753C74.7916 47.0644 74.8998 46.5343 75.1184 46.0827C75.337 45.6312 75.635 45.2865 76.0126 45.0465C76.3923 44.8066 76.8163 44.6866 77.2866 44.6866C77.7016 44.6909 78.0593 44.7804 78.3618 44.9571ZM77.1872 46.8005C76.9863 47.0121 76.8869 47.3044 76.8869 47.6796C76.8869 48.0614 76.9863 48.3581 77.1872 48.5697C77.3881 48.7813 77.6487 48.886 77.971 48.886C78.2801 48.886 78.5362 48.7791 78.7394 48.5632C78.9425 48.3472 79.0441 48.0527 79.0441 47.6796C79.0441 47.311 78.9425 47.0208 78.7394 46.8048C78.5362 46.5889 78.2801 46.482 77.971 46.482C77.6487 46.482 77.3881 46.5889 77.1872 46.8005Z" fill="#434343"/>
<path d="M84.586 42.9021V50.6029H82.5105V42.9021H84.586Z" fill="#434343"/>
<path d="M90.3752 45.0509C90.841 45.2909 91.2097 45.6377 91.4769 46.0915C91.7441 46.5452 91.8765 47.0753 91.8765 47.6796C91.8765 48.2905 91.7441 48.8206 91.4769 49.2722C91.2097 49.7237 90.8432 50.0706 90.3752 50.3127C89.9071 50.5549 89.3794 50.6771 88.7899 50.6771C88.2003 50.6771 87.6704 50.5549 87.2002 50.3127C86.7299 50.0706 86.3611 49.7237 86.094 49.2722C85.8268 48.8206 85.6943 48.2905 85.6943 47.6796C85.6943 47.0688 85.8268 46.5387 86.094 46.0871C86.3611 45.6355 86.7299 45.2909 87.2002 45.0509C87.6704 44.8109 88.2003 44.6909 88.7899 44.6909C89.3794 44.6909 89.9071 44.8109 90.3752 45.0509ZM88.0723 46.7743C87.8824 46.9815 87.7875 47.2848 87.7875 47.6796C87.7875 48.081 87.8824 48.3864 88.0723 48.5959C88.2622 48.8031 88.5006 48.9078 88.7877 48.9078C89.0681 48.9078 89.3043 48.8031 89.4942 48.5893C89.6841 48.3777 89.779 48.0745 89.779 47.6796C89.779 47.2848 89.6841 46.9815 89.4942 46.7743C89.3043 46.5671 89.0703 46.4623 88.7877 46.4623C88.5006 46.4602 88.2622 46.5649 88.0723 46.7743Z" fill="#434343"/>
<path d="M95.9215 45.0247C96.2725 44.8153 96.6457 44.7127 97.0387 44.7127V46.8986H96.4381C95.9745 46.8986 95.6278 46.9881 95.396 47.1648C95.1641 47.3415 95.0493 47.6491 95.0493 48.0854V50.6029H92.9739V44.7651H95.0493V45.8581C95.279 45.5112 95.5704 45.2341 95.9215 45.0247Z" fill="#434343"/>
<path d="M101.251 44.9571C101.554 45.1338 101.779 45.3781 101.925 45.6901V42.8999H104V50.6007H101.925V49.6736C101.777 49.9855 101.552 50.2298 101.251 50.4065C100.949 50.5833 100.591 50.6727 100.176 50.6727C99.7058 50.6727 99.2819 50.5527 98.9022 50.3127C98.5224 50.0728 98.2243 49.7259 98.008 49.2722C97.7894 48.8184 97.6812 48.2861 97.6812 47.6753C97.6812 47.0644 97.7894 46.5343 98.008 46.0827C98.2265 45.6312 98.5246 45.2865 98.9022 45.0465C99.2819 44.8066 99.7058 44.6866 100.176 44.6866C100.591 44.6909 100.949 44.7804 101.251 44.9571ZM100.077 46.8005C99.8759 47.0121 99.7765 47.3044 99.7765 47.6796C99.7765 48.0614 99.8759 48.3581 100.077 48.5697C100.278 48.7813 100.538 48.886 100.861 48.886C101.17 48.886 101.426 48.7791 101.629 48.5632C101.832 48.3472 101.934 48.0527 101.934 47.6796C101.934 47.311 101.832 47.0208 101.629 46.8048C101.426 46.5889 101.17 46.482 100.861 46.482C100.538 46.482 100.275 46.5889 100.077 46.8005Z" fill="#434343"/>
<path d="M104 41.7829L103.978 41.9684L99.3371 41.9662L99.5778 39.8588H97.8181L97.7187 40.714L97.1557 40.1381L97.2264 39.5098H96.8797L96.8554 39.7214L96.1202 39.9745L95.853 42.3022H95.0052L95.2348 40.3017H94.4863L94.3296 39.7541H93.1306L93.0865 40.1337H92.1106L92.1614 39.6909H91.7419L91.4857 41.9313L90.6843 42.5879L90.8852 40.8492H90.6821L90.2648 40.8994L90.1698 41.7328H89.0725L88.9974 42.3981L88.5448 42.1342L88.7501 40.3388L88.5558 40.2013L88.4344 40.2755L88.3814 40.7445H87.6793L87.8515 39.2349L87.6484 39.0255L87.2134 39.4531L87.0566 40.8187L86.1161 40.5744L86.1889 39.9461H85.3057L85.2152 40.7293L84.8642 40.3911L84.6279 42.4505L84.3034 42.7603L83.8794 42.4178L84.3895 37.9762L84.4182 37.7187L84.0516 37.3675L83.6321 37.5093L83.5814 37.9434L83.5129 38.5434L82.6319 38.8248L82.7468 37.8322L82.7622 37.6882H82.1352C82.08 37.6729 82.0248 37.6555 81.9696 37.6402L82.0711 36.7545L81.7333 36.0237H81.4971L80.9208 36.7785L80.8744 37.1886L80.5742 39.7912L80.1348 40.3126L79.7572 39.9505L79.903 38.6786H78.9469L78.8454 39.5621H78.2603L77.9136 42.5967L77.238 42.1494L77.3749 40.9518H77.0039L76.973 41.2092H76.3062L76.1119 41.0238L75.8448 41.4863L75.6814 42.9086H74.7607L75.1692 39.3549H73.84L73.3785 39.717L73.1114 42.0447L72.3805 42.6185L72.5837 40.8449H71.1706L71.228 40.3388H71.122L71.0558 40.9125L70.8195 41.1001L70.7754 41.4797L70.219 42.0251H69.7178L69.7553 41.6891H69.4815L69.444 42.0251H66.0946L66.1167 41.8397H69.2519L69.2894 41.5037H69.9894L69.9518 41.8397H70.1329L70.5656 41.4164L70.6098 41.0238L70.846 40.8383L70.9233 40.1555H71.1132L71.1573 39.765H71.3075L71.2633 40.1555H71.4576L71.4002 40.6616H72.8133L72.6411 42.1734L72.9016 41.9706L73.1688 39.6429L73.7671 39.1716H75.3988L74.9925 42.7254H75.4849L75.6306 41.4514L76.0678 40.6944L76.41 41.0238H76.7765L76.8052 40.7663H77.6045L77.4566 42.0535L77.7326 42.2367L78.0615 39.3745H78.6466L78.7482 38.4888H80.1326L79.9736 39.8697L80.1237 40.0137L80.36 39.7345L80.7044 36.724L81.3867 35.8361H81.4949L81.5633 35.2362H81.7753L81.7068 35.8361H81.879L82.2831 36.7065L82.1926 37.4984H82.9963L82.8748 38.5521L83.3098 38.4125L83.3672 37.9194L83.429 37.3806L84.1245 37.145L84.6367 37.638L84.1002 42.3261L84.3011 42.4898L84.416 42.3807L84.6964 39.9395L85.0474 40.2777L85.107 39.7541H86.4185L86.3413 40.4304L86.8668 40.5656L87.0014 39.3811L87.5645 38.8313L87.6174 38.3645H87.7919L87.7411 38.8139L88.0701 39.1564L87.9089 40.5547H88.1827L88.2246 40.1795L88.5757 39.9614L88.9687 40.2428L88.7634 42.0273L88.8141 42.0578L88.8738 41.5452H89.9711L90.0638 40.7358L90.6909 40.6595H91.1148L90.947 42.1211L91.276 41.8506L91.5454 39.5011H92.3932L92.3424 39.9439H92.89L92.9341 39.5643H94.4996L94.6563 40.1119H95.4666L95.237 42.1124H95.6565L95.9171 39.8479L96.6523 39.5949L96.6854 39.3222H97.4604L97.3743 40.0617L97.5531 40.245L97.6194 39.669H99.8074L99.5668 41.7764L104 41.7829Z" fill="#434343"/>
<path d="M55.3486 40.173V42.6905H54.8562V40.173H54.4765V39.7803H54.8562V39.536C54.8562 39.2175 54.9423 38.9862 55.1146 38.8422C55.2868 38.6982 55.5561 38.6241 55.9249 38.6241V39.0168C55.7107 39.0168 55.5606 39.056 55.4767 39.1367C55.3927 39.2153 55.3508 39.3505 55.3508 39.536V39.7803H55.9668V40.173H55.3486Z" fill="#434343"/>
<path d="M57.9076 39.7345V40.2384H57.7795C57.53 40.2384 57.3379 40.3039 57.2077 40.4326C57.0774 40.5613 57.0112 40.786 57.0112 41.1023V42.6926H56.5232V39.7846H57.0112V40.2777C57.1856 39.9134 57.4859 39.7345 57.9076 39.7345Z" fill="#434343"/>
<path d="M60.5461 39.9199C60.7713 40.0443 60.9501 40.221 61.0804 40.45C61.2106 40.6791 61.2769 40.943 61.2769 41.2397C61.2769 41.5321 61.2084 41.7938 61.0737 42.0207C60.9369 42.2476 60.7536 42.4243 60.5218 42.5508C60.2899 42.6774 60.0316 42.7384 59.749 42.7384C59.473 42.7384 59.2257 42.6774 59.0071 42.553C58.7863 42.4287 58.6163 42.2541 58.4927 42.0251C58.369 41.7982 58.3072 41.5342 58.3072 41.2375C58.3072 40.9365 58.3735 40.6725 58.5037 40.4457C58.634 40.2188 58.8128 40.0421 59.038 39.9177C59.2632 39.7934 59.5149 39.7323 59.7931 39.7323C60.0691 39.7345 60.3208 39.7956 60.5461 39.9199ZM59.2853 40.258C59.1396 40.3431 59.0226 40.4675 58.9343 40.6333C58.8459 40.7991 58.8018 40.9998 58.8018 41.2375C58.8018 41.471 58.8437 41.6695 58.9276 41.8353C59.0115 42.0011 59.1241 42.1276 59.2677 42.2105C59.4112 42.2956 59.5701 42.337 59.7446 42.337C59.9234 42.337 60.0912 42.2934 60.2458 42.2062C60.4003 42.1189 60.5284 41.9924 60.6233 41.8266C60.7205 41.6608 60.7691 41.4622 60.7691 41.2332C60.7691 40.9998 60.7227 40.7991 60.6322 40.6311C60.5416 40.4631 60.4202 40.3366 60.2678 40.2515C60.1155 40.1664 59.9499 40.125 59.7711 40.125C59.5944 40.1315 59.431 40.173 59.2853 40.258Z" fill="#434343"/>
<path d="M66.0107 39.8741C66.1851 39.9679 66.3242 40.1075 66.4258 40.2929C66.5273 40.4784 66.5781 40.7031 66.5781 40.9692V42.6905H66.0946V41.0478C66.0946 40.7554 66.0217 40.5329 65.8782 40.3802C65.7325 40.2275 65.536 40.1533 65.2865 40.1533C65.037 40.1533 64.8383 40.2297 64.6948 40.3802C64.549 40.5329 64.4784 40.7554 64.4784 41.0478V42.6905H63.9948V41.0478C63.9948 40.7554 63.9242 40.5329 63.7807 40.3802C63.6371 40.2275 63.4384 40.1533 63.1845 40.1533C62.935 40.1533 62.7363 40.2297 62.5928 40.3802C62.4471 40.5329 62.3764 40.7554 62.3764 41.0478V42.6905H61.8885V39.7825H62.3764V40.2537C62.4736 40.0835 62.606 39.9548 62.7739 39.8675C62.9417 39.7803 63.1293 39.7345 63.3369 39.7345C63.5621 39.7345 63.7652 39.789 63.9485 39.8959C64.1317 40.0028 64.2686 40.1599 64.3614 40.3649C64.4695 40.1664 64.6153 40.0115 64.7985 39.9003C64.9818 39.789 65.1937 39.7323 65.4278 39.7323C65.6397 39.7345 65.834 39.7803 66.0107 39.8741Z" fill="#434343"/>
</svg>
