<svg width="221" height="68" viewBox="0 0 221 68" fill="none" xmlns="http://www.w3.org/2000/svg">
<mask id="mask0_730_6" style="mask-type:luminance" maskUnits="userSpaceOnUse" x="9" y="3" width="60" height="62">
<path d="M67.7887 28.4708H39.5799V40.2203H55.8171C54.3035 47.6847 47.9737 51.9698 39.5799 51.9698C29.6724 51.9698 21.6913 43.9525 21.6913 34C21.6913 24.0475 29.6724 16.0301 39.5799 16.0301C43.8456 16.0301 47.6985 17.5507 50.7257 20.0388L59.5325 11.1921C54.1658 6.4923 47.2857 3.58948 39.5799 3.58948C22.7922 3.58948 9.30688 17.136 9.30688 34C9.30688 50.864 22.7922 64.4105 39.5799 64.4105C54.7163 64.4105 68.4768 53.3521 68.4768 34C68.4768 32.203 68.2015 30.2678 67.7887 28.4708Z" fill="white"/>
</mask>
<g mask="url(#mask0_730_6)">
<path d="M6.55322 51.9698V16.0302L29.9458 34L6.55322 51.9698Z" fill="#FBBC05"/>
</g>
<mask id="mask1_730_6" style="mask-type:luminance" maskUnits="userSpaceOnUse" x="9" y="3" width="60" height="62">
<path d="M67.7887 28.4708H39.5799V40.2203H55.8171C54.3035 47.6847 47.9737 51.9698 39.5799 51.9698C29.6724 51.9698 21.6913 43.9525 21.6913 34C21.6913 24.0475 29.6724 16.0301 39.5799 16.0301C43.8456 16.0301 47.6985 17.5507 50.7257 20.0388L59.5325 11.1921C54.1658 6.4923 47.2857 3.58948 39.5799 3.58948C22.7922 3.58948 9.30688 17.136 9.30688 34C9.30688 50.864 22.7922 64.4105 39.5799 64.4105C54.7163 64.4105 68.4768 53.3521 68.4768 34C68.4768 32.203 68.2015 30.2678 67.7887 28.4708Z" fill="white"/>
</mask>
<g mask="url(#mask1_730_6)">
<path d="M6.55322 16.0301L29.9458 34L39.5782 25.568L72.6032 20.177V0.82489H6.55322V16.0301Z" fill="#EA4335"/>
</g>
<mask id="mask2_730_6" style="mask-type:luminance" maskUnits="userSpaceOnUse" x="9" y="3" width="60" height="62">
<path d="M67.7887 28.4708H39.5799V40.2203H55.8171C54.3035 47.6847 47.9737 51.9698 39.5799 51.9698C29.6724 51.9698 21.6913 43.9525 21.6913 34C21.6913 24.0475 29.6724 16.0301 39.5799 16.0301C43.8456 16.0301 47.6985 17.5507 50.7257 20.0388L59.5325 11.1921C54.1658 6.4923 47.2857 3.58948 39.5799 3.58948C22.7922 3.58948 9.30688 17.136 9.30688 34C9.30688 50.864 22.7922 64.4105 39.5799 64.4105C54.7163 64.4105 68.4768 53.3521 68.4768 34C68.4768 32.203 68.2015 30.2678 67.7887 28.4708Z" fill="white"/>
</mask>
<g mask="url(#mask2_730_6)">
<path d="M6.55322 51.9698L47.8344 20.177L58.7052 21.5593L72.6032 0.82489V67.1751H6.55322V51.9698Z" fill="#34A853"/>
</g>
<mask id="mask3_730_6" style="mask-type:luminance" maskUnits="userSpaceOnUse" x="9" y="3" width="60" height="62">
<path d="M67.7887 28.4708H39.5799V40.2203H55.8171C54.3035 47.6847 47.9737 51.9698 39.5799 51.9698C29.6724 51.9698 21.6913 43.9525 21.6913 34C21.6913 24.0475 29.6724 16.0301 39.5799 16.0301C43.8456 16.0301 47.6985 17.5507 50.7257 20.0388L59.5325 11.1921C54.1658 6.4923 47.2857 3.58948 39.5799 3.58948C22.7922 3.58948 9.30688 17.136 9.30688 34C9.30688 50.864 22.7922 64.4105 39.5799 64.4105C54.7163 64.4105 68.4768 53.3521 68.4768 34C68.4768 32.203 68.2015 30.2678 67.7887 28.4708Z" fill="white"/>
</mask>
<g mask="url(#mask3_730_6)">
<path d="M72.6089 67.1751L29.9516 34L24.4475 29.8531L72.6089 16.0302V67.1751Z" fill="#4285F4"/>
</g>
<path d="M90.6323 33.7278L86.3666 27.5075H86.0914H81.6881V33.7278H76.5966V11.4728H86.229C92.146 11.4728 95.8613 14.5139 95.8613 19.4902C95.8613 22.8077 94.21 25.2958 91.3203 26.5399L96.2742 33.7278H90.6323ZM85.8162 15.6197H81.6881V23.3606H85.8162C88.9811 23.3606 90.4947 21.8401 90.4947 19.4902C90.4947 17.002 88.8435 15.6197 85.8162 15.6197Z" fill="#434343"/>
<path d="M115.951 26.5399H103.017C103.429 28.6133 105.356 29.9956 107.833 29.9956C109.622 29.9956 110.998 29.4427 112.099 28.3369L114.713 31.2397C113.062 33.0367 110.722 34.0043 107.695 34.0043C101.778 34.0043 97.9247 30.2721 97.9247 25.1576C97.9247 20.0431 101.778 16.3109 107.008 16.3109C111.96 16.3109 115.814 19.6284 115.814 25.1576C116.089 25.5723 115.951 26.1252 115.951 26.5399ZM103.017 23.6371H111.41C110.998 21.4254 109.483 20.0431 107.283 20.0431C104.943 20.0431 103.429 21.4254 103.017 23.6371Z" fill="#434343"/>
<path d="M135.902 16.5916L128.747 33.7321H123.655L116.5 16.5916H121.591L126.27 28.2029L131.086 16.5916H135.902Z" fill="#434343"/>
<path d="M137.418 11.4728C137.418 9.95232 138.657 8.70825 140.445 8.70825C142.234 8.70825 143.473 9.81409 143.473 11.3346C143.473 12.9934 142.234 14.2374 140.445 14.2374C138.657 14.2374 137.418 12.9934 137.418 11.4728ZM137.968 16.5873H142.923V33.7278H137.968V16.5873Z" fill="#434343"/>
<path d="M164.116 26.5399H151.18C151.594 28.6133 153.521 29.9956 155.996 29.9956C157.786 29.9956 159.162 29.4427 160.262 28.3369L162.877 31.2397C161.226 33.0367 158.887 34.0043 155.859 34.0043C149.942 34.0043 146.089 30.2721 146.089 25.1576C146.089 20.0431 149.942 16.3109 155.171 16.3109C160.125 16.3109 163.978 19.6284 163.978 25.1576C164.116 25.5723 164.116 26.1252 164.116 26.5399ZM151.18 23.6371H159.575C159.162 21.4254 157.648 20.0431 155.446 20.0431C153.107 20.0431 151.455 21.4254 151.18 23.6371Z" fill="#434343"/>
<path d="M194.519 16.5916L188.327 33.7321H183.648L179.795 23.0886L175.805 33.7321H171.127L164.934 16.5916H169.612L173.603 28.2029L177.731 16.5916H181.859L185.85 28.2029L189.979 16.5916H194.519Z" fill="#434343"/>
<path d="M194.934 32.0691L196.586 28.4751C198.1 29.4427 200.439 30.1338 202.502 30.1338C204.841 30.1338 205.668 29.5809 205.668 28.6133C205.668 25.8487 195.348 28.6133 195.348 21.8401C195.348 18.6608 198.237 16.3109 203.191 16.3109C205.53 16.3109 208.145 16.8638 209.795 17.8314L208.145 21.4254C206.493 20.4578 204.841 20.1813 203.191 20.1813C200.989 20.1813 200.025 20.8725 200.025 21.7018C200.025 24.6047 210.345 21.8401 210.345 28.4751C210.345 31.6544 207.456 33.866 202.365 33.866C199.338 34.0043 196.448 33.1749 194.934 32.0691Z" fill="#434343"/>
<path d="M85.2629 46.8576L89.391 38.9785L93.6568 46.8576L101.913 48.2399L96.1332 54.322L97.0966 63.5833L89.391 59.7129L81.5476 63.7216L82.5109 54.322L76.4563 48.2399L85.2629 46.8576Z" fill="#FCB002"/>
<path d="M112.79 46.8576L116.919 38.9785L121.185 46.8576L129.44 48.2399L123.66 54.322L124.624 63.5833L116.919 59.7129L109.074 63.7216L110.038 54.322L103.983 48.2399L112.79 46.8576Z" fill="#FCB002"/>
<path d="M140.306 46.8576L144.435 38.9785L148.701 46.8576L156.957 48.2399L151.178 54.322L152.141 63.5833L144.435 59.7129L136.592 63.7216L137.554 54.322L131.499 48.2399L140.306 46.8576Z" fill="#FCB002"/>
<path d="M167.823 46.8576L171.951 38.9785L176.217 46.8576L184.473 48.2399L178.694 54.322L179.657 63.5833L171.951 59.7129L164.108 63.7216L165.071 54.322L159.017 48.2399L167.823 46.8576Z" fill="#FCB002"/>
<path d="M195.35 46.8576L199.478 38.9785L203.744 46.8576L212 48.2399L206.221 54.322L207.184 63.5833L199.478 59.7129L191.635 63.7216L192.598 54.322L186.544 48.2399L195.35 46.8576Z" fill="#FCB002"/>
</svg>
