<svg width="94" height="94" viewBox="0 0 94 94" fill="none" xmlns="http://www.w3.org/2000/svg">
<path d="M29.173 0H25.9316V3.24139H29.173V0Z" fill="white"/>
<path d="M35.6554 0H32.4141V3.24139H35.6554V0Z" fill="white"/>
<path d="M45.3781 0H42.1367V3.24139H45.3781V0Z" fill="white"/>
<path d="M48.6203 0H45.3789V3.24139H48.6203V0Z" fill="white"/>
<path d="M51.8625 0H48.6211V3.24139H51.8625V0Z" fill="white"/>
<path d="M29.173 3.24023H25.9316V6.48162H29.173V3.24023Z" fill="white"/>
<path d="M38.8957 3.24023H35.6543V6.48162H38.8957V3.24023Z" fill="white"/>
<path d="M42.1379 3.24023H38.8965V6.48162H42.1379V3.24023Z" fill="white"/>
<path d="M48.6203 3.24023H45.3789V6.48162H48.6203V3.24023Z" fill="white"/>
<path d="M55.1046 3.24023H51.8633V6.48162H55.1046V3.24023Z" fill="white"/>
<path d="M58.3449 3.24023H55.1035V6.48162H58.3449V3.24023Z" fill="white"/>
<path d="M68.0695 3.24023H64.8281V6.48162H68.0695V3.24023Z" fill="white"/>
<path d="M29.173 6.48047H25.9316V9.72186H29.173V6.48047Z" fill="white"/>
<path d="M32.4132 6.48047H29.1719V9.72186H32.4132V6.48047Z" fill="white"/>
<path d="M38.8957 6.48047H35.6543V9.72186H38.8957V6.48047Z" fill="white"/>
<path d="M42.1379 6.48047H38.8965V9.72186H42.1379V6.48047Z" fill="white"/>
<path d="M45.3781 6.48047H42.1367V9.72186H45.3781V6.48047Z" fill="white"/>
<path d="M51.8625 6.48047H48.6211V9.72186H51.8625V6.48047Z" fill="white"/>
<path d="M55.1046 6.48047H51.8633V9.72186H55.1046V6.48047Z" fill="white"/>
<path d="M68.0695 6.48047H64.8281V9.72186H68.0695V6.48047Z" fill="white"/>
<path d="M35.6554 9.72461H32.4141V12.966H35.6554V9.72461Z" fill="white"/>
<path d="M45.3781 9.72461H42.1367V12.966H45.3781V9.72461Z" fill="white"/>
<path d="M48.6203 9.72461H45.3789V12.966H48.6203V9.72461Z" fill="white"/>
<path d="M58.3449 9.72461H55.1035V12.966H58.3449V9.72461Z" fill="white"/>
<path d="M61.5871 9.72461H58.3457V12.966H61.5871V9.72461Z" fill="white"/>
<path d="M68.0695 9.72461H64.8281V12.966H68.0695V9.72461Z" fill="white"/>
<path d="M32.4132 12.9648H29.1719V16.2062H32.4132V12.9648Z" fill="white"/>
<path d="M35.6554 12.9648H32.4141V16.2062H35.6554V12.9648Z" fill="white"/>
<path d="M42.1379 12.9648H38.8965V16.2062H42.1379V12.9648Z" fill="white"/>
<path d="M61.5871 12.9648H58.3457V16.2062H61.5871V12.9648Z" fill="white"/>
<path d="M29.173 16.207H25.9316V19.4484H29.173V16.207Z" fill="white"/>
<path d="M35.6554 16.207H32.4141V19.4484H35.6554V16.207Z" fill="white"/>
<path d="M42.1379 16.207H38.8965V19.4484H42.1379V16.207Z" fill="white"/>
<path d="M45.3781 16.207H42.1367V19.4484H45.3781V16.207Z" fill="white"/>
<path d="M48.6203 16.207H45.3789V19.4484H48.6203V16.207Z" fill="white"/>
<path d="M51.8625 16.207H48.6211V19.4484H51.8625V16.207Z" fill="white"/>
<path d="M61.5871 16.207H58.3457V19.4484H61.5871V16.207Z" fill="white"/>
<path d="M68.0695 16.207H64.8281V19.4484H68.0695V16.207Z" fill="white"/>
<path d="M29.173 19.4473H25.9316V22.6887H29.173V19.4473Z" fill="white"/>
<path d="M35.6554 19.4473H32.4141V22.6887H35.6554V19.4473Z" fill="white"/>
<path d="M42.1379 19.4473H38.8965V22.6887H42.1379V19.4473Z" fill="white"/>
<path d="M48.6203 19.4473H45.3789V22.6887H48.6203V19.4473Z" fill="white"/>
<path d="M55.1046 19.4473H51.8633V22.6887H55.1046V19.4473Z" fill="white"/>
<path d="M61.5871 19.4473H58.3457V22.6887H61.5871V19.4473Z" fill="white"/>
<path d="M68.0695 19.4473H64.8281V22.6887H68.0695V19.4473Z" fill="white"/>
<path d="M29.173 22.6895H25.9316V25.9308H29.173V22.6895Z" fill="white"/>
<path d="M45.3781 22.6895H42.1367V25.9308H45.3781V22.6895Z" fill="white"/>
<path d="M51.8625 22.6895H48.6211V25.9308H51.8625V22.6895Z" fill="white"/>
<path d="M55.1046 22.6895H51.8633V25.9308H55.1046V22.6895Z" fill="white"/>
<path d="M61.5871 22.6895H58.3457V25.9308H61.5871V22.6895Z" fill="white"/>
<path d="M64.8273 22.6895H61.5859V25.9308H64.8273V22.6895Z" fill="white"/>
<path d="M68.0695 22.6895H64.8281V25.9308H68.0695V22.6895Z" fill="white"/>
<path d="M9.72574 25.9316H6.48438V29.173H9.72574V25.9316Z" fill="white"/>
<path d="M12.966 25.9316H9.72461V29.173H12.966V25.9316Z" fill="white"/>
<path d="M16.2062 25.9316H12.9648V29.173H16.2062V25.9316Z" fill="white"/>
<path d="M22.6906 25.9316H19.4492V29.173H22.6906V25.9316Z" fill="white"/>
<path d="M29.173 25.9316H25.9316V29.173H29.173V25.9316Z" fill="white"/>
<path d="M35.6554 25.9316H32.4141V29.173H35.6554V25.9316Z" fill="white"/>
<path d="M38.8957 25.9316H35.6543V29.173H38.8957V25.9316Z" fill="white"/>
<path d="M42.1379 25.9316H38.8965V29.173H42.1379V25.9316Z" fill="white"/>
<path d="M55.1046 25.9316H51.8633V29.173H55.1046V25.9316Z" fill="white"/>
<path d="M61.5871 25.9316H58.3457V29.173H61.5871V25.9316Z" fill="white"/>
<path d="M68.0695 25.9316H64.8281V29.173H68.0695V25.9316Z" fill="white"/>
<path d="M71.3097 25.9316H68.0684V29.173H71.3097V25.9316Z" fill="white"/>
<path d="M74.5519 25.9316H71.3105V29.173H74.5519V25.9316Z" fill="white"/>
<path d="M77.7921 25.9316H74.5508V29.173H77.7921V25.9316Z" fill="white"/>
<path d="M87.5168 25.9316H84.2754V29.173H87.5168V25.9316Z" fill="white"/>
<path d="M90.7589 25.9316H87.5176V29.173H90.7589V25.9316Z" fill="white"/>
<path d="M93.9992 25.9316H90.7578V29.173H93.9992V25.9316Z" fill="white"/>
<path d="M3.24137 29.1719H0V32.4133H3.24137V29.1719Z" fill="white"/>
<path d="M6.48356 29.1719H3.24219V32.4133H6.48356V29.1719Z" fill="white"/>
<path d="M16.2062 29.1719H12.9648V32.4133H16.2062V29.1719Z" fill="white"/>
<path d="M29.173 29.1719H25.9316V32.4133H29.173V29.1719Z" fill="white"/>
<path d="M71.3097 29.1719H68.0684V32.4133H71.3097V29.1719Z" fill="white"/>
<path d="M74.5519 29.1719H71.3105V32.4133H74.5519V29.1719Z" fill="white"/>
<path d="M81.0343 29.1719H77.793V32.4133H81.0343V29.1719Z" fill="white"/>
<path d="M90.7589 29.1719H87.5176V32.4133H90.7589V29.1719Z" fill="white"/>
<path d="M93.9992 29.1719H90.7578V32.4133H93.9992V29.1719Z" fill="white"/>
<path d="M6.48356 32.4121H3.24219V35.6535H6.48356V32.4121Z" fill="white"/>
<path d="M12.966 32.4121H9.72461V35.6535H12.966V32.4121Z" fill="white"/>
<path d="M16.2062 32.4121H12.9648V35.6535H16.2062V32.4121Z" fill="white"/>
<path d="M19.4484 32.4121H16.207V35.6535H19.4484V32.4121Z" fill="white"/>
<path d="M22.6906 32.4121H19.4492V35.6535H22.6906V32.4121Z" fill="white"/>
<path d="M29.173 32.4121H25.9316V35.6535H29.173V32.4121Z" fill="white"/>
<path d="M68.0695 32.4121H64.8281V35.6535H68.0695V32.4121Z" fill="white"/>
<path d="M87.5168 32.4121H84.2754V35.6535H87.5168V32.4121Z" fill="white"/>
<path d="M9.72574 35.6562H6.48438V38.8976H9.72574V35.6562Z" fill="white"/>
<path d="M16.2062 35.6562H12.9648V38.8976H16.2062V35.6562Z" fill="white"/>
<path d="M19.4484 35.6562H16.207V38.8976H19.4484V35.6562Z" fill="white"/>
<path d="M29.173 35.6562H25.9316V38.8976H29.173V35.6562Z" fill="white"/>
<path d="M68.0695 35.6562H64.8281V38.8976H68.0695V35.6562Z" fill="white"/>
<path d="M74.5519 35.6562H71.3105V38.8976H74.5519V35.6562Z" fill="white"/>
<path d="M77.7921 35.6562H74.5508V38.8976H77.7921V35.6562Z" fill="white"/>
<path d="M81.0343 35.6562H77.793V38.8976H81.0343V35.6562Z" fill="white"/>
<path d="M84.2765 35.6562H81.0352V38.8976H84.2765V35.6562Z" fill="white"/>
<path d="M87.5168 35.6562H84.2754V38.8976H87.5168V35.6562Z" fill="white"/>
<path d="M3.24137 38.8965H0V42.1379H3.24137V38.8965Z" fill="white"/>
<path d="M6.48356 38.8965H3.24219V42.1379H6.48356V38.8965Z" fill="white"/>
<path d="M9.72574 38.8965H6.48438V42.1379H9.72574V38.8965Z" fill="white"/>
<path d="M19.4484 38.8965H16.207V42.1379H19.4484V38.8965Z" fill="white"/>
<path d="M22.6906 38.8965H19.4492V42.1379H22.6906V38.8965Z" fill="white"/>
<path d="M25.9308 38.8965H22.6895V42.1379H25.9308V38.8965Z" fill="white"/>
<path d="M68.0695 38.8965H64.8281V42.1379H68.0695V38.8965Z" fill="white"/>
<path d="M71.3097 38.8965H68.0684V42.1379H71.3097V38.8965Z" fill="white"/>
<path d="M81.0343 38.8965H77.793V42.1379H81.0343V38.8965Z" fill="white"/>
<path d="M87.5168 38.8965H84.2754V42.1379H87.5168V38.8965Z" fill="white"/>
<path d="M90.7589 38.8965H87.5176V42.1379H90.7589V38.8965Z" fill="white"/>
<path d="M16.2062 42.1367H12.9648V45.3781H16.2062V42.1367Z" fill="white"/>
<path d="M25.9308 42.1367H22.6895V45.3781H25.9308V42.1367Z" fill="white"/>
<path d="M29.173 42.1367H25.9316V45.3781H29.173V42.1367Z" fill="white"/>
<path d="M68.0695 42.1367H64.8281V45.3781H68.0695V42.1367Z" fill="white"/>
<path d="M74.5519 42.1367H71.3105V45.3781H74.5519V42.1367Z" fill="white"/>
<path d="M81.0343 42.1367H77.793V45.3781H81.0343V42.1367Z" fill="white"/>
<path d="M84.2765 42.1367H81.0352V45.3781H84.2765V42.1367Z" fill="white"/>
<path d="M93.9992 42.1367H90.7578V45.3781H93.9992V42.1367Z" fill="white"/>
<path d="M6.48356 45.3789H3.24219V48.6203H6.48356V45.3789Z" fill="white"/>
<path d="M12.966 45.3789H9.72461V48.6203H12.966V45.3789Z" fill="white"/>
<path d="M19.4484 45.3789H16.207V48.6203H19.4484V45.3789Z" fill="white"/>
<path d="M22.6906 45.3789H19.4492V48.6203H22.6906V45.3789Z" fill="white"/>
<path d="M25.9308 45.3789H22.6895V48.6203H25.9308V45.3789Z" fill="white"/>
<path d="M29.173 45.3789H25.9316V48.6203H29.173V45.3789Z" fill="white"/>
<path d="M77.7921 45.3789H74.5508V48.6203H77.7921V45.3789Z" fill="white"/>
<path d="M87.5168 45.3789H84.2754V48.6203H87.5168V45.3789Z" fill="white"/>
<path d="M93.9992 45.3789H90.7578V48.6203H93.9992V45.3789Z" fill="white"/>
<path d="M6.48356 48.6211H3.24219V51.8625H6.48356V48.6211Z" fill="white"/>
<path d="M9.72574 48.6211H6.48438V51.8625H9.72574V48.6211Z" fill="white"/>
<path d="M16.2062 48.6211H12.9648V51.8625H16.2062V48.6211Z" fill="white"/>
<path d="M19.4484 48.6211H16.207V51.8625H19.4484V48.6211Z" fill="white"/>
<path d="M25.9308 48.6211H22.6895V51.8625H25.9308V48.6211Z" fill="white"/>
<path d="M71.3097 48.6211H68.0684V51.8625H71.3097V48.6211Z" fill="white"/>
<path d="M74.5519 48.6211H71.3105V51.8625H74.5519V48.6211Z" fill="white"/>
<path d="M77.7921 48.6211H74.5508V51.8625H77.7921V48.6211Z" fill="white"/>
<path d="M81.0343 48.6211H77.793V51.8625H81.0343V48.6211Z" fill="white"/>
<path d="M87.5168 48.6211H84.2754V51.8625H87.5168V48.6211Z" fill="white"/>
<path d="M90.7589 48.6211H87.5176V51.8625H90.7589V48.6211Z" fill="white"/>
<path d="M93.9992 48.6211H90.7578V51.8625H93.9992V48.6211Z" fill="white"/>
<path d="M12.966 51.8613H9.72461V55.1027H12.966V51.8613Z" fill="white"/>
<path d="M16.2062 51.8613H12.9648V55.1027H16.2062V51.8613Z" fill="white"/>
<path d="M22.6906 51.8613H19.4492V55.1027H22.6906V51.8613Z" fill="white"/>
<path d="M25.9308 51.8613H22.6895V55.1027H25.9308V51.8613Z" fill="white"/>
<path d="M29.173 51.8613H25.9316V55.1027H29.173V51.8613Z" fill="white"/>
<path d="M77.7921 51.8613H74.5508V55.1027H77.7921V51.8613Z" fill="white"/>
<path d="M3.24137 55.1035H0V58.3449H3.24137V55.1035Z" fill="white"/>
<path d="M9.72574 55.1035H6.48438V58.3449H9.72574V55.1035Z" fill="white"/>
<path d="M12.966 55.1035H9.72461V58.3449H12.966V55.1035Z" fill="white"/>
<path d="M29.173 55.1035H25.9316V58.3449H29.173V55.1035Z" fill="white"/>
<path d="M74.5519 55.1035H71.3105V58.3449H74.5519V55.1035Z" fill="white"/>
<path d="M77.7921 55.1035H74.5508V58.3449H77.7921V55.1035Z" fill="white"/>
<path d="M84.2765 55.1035H81.0352V58.3449H84.2765V55.1035Z" fill="white"/>
<path d="M90.7589 55.1035H87.5176V58.3449H90.7589V55.1035Z" fill="white"/>
<path d="M3.24137 58.3438H0V61.5851H3.24137V58.3438Z" fill="white"/>
<path d="M9.72574 58.3438H6.48438V61.5851H9.72574V58.3438Z" fill="white"/>
<path d="M16.2062 58.3438H12.9648V61.5851H16.2062V58.3438Z" fill="white"/>
<path d="M22.6906 58.3438H19.4492V61.5851H22.6906V58.3438Z" fill="white"/>
<path d="M29.173 58.3438H25.9316V61.5851H29.173V58.3438Z" fill="white"/>
<path d="M68.0695 58.3438H64.8281V61.5851H68.0695V58.3438Z" fill="white"/>
<path d="M71.3097 58.3438H68.0684V61.5851H71.3097V58.3438Z" fill="white"/>
<path d="M87.5168 58.3438H84.2754V61.5851H87.5168V58.3438Z" fill="white"/>
<path d="M3.24137 61.5859H0V64.8273H3.24137V61.5859Z" fill="white"/>
<path d="M9.72574 61.5859H6.48438V64.8273H9.72574V61.5859Z" fill="white"/>
<path d="M12.966 61.5859H9.72461V64.8273H12.966V61.5859Z" fill="white"/>
<path d="M19.4484 61.5859H16.207V64.8273H19.4484V61.5859Z" fill="white"/>
<path d="M25.9308 61.5859H22.6895V64.8273H25.9308V61.5859Z" fill="white"/>
<path d="M29.173 61.5859H25.9316V64.8273H29.173V61.5859Z" fill="white"/>
<path d="M68.0695 61.5859H64.8281V64.8273H68.0695V61.5859Z" fill="white"/>
<path d="M74.5519 61.5859H71.3105V64.8273H74.5519V61.5859Z" fill="white"/>
<path d="M81.0343 61.5859H77.793V64.8273H81.0343V61.5859Z" fill="white"/>
<path d="M84.2765 61.5859H81.0352V64.8273H84.2765V61.5859Z" fill="white"/>
<path d="M90.7589 61.5859H87.5176V64.8273H90.7589V61.5859Z" fill="white"/>
<path d="M93.9992 61.5859H90.7578V64.8273H93.9992V61.5859Z" fill="white"/>
<path d="M3.24137 64.8281H0V68.0695H3.24137V64.8281Z" fill="white"/>
<path d="M9.72574 64.8281H6.48438V68.0695H9.72574V64.8281Z" fill="white"/>
<path d="M12.966 64.8281H9.72461V68.0695H12.966V64.8281Z" fill="white"/>
<path d="M22.6906 64.8281H19.4492V68.0695H22.6906V64.8281Z" fill="white"/>
<path d="M25.9308 64.8281H22.6895V68.0695H25.9308V64.8281Z" fill="white"/>
<path d="M42.1379 64.8281H38.8965V68.0695H42.1379V64.8281Z" fill="white"/>
<path d="M45.3781 64.8281H42.1367V68.0695H45.3781V64.8281Z" fill="white"/>
<path d="M51.8625 64.8281H48.6211V68.0695H51.8625V64.8281Z" fill="white"/>
<path d="M61.5871 64.8281H58.3457V68.0695H61.5871V64.8281Z" fill="white"/>
<path d="M68.0695 64.8281H64.8281V68.0695H68.0695V64.8281Z" fill="white"/>
<path d="M71.3097 64.8281H68.0684V68.0695H71.3097V64.8281Z" fill="white"/>
<path d="M74.5519 64.8281H71.3105V68.0695H74.5519V64.8281Z" fill="white"/>
<path d="M77.7941 64.8281H74.5527V68.0695H77.7941V64.8281Z" fill="white"/>
<path d="M81.0343 64.8281H77.793V68.0695H81.0343V64.8281Z" fill="white"/>
<path d="M90.7589 64.8281H87.5176V68.0695H90.7589V64.8281Z" fill="white"/>
<path d="M93.9992 64.8281H90.7578V68.0695H93.9992V64.8281Z" fill="white"/>
<path d="M29.173 68.0684H25.9316V71.3097H29.173V68.0684Z" fill="white"/>
<path d="M32.4132 68.0684H29.1719V71.3097H32.4132V68.0684Z" fill="white"/>
<path d="M42.1379 68.0684H38.8965V71.3097H42.1379V68.0684Z" fill="white"/>
<path d="M45.3781 68.0684H42.1367V71.3097H45.3781V68.0684Z" fill="white"/>
<path d="M48.6203 68.0684H45.3789V71.3097H48.6203V68.0684Z" fill="white"/>
<path d="M51.8625 68.0684H48.6211V71.3097H51.8625V68.0684Z" fill="white"/>
<path d="M55.1046 68.0684H51.8633V71.3097H55.1046V68.0684Z" fill="white"/>
<path d="M58.3449 68.0684H55.1035V71.3097H58.3449V68.0684Z" fill="white"/>
<path d="M61.5871 68.0684H58.3457V71.3097H61.5871V68.0684Z" fill="white"/>
<path d="M64.8273 68.0684H61.5859V71.3097H64.8273V68.0684Z" fill="white"/>
<path d="M68.0695 68.0684H64.8281V71.3097H68.0695V68.0684Z" fill="white"/>
<path d="M81.0343 68.0684H77.793V71.3097H81.0343V68.0684Z" fill="white"/>
<path d="M84.2765 68.0684H81.0352V71.3097H84.2765V68.0684Z" fill="white"/>
<path d="M93.9992 68.0684H90.7578V71.3097H93.9992V68.0684Z" fill="white"/>
<path d="M32.4132 71.3086H29.1719V74.55H32.4132V71.3086Z" fill="white"/>
<path d="M45.3781 71.3086H42.1367V74.55H45.3781V71.3086Z" fill="white"/>
<path d="M58.3449 71.3086H55.1035V74.55H58.3449V71.3086Z" fill="white"/>
<path d="M64.8273 71.3086H61.5859V74.55H64.8273V71.3086Z" fill="white"/>
<path d="M68.0695 71.3086H64.8281V74.55H68.0695V71.3086Z" fill="white"/>
<path d="M74.5519 71.3086H71.3105V74.55H74.5519V71.3086Z" fill="white"/>
<path d="M81.0343 71.3086H77.793V74.55H81.0343V71.3086Z" fill="white"/>
<path d="M84.2765 71.3086H81.0352V74.55H84.2765V71.3086Z" fill="white"/>
<path d="M87.5168 71.3086H84.2754V74.55H87.5168V71.3086Z" fill="white"/>
<path d="M90.7589 71.3086H87.5176V74.55H90.7589V71.3086Z" fill="white"/>
<path d="M32.4132 74.5508H29.1719V77.7922H32.4132V74.5508Z" fill="white"/>
<path d="M35.6554 74.5508H32.4141V77.7922H35.6554V74.5508Z" fill="white"/>
<path d="M45.3781 74.5508H42.1367V77.7922H45.3781V74.5508Z" fill="white"/>
<path d="M64.8273 74.5508H61.5859V77.7922H64.8273V74.5508Z" fill="white"/>
<path d="M68.0695 74.5508H64.8281V77.7922H68.0695V74.5508Z" fill="white"/>
<path d="M81.0343 74.5508H77.793V77.7922H81.0343V74.5508Z" fill="white"/>
<path d="M84.2765 74.5508H81.0352V77.7922H84.2765V74.5508Z" fill="white"/>
<path d="M90.7589 74.5508H87.5176V77.7922H90.7589V74.5508Z" fill="white"/>
<path d="M93.9992 74.5508H90.7578V77.7922H93.9992V74.5508Z" fill="white"/>
<path d="M29.173 77.793H25.9316V81.0344H29.173V77.793Z" fill="white"/>
<path d="M35.6554 77.793H32.4141V81.0344H35.6554V77.793Z" fill="white"/>
<path d="M38.8957 77.793H35.6543V81.0344H38.8957V77.793Z" fill="white"/>
<path d="M51.8625 77.793H48.6211V81.0344H51.8625V77.793Z" fill="white"/>
<path d="M55.1046 77.793H51.8633V81.0344H55.1046V77.793Z" fill="white"/>
<path d="M58.3449 77.793H55.1035V81.0344H58.3449V77.793Z" fill="white"/>
<path d="M61.5871 77.793H58.3457V81.0344H61.5871V77.793Z" fill="white"/>
<path d="M64.8273 77.793H61.5859V81.0344H64.8273V77.793Z" fill="white"/>
<path d="M68.0695 77.793H64.8281V81.0344H68.0695V77.793Z" fill="white"/>
<path d="M71.3097 77.793H68.0684V81.0344H71.3097V77.793Z" fill="white"/>
<path d="M74.5519 77.793H71.3105V81.0344H74.5519V77.793Z" fill="white"/>
<path d="M77.7941 77.793H74.5527V81.0344H77.7941V77.793Z" fill="white"/>
<path d="M81.0343 77.793H77.793V81.0344H81.0343V77.793Z" fill="white"/>
<path d="M29.173 81.0352H25.9316V84.2765H29.173V81.0352Z" fill="white"/>
<path d="M32.4132 81.0352H29.1719V84.2765H32.4132V81.0352Z" fill="white"/>
<path d="M35.6554 81.0352H32.4141V84.2765H35.6554V81.0352Z" fill="white"/>
<path d="M42.1379 81.0352H38.8965V84.2765H42.1379V81.0352Z" fill="white"/>
<path d="M45.3781 81.0352H42.1367V84.2765H45.3781V81.0352Z" fill="white"/>
<path d="M51.8625 81.0352H48.6211V84.2765H51.8625V81.0352Z" fill="white"/>
<path d="M58.3449 81.0352H55.1035V84.2765H58.3449V81.0352Z" fill="white"/>
<path d="M61.5871 81.0352H58.3457V84.2765H61.5871V81.0352Z" fill="white"/>
<path d="M68.0695 81.0352H64.8281V84.2765H68.0695V81.0352Z" fill="white"/>
<path d="M71.3097 81.0352H68.0684V84.2765H71.3097V81.0352Z" fill="white"/>
<path d="M74.5519 81.0352H71.3105V84.2765H74.5519V81.0352Z" fill="white"/>
<path d="M81.0343 81.0352H77.793V84.2765H81.0343V81.0352Z" fill="white"/>
<path d="M84.2765 81.0352H81.0352V84.2765H84.2765V81.0352Z" fill="white"/>
<path d="M29.173 84.2754H25.9316V87.5168H29.173V84.2754Z" fill="white"/>
<path d="M32.4132 84.2754H29.1719V87.5168H32.4132V84.2754Z" fill="white"/>
<path d="M42.1379 84.2754H38.8965V87.5168H42.1379V84.2754Z" fill="white"/>
<path d="M45.3781 84.2754H42.1367V87.5168H45.3781V84.2754Z" fill="white"/>
<path d="M48.6203 84.2754H45.3789V87.5168H48.6203V84.2754Z" fill="white"/>
<path d="M58.3449 84.2754H55.1035V87.5168H58.3449V84.2754Z" fill="white"/>
<path d="M61.5871 84.2754H58.3457V87.5168H61.5871V84.2754Z" fill="white"/>
<path d="M71.3097 84.2754H68.0684V87.5168H71.3097V84.2754Z" fill="white"/>
<path d="M74.5519 84.2754H71.3105V87.5168H74.5519V84.2754Z" fill="white"/>
<path d="M77.7921 84.2754H74.5508V87.5168H77.7921V84.2754Z" fill="white"/>
<path d="M81.0343 84.2754H77.793V87.5168H81.0343V84.2754Z" fill="white"/>
<path d="M87.5168 84.2754H84.2754V87.5168H87.5168V84.2754Z" fill="white"/>
<path d="M90.7589 84.2754H87.5176V87.5168H90.7589V84.2754Z" fill="white"/>
<path d="M32.4132 87.5156H29.1719V90.757H32.4132V87.5156Z" fill="white"/>
<path d="M48.6203 87.5156H45.3789V90.757H48.6203V87.5156Z" fill="white"/>
<path d="M55.1046 87.5156H51.8633V90.757H55.1046V87.5156Z" fill="white"/>
<path d="M58.3449 87.5156H55.1035V90.757H58.3449V87.5156Z" fill="white"/>
<path d="M61.5871 87.5156H58.3457V90.757H61.5871V87.5156Z" fill="white"/>
<path d="M64.8273 87.5156H61.5859V90.757H64.8273V87.5156Z" fill="white"/>
<path d="M71.3097 87.5156H68.0684V90.757H71.3097V87.5156Z" fill="white"/>
<path d="M77.7941 87.5156H74.5527V90.757H77.7941V87.5156Z" fill="white"/>
<path d="M84.2765 87.5156H81.0352V90.757H84.2765V87.5156Z" fill="white"/>
<path d="M93.9992 87.5156H90.7578V90.757H93.9992V87.5156Z" fill="white"/>
<path d="M35.6554 90.7598H32.4141V94.0012H35.6554V90.7598Z" fill="white"/>
<path d="M48.6203 90.7598H45.3789V94.0012H48.6203V90.7598Z" fill="white"/>
<path d="M58.3449 90.7598H55.1035V94.0012H58.3449V90.7598Z" fill="white"/>
<path d="M61.5871 90.7598H58.3457V94.0012H61.5871V90.7598Z" fill="white"/>
<path d="M74.5519 90.7598H71.3105V94.0012H74.5519V90.7598Z" fill="white"/>
<path d="M77.7921 90.7598H74.5508V94.0012H77.7921V90.7598Z" fill="white"/>
<path d="M81.0343 90.7598H77.793V94.0012H81.0343V90.7598Z" fill="white"/>
<path d="M84.2765 90.7598H81.0352V94.0012H84.2765V90.7598Z" fill="white"/>
<g clip-path="url(#clip0_7211_2015)">
<path d="M0.686505 -0.00390625C0.307265 -0.00390625 -0.00390625 0.307267 -0.00390625 0.686509V3.24072V6.48211V9.7235V12.9649V16.2063V19.4477V22.0019C-0.00390625 22.3811 0.304024 22.6923 0.686505 22.6923H22.0017C22.381 22.6923 22.6922 22.3844 22.6922 22.0019V19.4477V16.2063V12.9649V9.7235V6.48211V3.24072V0.686509C22.6922 0.307267 22.3842 -0.00390625 22.0017 -0.00390625H0.686505ZM19.4475 6.48211V9.7235V12.9649V16.2063V19.0522C19.4475 19.2726 19.2693 19.4477 19.0521 19.4477H3.63615C3.41574 19.4477 3.2407 19.2694 3.2407 19.0522V16.2063V12.9649V9.7235V6.48211V3.63617C3.2407 3.41576 3.41898 3.24072 3.63615 3.24072H19.0521C19.2725 3.24072 19.4475 3.419 19.4475 3.63617V6.48211Z" fill="white"/>
</g>
<path d="M16.2078 12.9645V9.72314V7.16893C16.2078 6.78969 15.8999 6.47852 15.5174 6.47852H7.17088C6.79164 6.47852 6.48047 6.78645 6.48047 7.16893V9.72314V12.9645V15.5187C6.48047 15.898 6.7884 16.2092 7.17088 16.2092H15.5174C15.8966 16.2092 16.2078 15.9012 16.2078 15.5187V12.9645Z" fill="white"/>
<g clip-path="url(#clip1_7211_2015)">
<path d="M71.999 -0.00390625C71.6198 -0.00390625 71.3086 0.307267 71.3086 0.686509V3.24072V6.48211V9.7235V12.9649V16.2063V19.4477V22.0019C71.3086 22.3811 71.6165 22.6923 71.999 22.6923H93.3142C93.6935 22.6923 94.0047 22.3844 94.0047 22.0019V19.4477V16.2063V12.9649V9.7235V6.48211V3.24072V0.686509C94.0047 0.307267 93.6967 -0.00390625 93.3142 -0.00390625H71.999ZM90.76 6.48211V9.7235V12.9649V16.2063V19.0522C90.76 19.2726 90.5818 19.4477 90.3646 19.4477H74.9486C74.7282 19.4477 74.5532 19.2694 74.5532 19.0522V16.2063V12.9649V9.7235V6.48211V3.63617C74.5532 3.41576 74.7315 3.24072 74.9486 3.24072H90.3646C90.585 3.24072 90.76 3.419 90.76 3.63617V6.48211Z" fill="white"/>
</g>
<path d="M87.5184 12.9645V9.72314V7.16893C87.5184 6.78969 87.2104 6.47852 86.828 6.47852H78.4814C78.1022 6.47852 77.791 6.78645 77.791 7.16893V9.72314V12.9645V15.5187C77.791 15.898 78.0989 16.2092 78.4814 16.2092H86.828C87.2072 16.2092 87.5184 15.9012 87.5184 15.5187V12.9645Z" fill="white"/>
<g clip-path="url(#clip2_7211_2015)">
<path d="M0.686505 71.3047C0.307265 71.3047 -0.00390625 71.6159 -0.00390625 71.9951V74.5493V77.7907V81.0321V84.2735V87.5149V90.7563V93.3105C-0.00390625 93.6897 0.304024 94.0009 0.686505 94.0009H22.0017C22.381 94.0009 22.6922 93.6929 22.6922 93.3105V90.7563V87.5149V84.2735V81.0321V77.7907V74.5493V71.9951C22.6922 71.6159 22.3842 71.3047 22.0017 71.3047H0.686505ZM19.4475 77.7907V81.0321V84.2735V87.5149V90.3608C19.4475 90.5812 19.2693 90.7563 19.0521 90.7563H3.63615C3.41574 90.7563 3.2407 90.578 3.2407 90.3608V87.5149V84.2735V81.0321V77.7907V74.9448C3.2407 74.7244 3.41898 74.5493 3.63615 74.5493H19.0521C19.2725 74.5493 19.4475 74.7276 19.4475 74.9448V77.7907Z" fill="white"/>
</g>
<path d="M16.2078 84.2731V81.0317V78.4775C16.2078 78.0983 15.8999 77.7871 15.5174 77.7871H7.17088C6.79164 77.7871 6.48047 78.095 6.48047 78.4775V81.0317V84.2731V86.8273C6.48047 87.2066 6.7884 87.5178 7.17088 87.5178H15.5174C15.8966 87.5178 16.2078 87.2098 16.2078 86.8273V84.2731Z" fill="white"/>
<rect width="14" height="14" transform="translate(40 40)" fill="white"/>
<defs>
<clipPath id="clip0_7211_2015">
<rect width="22.6896" height="22.6897" fill="white"/>
</clipPath>
<clipPath id="clip1_7211_2015">
<rect width="22.6896" height="22.6897" fill="white" transform="translate(71.3105)"/>
</clipPath>
<clipPath id="clip2_7211_2015">
<rect width="22.6896" height="22.6897" fill="white" transform="translate(0 71.3086)"/>
</clipPath>
</defs>
</svg>
