<svg width="32" height="32" viewBox="0 0 32 32" fill="none" xmlns="http://www.w3.org/2000/svg">
<path d="M16.5 28C23.1274 28 28.5 22.6274 28.5 16C28.5 9.37258 23.1274 4 16.5 4C9.87258 4 4.5 9.37258 4.5 16C4.5 22.6274 9.87258 28 16.5 28Z" fill="#239AF6"/>
<path d="M16.4996 26.2858C22.1802 26.2858 26.7853 21.6807 26.7853 16.0001C26.7853 10.3194 22.1802 5.71436 16.4996 5.71436C10.8189 5.71436 6.21387 10.3194 6.21387 16.0001C6.21387 21.6807 10.8189 26.2858 16.4996 26.2858Z" fill="#42A6F7"/>
<path fill-rule="evenodd" clip-rule="evenodd" d="M16.4997 7C16.0263 7 15.6426 7.384 15.6426 7.85742V16.0001C15.6426 16.4736 16.0263 16.8573 16.4997 16.8573H24.6424C25.1159 16.8573 25.4996 16.4736 25.4999 16.0001C25.4999 11.0295 21.4703 7 16.4997 7Z" fill="#FC5F65"/>
<path fill-rule="evenodd" clip-rule="evenodd" d="M16.4997 7C16.0263 7 15.6426 7.384 15.6426 7.85742V16.0001C15.6426 16.4736 16.0263 16.8573 16.4997 16.8573H24.6424C25.1159 16.8573 25.4996 16.4736 25.4999 16.0001C25.4999 11.0295 21.4703 7 16.4997 7Z" fill="#FC5F65"/>
<path fill-rule="evenodd" clip-rule="evenodd" d="M15.9238 7.22217C19.9342 8.13006 22.9283 11.7155 22.928 16.0001C22.928 16.4736 22.5443 16.8573 22.0711 16.8573H24.6423C25.1157 16.8573 25.4994 16.4736 25.4997 16.0001C25.4997 11.0295 21.4702 7 16.4996 7C16.2779 7 16.0761 7.08421 15.9238 7.22217Z" fill="#FB414A"/>
<path fill-rule="evenodd" clip-rule="evenodd" d="M10.7813 21.1745C9.33606 19.9169 8.4216 18.0643 8.4216 16.0001C8.4216 14.4188 8.9581 12.9621 9.85858 11.8016C10.0034 11.6148 9.96966 11.3454 9.7826 11.2003C9.59581 11.0552 9.32646 11.0893 9.18137 11.276C8.16816 12.5819 7.56445 14.2211 7.56445 16.0001C7.56445 18.3224 8.59275 20.4065 10.2187 21.8212C10.397 21.9765 10.668 21.9576 10.8232 21.779C10.9785 21.6007 10.9598 21.3297 10.7813 21.1745Z" fill="#6FBDF9"/>
<path fill-rule="evenodd" clip-rule="evenodd" d="M16.5 4C9.8771 4 4.5 9.3771 4.5 16C4.5 22.6229 9.8771 28 16.5 28C23.1229 28 28.5 22.6229 28.5 16C28.5 9.3771 23.1229 4 16.5 4ZM16.5 5.71429C22.1769 5.71429 26.7857 10.3231 26.7857 16C26.7857 21.6769 22.1769 26.2857 16.5 26.2857C10.8231 26.2857 6.21429 21.6769 6.21429 16C6.21429 10.3231 10.8231 5.71429 16.5 5.71429Z" fill="white"/>
<path fill-rule="evenodd" clip-rule="evenodd" d="M16.4997 7C16.0263 7 15.6426 7.384 15.6426 7.85742V16.0001C15.6426 16.4736 16.0263 16.8573 16.4997 16.8573H24.6424C25.1159 16.8573 25.4996 16.4736 25.4999 16.0001C25.4999 11.0295 21.4703 7 16.4997 7ZM17.3569 8.76421C20.6955 9.15561 23.3442 11.8044 23.7357 15.143H17.3569V8.76421Z" fill="white"/>
</svg>
