<svg width="32" height="32" viewBox="0 0 32 32" fill="none" xmlns="http://www.w3.org/2000/svg">
<path d="M0 16C0 7.16344 7.16344 0 16 0C24.8366 0 32 7.16344 32 16C32 24.8366 24.8366 32 16 32C7.16344 32 0 24.8366 0 16Z" fill="#3C8FCA"/>
<path d="M18.6663 14.668C18.6663 15.3752 18.3854 16.0535 17.8853 16.5536C17.3852 17.0537 16.7069 17.3346 15.9997 17.3346C15.2924 17.3346 14.6142 17.0537 14.1141 16.5536C13.614 16.0535 13.333 15.3752 13.333 14.668" stroke="white" stroke-width="1.33333" stroke-linecap="round" stroke-linejoin="round"/>
<path d="M10.0684 12.0234H21.931" stroke="white" stroke-width="1.33333" stroke-linecap="round" stroke-linejoin="round"/>
<path d="M10.2667 11.6434C10.0936 11.8742 10 12.1549 10 12.4434V21.332C10 21.6857 10.1405 22.0248 10.3905 22.2748C10.6406 22.5249 10.9797 22.6654 11.3333 22.6654H20.6667C21.0203 22.6654 21.3594 22.5249 21.6095 22.2748C21.8595 22.0248 22 21.6857 22 21.332V12.4434C22 12.1549 21.9064 11.8742 21.7333 11.6434L20.4 9.86536C20.2758 9.69977 20.1148 9.56537 19.9296 9.4728C19.7445 9.38022 19.5403 9.33203 19.3333 9.33203H12.6667C12.4597 9.33203 12.2555 9.38022 12.0704 9.4728C11.8852 9.56537 11.7242 9.69977 11.6 9.86536L10.2667 11.6434Z" stroke="white" stroke-width="1.33333" stroke-linecap="round" stroke-linejoin="round"/>
</svg>
