<svg width="64" height="64" viewBox="0 0 64 64" fill="none" xmlns="http://www.w3.org/2000/svg">
<path d="M0 16C0 7.16344 7.1634 0 16 0H48C56.8366 0 64 7.16344 64 16V48C64 56.8366 56.8366 64 48 64H16C7.1634 64 0 56.8366 0 48V16Z" fill="white"/>
<path d="M37 43.25V40.75C37 39.4239 36.4732 38.1521 35.5355 37.2145C34.5979 36.2768 33.3261 35.75 32 35.75H24.5C23.1739 35.75 21.9021 36.2768 20.9645 37.2145C20.0268 38.1521 19.5 39.4239 19.5 40.75V43.25" stroke="#4A5565" stroke-width="2.5" stroke-linecap="round" stroke-linejoin="round"/>
<path d="M37 20.91C38.0722 21.188 39.0217 21.8141 39.6996 22.6901C40.3775 23.5661 40.7452 24.6424 40.7452 25.75C40.7452 26.8576 40.3775 27.9339 39.6996 28.8099C39.0217 29.6859 38.0722 30.312 37 30.59" stroke="#4A5565" stroke-width="2.5" stroke-linecap="round" stroke-linejoin="round"/>
<path d="M44.5 43.25V40.75C44.4992 39.6422 44.1304 38.566 43.4517 37.6904C42.773 36.8148 41.8227 36.1895 40.75 35.9125" stroke="#4A5565" stroke-width="2.5" stroke-linecap="round" stroke-linejoin="round"/>
<path d="M28.25 30.75C31.0114 30.75 33.25 28.5114 33.25 25.75C33.25 22.9886 31.0114 20.75 28.25 20.75C25.4886 20.75 23.25 22.9886 23.25 25.75C23.25 28.5114 25.4886 30.75 28.25 30.75Z" stroke="#4A5565" stroke-width="2.5" stroke-linecap="round" stroke-linejoin="round"/>
</svg>
