<svg width="80" height="80" viewBox="0 0 80 80" fill="none" xmlns="http://www.w3.org/2000/svg">
<g filter="url(#filter0_dd_7211_8997)">
<path d="M12 16C12 8.26801 18.268 2 26 2H54C61.732 2 68 8.26801 68 16V44C68 51.732 61.732 58 54 58H26C18.268 58 12 51.732 12 44V16Z" fill="#3C8FCA" shape-rendering="crispEdges"/>
<path d="M33 41.6668V20.6668C33 20.048 33.2458 19.4545 33.6834 19.0169C34.121 18.5793 34.7145 18.3335 35.3333 18.3335H44.6667C45.2855 18.3335 45.879 18.5793 46.3166 19.0169C46.7542 19.4545 47 20.048 47 20.6668V41.6668H33Z" stroke="white" stroke-width="2.33333" stroke-linecap="round" stroke-linejoin="round"/>
<path d="M33.0007 30H30.6673C30.0485 30 29.455 30.2458 29.0174 30.6834C28.5798 31.121 28.334 31.7145 28.334 32.3333V39.3333C28.334 39.9522 28.5798 40.5457 29.0174 40.9832C29.455 41.4208 30.0485 41.6667 30.6673 41.6667H33.0007" stroke="white" stroke-width="2.33333" stroke-linecap="round" stroke-linejoin="round"/>
<path d="M47 26.5H49.3333C49.9522 26.5 50.5457 26.7458 50.9832 27.1834C51.4208 27.621 51.6667 28.2145 51.6667 28.8333V39.3333C51.6667 39.9522 51.4208 40.5457 50.9832 40.9832C50.5457 41.4208 49.9522 41.6667 49.3333 41.6667H47" stroke="white" stroke-width="2.33333" stroke-linecap="round" stroke-linejoin="round"/>
<path d="M37.666 23H42.3327" stroke="white" stroke-width="2.33333" stroke-linecap="round" stroke-linejoin="round"/>
<path d="M37.666 27.6665H42.3327" stroke="white" stroke-width="2.33333" stroke-linecap="round" stroke-linejoin="round"/>
<path d="M37.666 32.3335H42.3327" stroke="white" stroke-width="2.33333" stroke-linecap="round" stroke-linejoin="round"/>
<path d="M37.666 37H42.3327" stroke="white" stroke-width="2.33333" stroke-linecap="round" stroke-linejoin="round"/>
</g>
<defs>
<filter id="filter0_dd_7211_8997" x="0" y="0" width="80" height="80" filterUnits="userSpaceOnUse" color-interpolation-filters="sRGB">
<feFlood flood-opacity="0" result="BackgroundImageFix"/>
<feColorMatrix in="SourceAlpha" type="matrix" values="0 0 0 0 0 0 0 0 0 0 0 0 0 0 0 0 0 0 127 0" result="hardAlpha"/>
<feMorphology radius="4" operator="erode" in="SourceAlpha" result="effect1_dropShadow_7211_8997"/>
<feOffset dy="4"/>
<feGaussianBlur stdDeviation="3"/>
<feComposite in2="hardAlpha" operator="out"/>
<feColorMatrix type="matrix" values="0 0 0 0 0 0 0 0 0 0 0 0 0 0 0 0 0 0 0.1 0"/>
<feBlend mode="normal" in2="BackgroundImageFix" result="effect1_dropShadow_7211_8997"/>
<feColorMatrix in="SourceAlpha" type="matrix" values="0 0 0 0 0 0 0 0 0 0 0 0 0 0 0 0 0 0 127 0" result="hardAlpha"/>
<feMorphology radius="3" operator="erode" in="SourceAlpha" result="effect2_dropShadow_7211_8997"/>
<feOffset dy="10"/>
<feGaussianBlur stdDeviation="7.5"/>
<feComposite in2="hardAlpha" operator="out"/>
<feColorMatrix type="matrix" values="0 0 0 0 0 0 0 0 0 0 0 0 0 0 0 0 0 0 0.1 0"/>
<feBlend mode="normal" in2="effect1_dropShadow_7211_8997" result="effect2_dropShadow_7211_8997"/>
<feBlend mode="normal" in="SourceGraphic" in2="effect2_dropShadow_7211_8997" result="shape"/>
</filter>
</defs>
</svg>
