<svg width="16" height="14" viewBox="0 0 16 14" fill="none" xmlns="http://www.w3.org/2000/svg">
<path d="M2.2829 13.7634L11.8081 0.236619H13.7565L4.21156 13.7634H2.2829ZM3.28659 7.09859C2.59123 7.09859 1.99426 6.98028 1.49569 6.74366C1.01025 6.50704 0.636326 6.13239 0.373924 5.61972C0.124641 5.10704 0 4.4169 0 3.5493C0 2.68169 0.124641 1.99155 0.373924 1.47887C0.636326 0.953051 1.01025 0.578403 1.49569 0.35493C1.99426 0.11831 2.59123 0 3.28659 0C3.99508 0 4.59205 0.11831 5.07749 0.35493C5.56294 0.578403 5.9303 0.953051 6.17958 1.47887C6.44198 1.99155 6.57319 2.68169 6.57319 3.5493C6.57319 4.4169 6.44198 5.11361 6.17958 5.63944C5.9303 6.15211 5.56294 6.52676 5.07749 6.76338C4.59205 6.98685 3.99508 7.09859 3.28659 7.09859ZM3.28659 5.61972C3.8114 5.61972 4.15908 5.44883 4.32964 5.10704C4.50021 4.75211 4.58549 4.28545 4.58549 3.70704V3.37183C4.58549 2.99061 4.54613 2.66197 4.4674 2.38592C4.4018 2.09671 4.2706 1.87324 4.0738 1.71549C3.89012 1.5446 3.62772 1.45915 3.28659 1.45915C2.78803 1.45915 2.4469 1.63662 2.26322 1.99155C2.09266 2.34648 2.00738 2.80657 2.00738 3.37183V3.70704C2.00738 4.28545 2.09266 4.75211 2.26322 5.10704C2.4469 5.44883 2.78803 5.61972 3.28659 5.61972ZM12.7134 14C12.018 14 11.4211 13.8817 10.9225 13.6451C10.4371 13.4085 10.0631 13.0338 9.80074 12.5211C9.55145 12.0085 9.42681 11.3183 9.42681 10.4507C9.42681 9.5831 9.55145 8.89296 9.80074 8.38028C10.0631 7.85446 10.4371 7.47981 10.9225 7.25634C11.4211 7.01972 12.018 6.90141 12.7134 6.90141C13.4219 6.90141 14.0189 7.01972 14.5043 7.25634C15.0029 7.47981 15.3768 7.85446 15.6261 8.38028C15.8754 8.89296 16 9.5831 16 10.4507C16 11.3183 15.8754 12.015 15.6261 12.5408C15.3768 13.0535 15.0029 13.4282 14.5043 13.6648C14.0189 13.8883 13.4219 14 12.7134 14ZM12.7134 12.5408C13.2251 12.5408 13.5662 12.3634 13.7368 12.0085C13.9073 11.6535 13.9926 11.1869 13.9926 10.6084V10.2732C13.9926 9.89202 13.9533 9.56338 13.8745 9.28732C13.8089 8.99812 13.6843 8.77465 13.5006 8.6169C13.3301 8.44601 13.0676 8.36056 12.7134 8.36056C12.2148 8.36056 11.8737 8.53803 11.69 8.89296C11.5195 9.24789 11.4342 9.70798 11.4342 10.2732V10.6084C11.4342 11.1869 11.5195 11.6535 11.69 12.0085C11.8737 12.3634 12.2148 12.5408 12.7134 12.5408Z" fill="white"/>
</svg>
