<svg width="74" height="74" viewBox="0 0 74 74" fill="none" xmlns="http://www.w3.org/2000/svg">
<g filter="url(#filter0_dd_5144_26419)">
<path d="M5 17C5 8.16344 12.1634 1 21 1H53C61.8366 1 69 8.16344 69 17V49C69 57.8366 61.8366 65 53 65H21C12.1634 65 5 57.8366 5 49V17Z" fill="white" shape-rendering="crispEdges"/>
<path d="M40.75 44.25V34.25C40.75 33.9185 40.6183 33.6005 40.3839 33.3661C40.1495 33.1317 39.8315 33 39.5 33H34.5C34.1685 33 33.8505 33.1317 33.6161 33.3661C33.3817 33.6005 33.25 33.9185 33.25 34.25V44.25" stroke="#4A5565" stroke-width="2.5" stroke-linecap="round" stroke-linejoin="round"/>
<path d="M25.75 30.5C25.7499 30.1363 25.8292 29.777 25.9822 29.4472C26.1353 29.1173 26.3585 28.8248 26.6363 28.59L35.3862 21.09C35.8375 20.7086 36.4092 20.4994 37 20.4994C37.5908 20.4994 38.1625 20.7086 38.6138 21.09L47.3638 28.59C47.6415 28.8248 47.8647 29.1173 48.0178 29.4472C48.1708 29.777 48.2501 30.1363 48.25 30.5V41.75C48.25 42.413 47.9866 43.0489 47.5178 43.5178C47.0489 43.9866 46.413 44.25 45.75 44.25H28.25C27.587 44.25 26.9511 43.9866 26.4822 43.5178C26.0134 43.0489 25.75 42.413 25.75 41.75V30.5Z" stroke="#4A5565" stroke-width="2.5" stroke-linecap="round" stroke-linejoin="round"/>
</g>
<defs>
<filter id="filter0_dd_5144_26419" x="0" y="0" width="74" height="74" filterUnits="userSpaceOnUse" color-interpolation-filters="sRGB">
<feFlood flood-opacity="0" result="BackgroundImageFix"/>
<feColorMatrix in="SourceAlpha" type="matrix" values="0 0 0 0 0 0 0 0 0 0 0 0 0 0 0 0 0 0 127 0" result="hardAlpha"/>
<feMorphology radius="2" operator="erode" in="SourceAlpha" result="effect1_dropShadow_5144_26419"/>
<feOffset dy="2"/>
<feGaussianBlur stdDeviation="2"/>
<feComposite in2="hardAlpha" operator="out"/>
<feColorMatrix type="matrix" values="0 0 0 0 0 0 0 0 0 0 0 0 0 0 0 0 0 0 0.1 0"/>
<feBlend mode="normal" in2="BackgroundImageFix" result="effect1_dropShadow_5144_26419"/>
<feColorMatrix in="SourceAlpha" type="matrix" values="0 0 0 0 0 0 0 0 0 0 0 0 0 0 0 0 0 0 127 0" result="hardAlpha"/>
<feMorphology radius="1" operator="erode" in="SourceAlpha" result="effect2_dropShadow_5144_26419"/>
<feOffset dy="4"/>
<feGaussianBlur stdDeviation="3"/>
<feComposite in2="hardAlpha" operator="out"/>
<feColorMatrix type="matrix" values="0 0 0 0 0 0 0 0 0 0 0 0 0 0 0 0 0 0 0.1 0"/>
<feBlend mode="normal" in2="effect1_dropShadow_5144_26419" result="effect2_dropShadow_5144_26419"/>
<feBlend mode="normal" in="SourceGraphic" in2="effect2_dropShadow_5144_26419" result="shape"/>
</filter>
</defs>
</svg>
