<svg width="20" height="20" viewBox="0 0 20 20" fill="none" xmlns="http://www.w3.org/2000/svg">
<path d="M2.41746 16.0254C2.75461 16.0254 3.06523 16.1803 3.26965 16.4506L3.28395 16.4695L3.3073 16.4655C3.35129 16.4581 3.39113 16.4546 3.4291 16.4546C3.53855 16.4546 3.64402 16.4782 3.74258 16.5248L3.78059 16.5428L3.79574 16.5036C3.95 16.1042 4.34098 15.8358 4.76867 15.8358C5.28375 15.8358 5.72738 16.22 5.80066 16.7294L5.80465 16.7569L5.83191 16.7622C6.10629 16.8154 6.30547 17.0572 6.30547 17.3371C6.30547 17.4082 6.2916 17.4794 6.26434 17.5489L6.2434 17.6022H6.54473C6.6309 17.6022 6.70098 17.6723 6.70098 17.7585V18.2324H9.55996V11.6108H1.62109V16.3819C1.81707 16.1632 2.10141 16.0254 2.41746 16.0254Z" fill="#FFB98A"/>
<path d="M9.52078 8.44836H8.02039C7.98258 8.44836 7.96113 8.43867 7.95723 8.42965C7.95328 8.42066 7.96074 8.39832 7.98641 8.37054L10.3734 5.79047H3.07715V9.60012H9.55984V8.48738C9.55984 8.46586 9.54234 8.44836 9.52078 8.44836Z" fill="#FFB98A"/>
<path opacity="0.1" d="M4.0623 5.79065H3.07715V9.60041H4.0623V5.79065Z" fill="#434343"/>
<path d="M7.38291 3.73822V4.15037C7.38291 4.23654 7.31284 4.30662 7.22666 4.30662H5.03916C4.95299 4.30662 4.88291 4.23654 4.88291 4.15037V3.73822H3.83952C3.73209 3.73822 3.58877 3.80642 3.521 3.88978L2.04518 5.70529C1.97741 5.78865 2.00987 5.85685 2.11729 5.85685H10.3122L12.2722 3.73826L7.38291 3.73822Z" fill="#083E63"/>
<g opacity="0.1">
<path d="M3.04049 5.70529L4.51631 3.88978C4.58409 3.80642 4.72741 3.73822 4.83483 3.73822H3.83952C3.73209 3.73822 3.58877 3.80642 3.521 3.88978L2.04518 5.70529C1.97741 5.78865 2.00987 5.85685 2.11729 5.85685H3.1126C3.00518 5.85685 2.97272 5.78861 3.04049 5.70529Z" fill="#434343"/>
</g>
<path opacity="0.1" d="M2.41746 16.0254C2.48535 16.0254 2.55211 16.032 2.61719 16.0442V11.6108H1.62109V16.3819C1.81707 16.1632 2.10141 16.0254 2.41746 16.0254Z" fill="#434343"/>
<path d="M3.26965 16.4506L3.28395 16.4695L3.3073 16.4655C3.35129 16.4581 3.39113 16.4546 3.4291 16.4546C3.53855 16.4546 3.64402 16.4782 3.74258 16.5248L3.76027 16.5332H3.78426L3.7957 16.5036C3.86289 16.3296 3.97504 16.1806 4.11551 16.0677V13.4473C4.11551 13.3398 4.02762 13.252 3.9202 13.252H2.8125C2.70508 13.252 2.61719 13.3398 2.61719 13.4473V16.0442C2.87531 16.0928 3.10637 16.2348 3.26965 16.4506Z" fill="#1DD9DD"/>
<path d="M2.41746 16.0254C2.59262 16.0254 2.76047 16.0676 2.91016 16.1457V13.5449H3.82254V16.2402H3.05953C3.13762 16.2994 3.20848 16.3697 3.26965 16.4506L3.28395 16.4695L3.3073 16.4655C3.35129 16.4581 3.39113 16.4546 3.4291 16.4546C3.53855 16.4546 3.64402 16.4782 3.74258 16.5248L3.78059 16.5428L3.79574 16.5036C3.90496 16.2209 4.13301 16.0044 4.40852 15.9017V13.4473C4.40852 13.178 4.18949 12.959 3.92023 12.959H2.8125C2.54324 12.959 2.32422 13.178 2.32422 13.4473V16.0297C2.35496 16.027 2.38602 16.0254 2.41746 16.0254Z" fill="#775436"/>
<path d="M5.75184 16.5332H6.22195C6.32938 16.5332 6.41727 16.4453 6.41727 16.3379V13.4473C6.41727 13.3398 6.32938 13.252 6.22195 13.252H5.11426C5.00684 13.252 4.91895 13.3398 4.91895 13.4473V15.847C5.30125 15.9035 5.62387 16.1713 5.75184 16.5332Z" fill="#1DD9DD"/>
<path d="M4.76832 15.8358C4.9257 15.8358 5.07637 15.8719 5.21188 15.9362V13.5449H6.12426V16.2403H5.59094C5.69934 16.3791 5.77395 16.5461 5.80027 16.7294L5.80426 16.7569L5.83152 16.7622C5.89375 16.7743 5.95184 16.7965 6.00488 16.8262H6.22195C6.49121 16.8262 6.71023 16.6072 6.71023 16.338V13.4473C6.71023 13.1781 6.49121 12.959 6.22195 12.959H5.11426C4.845 12.959 4.62598 13.1781 4.62598 13.4473V15.8463C4.67281 15.8397 4.72027 15.8358 4.76832 15.8358Z" fill="#775436"/>
<path d="M8.71121 16.3379C8.71121 16.4453 8.62332 16.5332 8.5159 16.5332H7.4082C7.30078 16.5332 7.21289 16.4453 7.21289 16.3379V13.4473C7.21289 13.3398 7.30078 13.252 7.4082 13.252H8.5159C8.62332 13.252 8.71121 13.3398 8.71121 13.4473V16.3379Z" fill="#1DD9DD"/>
<path d="M8.5159 16.8262H7.4082C7.13895 16.8262 6.91992 16.6071 6.91992 16.3379V13.4473C6.91992 13.178 7.13895 12.959 7.4082 12.959H8.5159C8.78516 12.959 9.00418 13.178 9.00418 13.4473V16.3379C9.00418 16.6071 8.78516 16.8262 8.5159 16.8262ZM7.50586 16.2402H8.41824V13.5449H7.50586V16.2402Z" fill="#775436"/>
<path d="M2.81918 17.6022L2.78699 17.5442C2.7268 17.4357 2.695 17.3129 2.695 17.1888C2.695 16.8187 2.97039 16.5125 3.3268 16.4625C3.1266 16.1749 2.7941 15.9863 2.41715 15.9863C1.80496 15.9863 1.30859 16.4826 1.30859 17.0948C1.30859 17.2778 1.35336 17.4502 1.43188 17.6023H2.81918V17.6022Z" fill="#5DC647"/>
<path d="M6.28477 17.6022C6.3227 17.5217 6.34453 17.4321 6.34453 17.3371C6.34453 17.0329 6.12715 16.7796 5.83934 16.7238C5.76391 16.1996 5.31336 15.7968 4.76867 15.7968C4.30855 15.7968 3.91578 16.0843 3.7593 16.4895C3.65918 16.4421 3.54723 16.4154 3.4291 16.4154C3.00227 16.4154 2.65625 16.7616 2.65625 17.1887C2.65625 17.3409 2.70074 17.4825 2.77656 17.6021H6.28477V17.6022Z" fill="#368C0E"/>
<path d="M6.7398 18.2324V17.7585C6.7398 17.6511 6.65191 17.5632 6.54449 17.5632H0.978516C0.871094 17.5632 0.783203 17.6511 0.783203 17.7585V18.2324H6.7398Z" fill="#775436"/>
<path opacity="0.1" d="M1.77754 18.2324V17.7585C1.77754 17.6511 1.86543 17.5632 1.97285 17.5632H0.978516C0.871094 17.5632 0.783203 17.6511 0.783203 17.7585V18.2324H1.77754Z" fill="#434343"/>
<path d="M9.56006 9.5318H2.21065C2.10323 9.5318 1.95991 9.6 1.89213 9.68336L0.416273 11.4988C0.3485 11.5822 0.380961 11.6504 0.488382 11.6504H9.56006V9.5318Z" fill="#046699"/>
<g opacity="0.1">
<path d="M1.39987 11.4988L2.87569 9.68336C2.94346 9.6 3.08678 9.5318 3.1942 9.5318H2.21065C2.10323 9.5318 1.95991 9.6 1.89213 9.68336L0.416273 11.4988C0.3485 11.5822 0.380961 11.6504 0.488382 11.6504H1.47198C1.36455 11.6504 1.33209 11.5822 1.39987 11.4988Z" fill="#434343"/>
</g>
<path d="M19.4654 8.34403L13.8441 2.26801C13.7712 2.18915 13.6518 2.18915 13.5788 2.26801L7.95754 8.34403C7.88461 8.42289 7.91278 8.48739 8.0202 8.48739H9.55965V8.46129L13.7114 3.9736L17.8634 8.46129V8.48739H19.4027C19.5102 8.48743 19.5384 8.42289 19.4654 8.34403Z" fill="#046699"/>
<path d="M17.4658 18.2324V16.5417H16.1253C16.0884 16.5417 16.0609 16.5307 16.0498 16.5115C16.0388 16.4923 16.043 16.463 16.0614 16.4311L16.9524 14.888H16.5822C16.5454 14.888 16.5179 14.8771 16.5068 14.8579C16.4957 14.8387 16.5 14.8094 16.5184 14.7775L17.2952 13.4321H16.9737C16.9369 13.4321 16.9094 13.4211 16.8983 13.4019C16.8872 13.3827 16.8914 13.3534 16.9099 13.3215L17.7918 11.7939C17.8103 11.7619 17.8335 11.7436 17.8557 11.7436C17.8714 11.7436 17.8877 11.7533 17.9024 11.7701V8.446L13.7114 3.91608L9.52051 8.446V18.2324H17.4658Z" fill="#FFD5B3"/>
<path d="M18.2846 16.5418H17.4268V18.2324H18.2846V16.5418Z" fill="#775436"/>
<path opacity="0.1" d="M10.5074 18.2324V8.446L14.2048 4.44944L13.7114 3.91608L9.52051 8.446V18.2324H10.5074Z" fill="#434343"/>
<path d="M15.2458 18.2324V13.4706C15.2458 13.3632 15.1579 13.2753 15.0505 13.2753H12.374C12.2666 13.2753 12.1787 13.3632 12.1787 13.4706V18.2324H15.2458Z" fill="#B2762F"/>
<path opacity="0.1" d="M13.1645 18.2324V13.4706C13.1645 13.3632 13.2524 13.2753 13.3598 13.2753H12.374C12.2666 13.2753 12.1787 13.3632 12.1787 13.4706V18.2324H13.1645Z" fill="#434343"/>
<path d="M12.832 16.7101C12.6702 16.7101 12.5391 16.5789 12.5391 16.4171V15.7767C12.5391 15.6149 12.6702 15.4837 12.832 15.4837C12.9939 15.4837 13.125 15.6149 13.125 15.7767V16.4171C13.125 16.5789 12.9939 16.7101 12.832 16.7101Z" fill="#775436"/>
<path d="M15.0505 10.7362V8.01758C15.0505 7.91016 14.9626 7.82227 14.8552 7.82227H12.5693C12.4619 7.82227 12.374 7.91016 12.374 8.01758V10.7362H15.0505Z" fill="#1DD9DD"/>
<path opacity="0.1" d="M13.3598 10.7362V8.01758C13.3598 7.91016 13.4477 7.82227 13.5551 7.82227H12.5693C12.4619 7.82227 12.374 7.91016 12.374 8.01758V10.7362H13.3598Z" fill="#434343"/>
<path d="M12.667 10.7362V8.11523H14.7575V10.7362H15.3435V8.01758C15.3435 7.74832 15.1244 7.5293 14.8552 7.5293H12.5693C12.3001 7.5293 12.0811 7.74832 12.0811 8.01758V10.7362H12.667Z" fill="#775436"/>
<path d="M15.7146 11.416C15.7146 11.5235 15.6267 11.6113 15.5193 11.6113H11.9053C11.7979 11.6113 11.71 11.5235 11.71 11.416V10.8925C11.71 10.7851 11.7979 10.6972 11.9053 10.6972H15.5193C15.6267 10.6972 15.7146 10.7851 15.7146 10.8925V11.416Z" fill="#775436"/>
<g opacity="0.1">
<path d="M12.6957 11.416V10.8925C12.6957 10.7851 12.7836 10.6972 12.8911 10.6972H11.9053C11.7979 10.6972 11.71 10.7851 11.71 10.8925V11.416C11.71 11.5235 11.7979 11.6113 11.9053 11.6113H12.8911C12.7836 11.6113 12.6957 11.5235 12.6957 11.416Z" fill="#434343"/>
</g>
<path d="M4.84375 2.35352V4.15039C4.84375 4.25781 4.93164 4.3457 5.03906 4.3457H7.22656C7.33398 4.3457 7.42188 4.25781 7.42188 4.15039V2.35352H4.84375Z" fill="#C6A07D"/>
<path opacity="0.1" d="M5.82031 4.15039V2.35352H4.84375V4.15039C4.84375 4.25781 4.93164 4.3457 5.03906 4.3457H6.01562C5.9082 4.3457 5.82031 4.25781 5.82031 4.15039Z" fill="#434343"/>
<path d="M7.89062 2.19727C7.89062 2.30469 7.80273 2.39258 7.69531 2.39258H4.57031C4.46289 2.39258 4.375 2.30469 4.375 2.19727V1.41602C4.375 1.30859 4.46289 1.2207 4.57031 1.2207H7.69531C7.80273 1.2207 7.89062 1.30859 7.89062 1.41602V2.19727Z" fill="#775436"/>
<g opacity="0.1">
<path d="M5.35156 2.19727V1.41602C5.35156 1.30859 5.43945 1.2207 5.54688 1.2207H4.57031C4.46289 1.2207 4.375 1.30859 4.375 1.41602V2.19727C4.375 2.30469 4.46289 2.39258 4.57031 2.39258H5.54688C5.43945 2.39258 5.35156 2.30469 5.35156 2.19727Z" fill="#434343"/>
</g>
<path d="M5.68902 6.80664H3.07715V8.48633H5.68902V6.80664Z" fill="#1DD9DD"/>
<g opacity="0.1">
<path d="M4.0623 6.80664H3.07715V8.48633H4.0623V6.80664Z" fill="#434343"/>
</g>
<path d="M6.79715 6.80664H5.68945V8.48633H6.79715C6.90457 8.48633 6.99246 8.39844 6.99246 8.29102V7.00195C6.99246 6.89453 6.90457 6.80664 6.79715 6.80664Z" fill="#A2F9F9"/>
<path d="M6.79676 6.51367H3.07715V7.09961H5.39605V8.19336H3.07715V8.7793H6.79676C7.06602 8.7793 7.28504 8.56027 7.28504 8.29102V7.00195C7.28504 6.7327 7.06602 6.51367 6.79676 6.51367ZM6.6991 8.19336H5.98203V7.09961H6.6991V8.19336Z" fill="#775436"/>
<path d="M19.6839 16.4116L18.8012 14.8828H16.9105L16.0278 16.4116C15.9741 16.5046 16.018 16.5807 16.1255 16.5807H19.5863C19.6937 16.5807 19.7376 16.5046 19.6839 16.4116Z" fill="#368C0E"/>
<g opacity="0.1">
<path d="M17.0149 16.4116L17.8976 14.8828H16.9105L16.0278 16.4116C15.9741 16.5046 16.018 16.5807 16.1255 16.5807H17.1126C17.0052 16.5807 16.9612 16.5046 17.0149 16.4116Z" fill="#434343"/>
</g>
<path d="M19.227 14.7579L18.4472 13.4072H17.2647L16.4848 14.7579C16.4311 14.851 16.4751 14.9271 16.5825 14.9271H19.1293C19.2368 14.9271 19.2807 14.851 19.227 14.7579Z" fill="#5DC647"/>
<path opacity="0.1" d="M17.472 14.7579L18.2519 13.4072H17.2647L16.4848 14.7579C16.4311 14.851 16.4751 14.9271 16.5825 14.9271H17.5696C17.4622 14.9271 17.4183 14.851 17.472 14.7579Z" fill="#434343"/>
<path d="M16.9741 13.4711C16.8667 13.4711 16.8227 13.395 16.8764 13.302L17.7584 11.7743C17.8121 11.6813 17.9 11.6813 17.9537 11.7743L18.8357 13.302C18.8894 13.395 18.8454 13.4711 18.738 13.4711H16.9741Z" fill="#368C0E"/>
<g opacity="0.1">
<path d="M17.8636 13.302L18.3496 12.4601L17.9537 11.7743C17.9 11.6813 17.8121 11.6813 17.7584 11.7743L16.8764 13.302C16.8227 13.395 16.8667 13.4711 16.9741 13.4711H17.9612C17.8538 13.4711 17.8099 13.395 17.8636 13.302Z" fill="#434343"/>
</g>
<path d="M19.707 18.7793H0.292969C0.131133 18.7793 0 18.6481 0 18.4863C0 18.3245 0.131133 18.1934 0.292969 18.1934H19.707C19.8689 18.1934 20 18.3245 20 18.4863C20 18.6481 19.8689 18.7793 19.707 18.7793Z" fill="#D19546"/>
</svg>
