<svg width="20" height="20" viewBox="0 0 20 20" fill="none" xmlns="http://www.w3.org/2000/svg">
<path fill-rule="evenodd" clip-rule="evenodd" d="M10.9048 3H11.606C11.7161 3 11.806 3.09282 11.806 3.20666V3.23735L10.7048 3.75092V3.20662C10.7048 3.09282 10.7946 3 10.9048 3ZM2.167 16.2436H17.8329V17H2.167V16.2436ZM2.167 10.1014H17.8329V10.8578H2.167V10.1014ZM2.7775 15.6925V11.4089H9.73334V15.6926H7.5913V13.2399C7.5913 13.0881 7.4715 12.9643 7.32463 12.9643H5.4529C5.30603 12.9643 5.18623 13.0881 5.18623 13.2399V15.6926L2.7775 15.6925ZM6.38877 3L2.06993 5.01422C1.95343 5.06857 1.9912 5.24978 2.119 5.24978H2.7775V9.55031H9.73334V4.55985L6.38877 3ZM6.1221 8.63823H4.80127V7.1781H6.1221V8.63823ZM6.1221 6.62701H4.81097C4.88873 5.90006 5.43107 5.31236 6.1221 5.19026V6.62701ZM6.6554 5.19026C7.34647 5.31232 7.88877 5.90006 7.96654 6.62701H6.6554V5.19026ZM7.97624 8.63823H6.6554V7.1781H7.97624V8.63823ZM17.93 5.01422L13.6112 3L10.2667 4.55985V9.55031H17.2225V5.24978H17.881C18.0088 5.24978 18.0466 5.06857 17.93 5.01422ZM13.3446 8.63823H12.0237V7.1781H13.3446V8.63823ZM13.3446 6.62701H12.0334C12.1112 5.90002 12.6535 5.31236 13.3446 5.19026V6.62701ZM13.8779 5.19026C14.569 5.31236 15.1113 5.90006 15.189 6.62701H13.8779V5.19026ZM15.1987 8.63823H13.8779V7.1781H15.1987V8.63823ZM12.6754 12.9643H14.5471C14.694 12.9643 14.8138 13.0881 14.8138 13.2398V15.6925H17.2225V11.4089H10.2667V15.6926H12.4087V13.2399C12.4087 13.0881 12.5285 12.9643 12.6754 12.9643ZM3.6823 3C3.57213 3 3.4823 3.09282 3.4823 3.20666V3.75096L4.58347 3.23738V3.20666C4.58347 3.09282 4.49363 3 4.38346 3H3.6823Z" fill="white"/>
</svg>
