<svg width="40" height="40" viewBox="0 0 40 40" fill="none" xmlns="http://www.w3.org/2000/svg">
<path d="M21.05 15.273C19.075 15.5498 17.35 17.3886 17.3333 17.4052C17.3085 17.4307 17.2805 17.4529 17.25 17.4713C14.5667 19.1985 13.0542 17.8845 12.9917 17.806C11.275 16.2729 12.85 13.7027 12.9167 13.5953C13.6198 12.4362 14.4714 11.3723 15.45 10.43H8.1625L5 20.777C5.03397 20.7957 5.06488 20.8194 5.09167 20.8473C10 26.3514 16.5167 31.2356 19.0875 33.0786C19.355 33.2748 19.6878 33.3629 20.0183 33.3251C20.3489 33.2873 20.6526 33.1263 20.8681 32.8748C21.0835 32.6234 21.1946 32.3001 21.1789 31.9705C21.1632 31.6408 21.0218 31.3294 20.7833 31.0993L17.2458 27.591C17.1682 27.5136 17.1247 27.4089 17.1247 27.2997C17.1247 27.1905 17.1682 27.0858 17.2458 27.0084C17.2846 26.9697 17.3307 26.9389 17.3814 26.9179C17.4322 26.897 17.4867 26.8862 17.5417 26.8862C17.5967 26.8862 17.6511 26.897 17.7019 26.9179C17.7527 26.9389 17.7988 26.9697 17.8375 27.0084L21.3875 30.529L22.2208 31.3761C22.5198 31.6649 22.9209 31.826 23.3382 31.825C23.7555 31.824 24.1558 31.6609 24.4533 31.3707C24.7508 31.0805 24.9219 30.6863 24.9298 30.2725C24.9378 29.8588 24.782 29.4584 24.4958 29.1571L21.25 25.7977L20.6333 25.1654C20.5943 25.127 20.5633 25.0813 20.5421 25.031C20.521 24.9806 20.5101 24.9266 20.5101 24.872C20.5101 24.8175 20.521 24.7635 20.5421 24.7131C20.5633 24.6628 20.5943 24.6171 20.6333 24.5787C20.6721 24.5399 20.7182 24.5092 20.7689 24.4882C20.8197 24.4672 20.8742 24.4564 20.9292 24.4564C20.9842 24.4564 21.0386 24.4672 21.0894 24.4882C21.1402 24.5092 21.1863 24.5399 21.225 24.5787L25.9625 29.4547C26.1919 29.6798 26.4823 29.8341 26.7984 29.8987C27.1145 29.9633 27.4428 29.9355 27.7433 29.8187C28.0437 29.7018 28.3036 29.501 28.4912 29.2405C28.6787 28.98 28.786 28.6712 28.8 28.3514C28.8069 28.1261 28.766 27.9018 28.6798 27.6933C28.5937 27.4847 28.4643 27.2964 28.3 27.1406L25.4583 24.4134L23.4792 22.5084C23.4351 22.472 23.3991 22.4269 23.3734 22.376C23.3478 22.3251 23.333 22.2695 23.33 22.2127C23.327 22.1558 23.3359 22.099 23.3561 22.0458C23.3763 21.9925 23.4073 21.9439 23.4473 21.9031C23.4873 21.8623 23.5354 21.8301 23.5885 21.8086C23.6416 21.7871 23.6986 21.7767 23.756 21.778C23.8134 21.7794 23.8698 21.7925 23.9218 21.8165C23.9739 21.8405 24.0203 21.8749 24.0583 21.9175L29.6833 27.3183C29.8309 27.4686 30.0075 27.5877 30.2027 27.6684C30.3979 27.7492 30.6075 27.7899 30.819 27.7881C31.0304 27.7864 31.2394 27.7422 31.4331 27.6582C31.6269 27.5742 31.8016 27.4522 31.9465 27.2995C32.0915 27.1468 32.2038 26.9666 32.2766 26.7697C32.3495 26.5728 32.3814 26.3634 32.3704 26.1539C32.3595 25.9445 32.3059 25.7394 32.2128 25.551C32.1198 25.3627 31.9893 25.195 31.8292 25.058L21.05 15.273Z" fill="white"/>
<path d="M6.89167 8.00855C4.72858 7.04411 2.36993 6.58873 0 6.67798V22.8845H2.54583C2.81754 22.8851 3.08207 22.7979 3.29934 22.6361C3.51662 22.4743 3.67483 22.2467 3.75 21.9878L7.575 9.49614C7.66243 9.20817 7.64132 8.8985 7.5156 8.62482C7.38989 8.35114 7.16814 8.13212 6.89167 8.00855Z" fill="white"/>
<path d="M22.4 8.8102C21.5014 8.44337 20.4974 8.42128 19.5833 8.74821C17.9875 9.32672 15.6583 10.7151 13.6125 14.0292C13.6125 14.054 12.3333 16.0953 13.5375 17.1944C13.5792 17.2316 14.6542 18.1242 16.7375 16.806C17.0375 16.4961 18.9167 14.6283 21.1375 14.4259C21.1949 14.4211 21.2527 14.4282 21.3072 14.4467C21.3617 14.4651 21.4117 14.4946 21.4542 14.5333L32.375 24.4506C32.425 24.496 32.4708 24.5456 32.5167 24.5952C33.7667 24.4051 34.6 23.2729 34.8417 22.8597L30.8833 12.1614L22.4 8.8102Z" fill="white"/>
<path d="M39.1667 8.64904C36.79 8.63339 34.4328 9.07399 32.225 9.94655C31.9281 10.0727 31.692 10.308 31.5661 10.6031C31.4403 10.8981 31.4345 11.23 31.55 11.5292L36.1875 24.0456C36.278 24.2871 36.4405 24.4955 36.6534 24.6431C36.8663 24.7907 37.1194 24.8706 37.3792 24.872H40V8.6697C39.7917 8.6573 39.5042 8.64904 39.1667 8.64904Z" fill="white"/>
</svg>
