<svg width="20" height="20" viewBox="0 0 20 20" fill="none" xmlns="http://www.w3.org/2000/svg">
<path d="M2.33113 9.19746H2.94371V16.6831C2.94371 16.8606 3.09272 17 3.27483 17H4.59934C4.78477 17 4.93046 16.8606 4.93046 16.6831V9.19746H6.30795V7.29595H2.33113C2.14901 7.29595 2 7.43857 2 7.61287V8.88055C2 9.05485 2.14901 9.19746 2.33113 9.19746Z" fill="white"/>
<path d="M7.34437 16.9937C7.91391 16.9937 8.3808 16.55 8.3808 16.0017C8.3808 15.5675 8.08609 15.1999 7.6755 15.0668V14.2396L9.66887 13.6597V15.07C9.26159 15.2031 8.96358 15.5675 8.96358 16.0049C8.96358 16.55 9.42715 16.9968 10 16.9968C10.5728 16.9968 11.0364 16.5531 11.0364 16.0049C11.0364 15.5707 10.7417 15.2031 10.3311 15.07V13.6597L12.3245 14.246V15.0731C11.9172 15.2062 11.6192 15.5707 11.6192 16.008C11.6192 16.5531 12.0828 17 12.6556 17C13.2285 17 13.6921 16.5563 13.6921 16.008C13.6921 15.5739 13.3974 15.2062 12.9868 15.0731V14.0115C12.9868 13.872 12.8907 13.7484 12.7517 13.7072L10.3311 12.9973V12.2019H12.4272C12.9139 12.2019 13.3079 11.8247 13.3079 11.3588V4.843C13.3079 4.3803 12.9139 4 12.4272 4H7.57285C7.08609 4 6.69205 4.3803 6.69205 4.843V11.3588C6.69205 11.8247 7.08609 12.2019 7.57285 12.2019H9.66887V12.9973L7.24834 13.7072C7.10927 13.7484 7.01325 13.872 7.01325 14.0115V15.0731C6.60596 15.2062 6.30795 15.5707 6.30795 16.008C6.31126 16.55 6.77483 16.9937 7.34437 16.9937ZM12.6523 16.3598C12.447 16.3598 12.2781 16.2014 12.2781 16.0017C12.2781 15.802 12.4437 15.6436 12.6523 15.6436C12.8609 15.6436 13.0265 15.802 13.0265 16.0017C13.0265 16.2014 12.8576 16.3598 12.6523 16.3598ZM10 16.3598C9.7947 16.3598 9.62583 16.2014 9.62583 16.0017C9.62583 15.802 9.79139 15.6436 10 15.6436C10.2086 15.6436 10.3742 15.802 10.3742 16.0017C10.3742 16.2014 10.2053 16.3598 10 16.3598ZM7.34437 15.6468C7.54967 15.6468 7.71854 15.8052 7.71854 16.0049C7.71854 16.2045 7.55298 16.363 7.34437 16.363C7.13576 16.363 6.9702 16.2045 6.9702 16.0049C6.9702 15.8052 7.13907 15.6468 7.34437 15.6468Z" fill="white"/>
<path d="M17.6689 7.29595H13.6921V9.19746H15.0662V16.6831C15.0662 16.8606 15.2152 17 15.3974 17H16.7219C16.904 17 17.053 16.8606 17.053 16.6831V9.19746H17.6689C17.851 9.19746 18 9.05485 18 8.88055V7.61287C18 7.43857 17.851 7.29595 17.6689 7.29595Z" fill="white"/>
</svg>
