<svg width="40" height="40" viewBox="0 0 40 40" fill="none" xmlns="http://www.w3.org/2000/svg">
<path d="M0 14C0 6.268 6.268 0 14 0H26C33.732 0 40 6.268 40 14V26C40 33.732 33.732 40 26 40H14C6.268 40 0 33.732 0 26V14Z" fill="url(#paint0_linear_805_181)"/>
<path d="M18.5586 27.5C18.7049 27.7533 18.9153 27.9637 19.1686 28.11C19.422 28.2563 19.7094 28.3333 20.0019 28.3333C20.2945 28.3333 20.5819 28.2563 20.8352 28.11C21.0886 27.9637 21.299 27.7533 21.4453 27.5" stroke="white" stroke-width="1.66667" stroke-linecap="round" stroke-linejoin="round"/>
<path d="M12.7177 22.7716C12.6089 22.8909 12.537 23.0393 12.5109 23.1987C12.4849 23.3581 12.5057 23.5217 12.5708 23.6695C12.636 23.8173 12.7427 23.9429 12.8779 24.0312C13.0132 24.1195 13.1712 24.1665 13.3327 24.1666H26.6661C26.8276 24.1667 26.9856 24.1198 27.1209 24.0317C27.2563 23.9436 27.3631 23.8181 27.4285 23.6704C27.4938 23.5227 27.5148 23.3592 27.4889 23.1998C27.4631 23.0404 27.3914 22.8919 27.2827 22.7725C26.1744 21.63 24.9994 20.4158 24.9994 16.6666C24.9994 15.3405 24.4726 14.0688 23.5349 13.1311C22.5972 12.1934 21.3255 11.6666 19.9994 11.6666C18.6733 11.6666 17.4015 12.1934 16.4639 13.1311C15.5262 14.0688 14.9994 15.3405 14.9994 16.6666C14.9994 20.4158 13.8236 21.63 12.7177 22.7716Z" stroke="white" stroke-width="1.66667" stroke-linecap="round" stroke-linejoin="round"/>
<defs>
<linearGradient id="paint0_linear_805_181" x1="20" y1="0" x2="20" y2="40" gradientUnits="userSpaceOnUse">
<stop stop-color="#3C8FCA"/>
<stop offset="1" stop-color="#2D6FA3"/>
</linearGradient>
</defs>
</svg>
