<svg width="20" height="20" viewBox="0 0 20 20" fill="none" xmlns="http://www.w3.org/2000/svg">
<path d="M10.9521 16.9167V13.2833H9.03118V16.9167H10.9521ZM10.5679 16.55H10.0835V16.0167H10.5679V16.55ZM10.5679 15.85H10.0835V15.3167H10.5679V15.85ZM10.5679 15.1667H10.0835V14.6333H10.5679V15.1667ZM10 13.6667C10.284 13.6667 10.5345 13.8833 10.5679 14.15H9.43207C9.46548 13.8833 9.71604 13.6667 10 13.6667ZM9.43207 14.6333H9.91648V15.1667H9.43207V14.6333ZM9.43207 15.3167H9.91648V15.85H9.43207V15.3167ZM9.43207 16.0167H9.91648V16.55H9.43207V16.0167Z" fill="white"/>
<path d="M12.5223 3.8H3.85301C3.76949 3.8 3.68597 3.86667 3.68597 3.96667V4.75C3.68597 4.83333 3.75278 4.91667 3.85301 4.91667H12.5223C12.6058 4.91667 12.6893 4.85 12.6893 4.75V3.96667C12.6893 3.86667 12.6225 3.8 12.5223 3.8Z" fill="white"/>
<path d="M12.6893 5.71667V5.38333C12.6893 5.3 12.6225 5.21667 12.5223 5.21667H4.67149C4.58797 5.21667 4.50445 5.28333 4.50445 5.38333V5.71667C4.50445 5.8 4.57127 5.88333 4.67149 5.88333H12.5223C12.6225 5.86667 12.6893 5.8 12.6893 5.71667Z" fill="white"/>
<path d="M16.6481 16.9167V12.6833H3.35189V16.9167H8.88085V13.2C8.88085 13.15 8.91425 13.1167 8.96437 13.1167H11.0523C11.1024 13.1167 11.1359 13.15 11.1359 13.2V16.9167H16.6481ZM4.50445 15.9333V15.7333H7.14365V15.9333H4.50445ZM5.35635 14.5333V14.9833H4.77172V14.5333H5.35635ZM4.77172 14.3833V13.95H5.35635V14.3833H4.77172ZM5.35635 15.1333V15.5667H4.77172V15.1333H5.35635ZM6.10802 14.5333V14.9833H5.52339V14.5333H6.10802ZM5.52339 14.3833V13.95H6.10802V14.3833H5.52339ZM6.10802 15.1333V15.5667H5.52339V15.1333H6.10802ZM6.85969 14.5333V14.9833H6.27506V14.5333H6.85969ZM6.25835 14.3833V13.95H6.84298V14.3833H6.25835ZM6.85969 15.1333V15.5667H6.27506V15.1333H6.85969ZM7.12695 13.7833H4.50445V13.5833H7.12695V13.7833ZM12.8731 13.5833H15.4955V13.7833H12.8731V13.5833ZM14.6437 14.9833V14.5333H15.2283V14.9833H14.6437ZM15.2283 15.1333V15.5667H14.6437V15.1333H15.2283ZM14.6437 14.3833V13.95H15.2283V14.3833H14.6437ZM13.892 14.9833V14.5333H14.4766V14.9833H13.892ZM14.4766 15.1333V15.5667H13.892V15.1333H14.4766ZM13.892 14.3833V13.95H14.4766V14.3833H13.892ZM13.1403 14.9833V14.5333H13.7249V14.9833H13.1403ZM13.7249 15.1333V15.5667H13.1403V15.1333H13.7249ZM13.1403 14.3833V13.95H13.7249V14.3833H13.1403ZM12.8731 15.7333H15.5123V15.9333H12.8731V15.7333Z" fill="white"/>
<path d="M16.6815 5.86667V3.16667H13.0067V5.86667H16.6815ZM14.9276 4.11667H16.0468V4.93333H14.9276V4.11667ZM13.6414 4.11667H14.7606V4.93333H13.6414V4.11667Z" fill="white"/>
<path d="M16.882 2H12.8229C12.7394 2 12.6559 2.06667 12.6559 2.16667V2.7C12.6559 2.78333 12.7227 2.86667 12.8229 2.86667H16.882C16.9655 2.86667 17.049 2.8 17.049 2.7V2.16667C17.0323 2.06667 16.9655 2 16.882 2Z" fill="white"/>
<path d="M2.5 17.4V17.8333C2.5 17.9167 2.56682 18 2.66704 18H17.333C17.4165 18 17.5 17.9333 17.5 17.8333V17.4C17.5 17.3167 17.4332 17.2333 17.333 17.2333H2.66704C2.58352 17.2333 2.5 17.3167 2.5 17.4Z" fill="white"/>
<path d="M13.8586 9.58333C13.8753 9.58333 13.892 9.6 13.892 9.6C13.9254 9.6 13.9421 9.58333 13.9588 9.56667C14.0089 9.48333 14.0089 9.35 13.9588 9.26667C13.9421 9.23333 13.892 9.21667 13.8586 9.23333C13.8252 9.25 13.8085 9.3 13.8252 9.33333C13.8419 9.36667 13.8419 9.43333 13.8252 9.48333C13.8085 9.51667 13.8085 9.56667 13.8586 9.58333Z" fill="white"/>
<path d="M13.2906 9.6C13.3074 9.6 13.3241 9.6 13.3241 9.58333C13.3575 9.56667 13.3742 9.51667 13.3575 9.48333C13.3408 9.45 13.3408 9.38333 13.3575 9.33333C13.3742 9.3 13.3575 9.25 13.3241 9.23333C13.2906 9.21667 13.2405 9.23333 13.2238 9.26667C13.1737 9.35 13.1737 9.48333 13.2238 9.56667C13.2405 9.58333 13.2572 9.6 13.2906 9.6Z" fill="white"/>
<path d="M6.67595 9.58333C6.69265 9.58333 6.69265 9.6 6.70935 9.6C6.74276 9.6 6.75947 9.58333 6.77617 9.56667C6.82628 9.48333 6.82628 9.35 6.77617 9.26667C6.75947 9.23333 6.70935 9.21667 6.67595 9.23333C6.64254 9.25 6.62583 9.3 6.64254 9.33333C6.65924 9.36667 6.65924 9.43333 6.64254 9.48333C6.60913 9.51667 6.62584 9.56667 6.67595 9.58333Z" fill="white"/>
<path d="M6.10802 9.6C6.12472 9.6 6.14143 9.6 6.14143 9.58333C6.17483 9.56667 6.19154 9.51667 6.17483 9.48333C6.15813 9.45 6.15813 9.38333 6.17483 9.33333C6.19154 9.3 6.17483 9.25 6.14143 9.23333C6.10802 9.21667 6.05791 9.23333 6.0412 9.26667C5.99109 9.35 5.99109 9.48333 6.0412 9.56667C6.05791 9.58333 6.07461 9.6 6.10802 9.6Z" fill="white"/>
<path d="M16.882 6.18333H3.11804C3.03452 6.18333 2.951 6.25 2.951 6.35V12.2C2.951 12.2833 3.01782 12.3667 3.11804 12.3667H16.8653C16.9488 12.3667 17.0323 12.3 17.0323 12.2V6.35C17.0323 6.26667 16.9655 6.18333 16.882 6.18333ZM9.19822 6.86667H3.61915V11.7H9.21492V11.8667H3.53563C3.48552 11.8667 3.45212 11.8333 3.45212 11.7833V6.78333C3.45212 6.73333 3.48552 6.7 3.53563 6.7H9.19822V6.86667ZM5.08909 7.85V7.66667H7.71158V7.85H5.08909ZM7.37751 8V10.8833H6.49221V8H7.37751ZM6.32517 8V10.8833H5.43987V8H6.32517ZM10.6347 11.7H9.36526V11.3H10.6347V11.7ZM10.6347 11.1333H9.36526V10.7333H10.6347V11.1333ZM10.6347 10.5833H9.36526V10.1833H10.6347V10.5833ZM10.6347 10.0333H9.36526V9.63333H10.6347V10.0333ZM10.6347 9.46667H9.36526V9.06667H10.6347V9.46667ZM10.6347 8.91667H9.36526V8.51667H10.6347V8.91667ZM10.6347 8.36667H9.36526V7.96667H10.6347V8.36667ZM10.6347 7.81667H9.36526V7.41667H10.6347V7.81667ZM10.6347 7.25H9.36526V6.85H10.6347V7.25ZM16.5479 11.7667C16.5479 11.8167 16.5145 11.85 16.4644 11.85H10.7851V11.6833H16.3808V6.85H10.8018V6.68333H16.4811C16.5312 6.68333 16.5646 6.71667 16.5646 6.76667V11.7667H16.5479ZM12.2717 7.85V7.66667H14.8942V7.85H12.2717ZM14.5601 8V10.8833H13.6748V8H14.5601ZM13.5078 8V10.8833H12.6225V8H13.5078Z" fill="white"/>
</svg>
