<svg width="136" height="209" viewBox="0 0 136 209" fill="none" xmlns="http://www.w3.org/2000/svg">
<g clip-path="url(#clip0_717_8)">
<path opacity="0.1" fill-rule="evenodd" clip-rule="evenodd" d="M147.057 192.485C176.55 184.582 198.219 160.017 202.279 129.903C203.589 120.173 202.968 110.433 200.432 100.966L188.892 57.8994L187.704 57.3446C180.923 54.1934 174.031 50.9665 167.382 47.8553C146.671 38.1539 125.257 28.1294 103.928 18.8194L101.866 17.9268L100.526 19.731C93.4206 29.313 86.2879 38.9625 79.1692 48.6082L90.9196 92.4614L95.0386 88.6026C101.014 83.012 108.388 78.9285 116.344 76.7965C129.32 73.3198 142.873 75.0929 154.511 81.8055C166.148 88.5182 174.462 99.3583 177.936 112.323C181.41 125.288 179.63 138.833 172.908 150.465C166.186 162.097 155.335 170.409 142.359 173.886C130.312 177.114 117.567 175.772 106.483 170.115C95.4713 164.499 86.9519 155.084 82.497 143.632C81.4905 141.056 80.8055 138.5 80.1393 136.014L62.6981 70.922C58.2653 76.9274 53.8709 82.9074 49.5074 88.834L43.587 96.8789L43.715 97.3565L2.80655 108.318C10.7949 97.4756 18.8077 86.6118 26.6163 75.9983C44.8334 51.2595 63.672 25.6918 82.289 0.589903C85.9663 -4.3549 89.9831 -7.35823 94.566 -8.5862C94.805 -8.65024 95.0439 -8.71428 95.2867 -8.76426C99.9325 -9.8134 105.092 -9.05807 111.094 -6.45097C133.492 3.24997 155.992 13.7817 177.733 23.9594C198.614 33.7355 220.217 43.8451 241.731 53.2259C248.011 55.9694 252.142 61.3211 251.779 66.266C251.51 69.8158 248.825 72.4473 244.228 73.679C238.021 75.3121 231.737 76.9958 225.646 78.6128L221.696 79.6713L225.58 94.1673C229.013 106.978 229.856 120.135 228.081 133.303C225.359 153.453 216.906 173.302 204.247 189.205C190.944 205.912 173.944 217.423 155.106 222.47C136.269 227.518 115.791 226.049 95.9167 218.232C78.1143 211.229 61.7872 199.329 49.567 184.538L78.3013 176.838C96.8974 192.932 122.526 199.058 147.057 192.485ZM136.751 152.957C151.99 148.873 161.069 133.162 156.99 117.936C152.91 102.709 137.191 93.6426 121.952 97.7258C106.714 101.809 97.6341 117.52 101.714 132.747C105.794 147.973 121.513 157.04 136.751 152.957Z" fill="#3C8FCA"/>
</g>
<defs>
<clipPath id="clip0_717_8">
<rect width="136" height="209" rx="20" fill="white"/>
</clipPath>
</defs>
</svg>
