<svg width="36" height="36" viewBox="0 0 36 36" fill="none" xmlns="http://www.w3.org/2000/svg">
<rect width="36" height="36" rx="10" fill="white" fill-opacity="0.2"/>
<path d="M18 16.332H18.0083" stroke="white" stroke-width="1.66667" stroke-linecap="round" stroke-linejoin="round"/>
<path d="M18 19.668H18.0083" stroke="white" stroke-width="1.66667" stroke-linecap="round" stroke-linejoin="round"/>
<path d="M18 13H18.0083" stroke="white" stroke-width="1.66667" stroke-linecap="round" stroke-linejoin="round"/>
<path d="M21.334 16.332H21.3423" stroke="white" stroke-width="1.66667" stroke-linecap="round" stroke-linejoin="round"/>
<path d="M21.334 19.668H21.3423" stroke="white" stroke-width="1.66667" stroke-linecap="round" stroke-linejoin="round"/>
<path d="M21.334 13H21.3423" stroke="white" stroke-width="1.66667" stroke-linecap="round" stroke-linejoin="round"/>
<path d="M14.666 16.332H14.6743" stroke="white" stroke-width="1.66667" stroke-linecap="round" stroke-linejoin="round"/>
<path d="M14.666 19.668H14.6743" stroke="white" stroke-width="1.66667" stroke-linecap="round" stroke-linejoin="round"/>
<path d="M14.666 13H14.6743" stroke="white" stroke-width="1.66667" stroke-linecap="round" stroke-linejoin="round"/>
<path d="M15.5 26.3333V23.8333C15.5 23.6123 15.5878 23.4004 15.7441 23.2441C15.9004 23.0878 16.1123 23 16.3333 23H19.6667C19.8877 23 20.0996 23.0878 20.2559 23.2441C20.4122 23.4004 20.5 23.6123 20.5 23.8333V26.3333" stroke="white" stroke-width="1.66667" stroke-linecap="round" stroke-linejoin="round"/>
<path d="M23.0007 9.66797H13.0007C12.0802 9.66797 11.334 10.4142 11.334 11.3346V24.668C11.334 25.5884 12.0802 26.3346 13.0007 26.3346H23.0007C23.9211 26.3346 24.6673 25.5884 24.6673 24.668V11.3346C24.6673 10.4142 23.9211 9.66797 23.0007 9.66797Z" stroke="white" stroke-width="1.66667" stroke-linecap="round" stroke-linejoin="round"/>
</svg>
