<svg width="80" height="80" viewBox="0 0 80 80" fill="none" xmlns="http://www.w3.org/2000/svg">
<g filter="url(#filter0_dd_4656_25018)">
<path d="M12 16C12 8.26801 18.268 2 26 2H54C61.732 2 68 8.26801 68 16V44C68 51.732 61.732 58 54 58H26C18.268 58 12 51.732 12 44V16Z" fill="#3C8FCA" shape-rendering="crispEdges"/>
<path d="M29.5 19.5V38.1667C29.5 38.7855 29.7458 39.379 30.1834 39.8166C30.621 40.2542 31.2145 40.5 31.8333 40.5H50.5" stroke="white" stroke-width="2.33333" stroke-linecap="round" stroke-linejoin="round"/>
<path d="M47 35.8333V26.5" stroke="white" stroke-width="2.33333" stroke-linecap="round" stroke-linejoin="round"/>
<path d="M41.1641 35.8335V21.8335" stroke="white" stroke-width="2.33333" stroke-linecap="round" stroke-linejoin="round"/>
<path d="M35.3359 35.8335V32.3335" stroke="white" stroke-width="2.33333" stroke-linecap="round" stroke-linejoin="round"/>
</g>
<defs>
<filter id="filter0_dd_4656_25018" x="0" y="0" width="80" height="80" filterUnits="userSpaceOnUse" color-interpolation-filters="sRGB">
<feFlood flood-opacity="0" result="BackgroundImageFix"/>
<feColorMatrix in="SourceAlpha" type="matrix" values="0 0 0 0 0 0 0 0 0 0 0 0 0 0 0 0 0 0 127 0" result="hardAlpha"/>
<feMorphology radius="4" operator="erode" in="SourceAlpha" result="effect1_dropShadow_4656_25018"/>
<feOffset dy="4"/>
<feGaussianBlur stdDeviation="3"/>
<feComposite in2="hardAlpha" operator="out"/>
<feColorMatrix type="matrix" values="0 0 0 0 0 0 0 0 0 0 0 0 0 0 0 0 0 0 0.1 0"/>
<feBlend mode="normal" in2="BackgroundImageFix" result="effect1_dropShadow_4656_25018"/>
<feColorMatrix in="SourceAlpha" type="matrix" values="0 0 0 0 0 0 0 0 0 0 0 0 0 0 0 0 0 0 127 0" result="hardAlpha"/>
<feMorphology radius="3" operator="erode" in="SourceAlpha" result="effect2_dropShadow_4656_25018"/>
<feOffset dy="10"/>
<feGaussianBlur stdDeviation="7.5"/>
<feComposite in2="hardAlpha" operator="out"/>
<feColorMatrix type="matrix" values="0 0 0 0 0 0 0 0 0 0 0 0 0 0 0 0 0 0 0.1 0"/>
<feBlend mode="normal" in2="effect1_dropShadow_4656_25018" result="effect2_dropShadow_4656_25018"/>
<feBlend mode="normal" in="SourceGraphic" in2="effect2_dropShadow_4656_25018" result="shape"/>
</filter>
</defs>
</svg>
