<svg width="56" height="56" viewBox="0 0 56 56" fill="none" xmlns="http://www.w3.org/2000/svg">
<path d="M0 14C0 6.26801 6.268 0 14 0H42C49.732 0 56 6.26801 56 14V42C56 49.732 49.732 56 42 56H14C6.268 56 0 49.732 0 42V14Z" fill="#3C8FCA"/>
<path d="M30.334 34.9998V20.9998C30.334 20.381 30.0882 19.7875 29.6506 19.3499C29.213 18.9123 28.6195 18.6665 28.0007 18.6665H18.6673C18.0485 18.6665 17.455 18.9123 17.0174 19.3499C16.5798 19.7875 16.334 20.381 16.334 20.9998V33.8332C16.334 34.1426 16.4569 34.4393 16.6757 34.6581C16.8945 34.8769 17.1912 34.9998 17.5007 34.9998H19.834" stroke="white" stroke-width="2.33333" stroke-linecap="round" stroke-linejoin="round"/>
<path d="M31.5 35H24.5" stroke="white" stroke-width="2.33333" stroke-linecap="round" stroke-linejoin="round"/>
<path d="M36.1673 35.0002H38.5007C38.8101 35.0002 39.1068 34.8772 39.3256 34.6585C39.5444 34.4397 39.6673 34.1429 39.6673 33.8335V29.5752C39.6668 29.3104 39.5763 29.0537 39.4107 28.8472L35.3506 23.7722C35.2415 23.6355 35.1031 23.5252 34.9456 23.4492C34.7881 23.3733 34.6155 23.3337 34.4407 23.3335H30.334" stroke="white" stroke-width="2.33333" stroke-linecap="round" stroke-linejoin="round"/>
<path d="M33.8333 37.3332C35.122 37.3332 36.1667 36.2885 36.1667 34.9998C36.1667 33.7112 35.122 32.6665 33.8333 32.6665C32.5447 32.6665 31.5 33.7112 31.5 34.9998C31.5 36.2885 32.5447 37.3332 33.8333 37.3332Z" stroke="white" stroke-width="2.33333" stroke-linecap="round" stroke-linejoin="round"/>
<path d="M22.1673 37.3332C23.456 37.3332 24.5007 36.2885 24.5007 34.9998C24.5007 33.7112 23.456 32.6665 22.1673 32.6665C20.8787 32.6665 19.834 33.7112 19.834 34.9998C19.834 36.2885 20.8787 37.3332 22.1673 37.3332Z" stroke="white" stroke-width="2.33333" stroke-linecap="round" stroke-linejoin="round"/>
</svg>
