<svg width="20" height="20" viewBox="0 0 20 20" fill="none" xmlns="http://www.w3.org/2000/svg">
<path d="M4.37456 17.5C4.33706 17.5 4.30581 17.5 4.26831 17.5C4.12137 17.0823 3.83134 16.7301 3.44959 16.5057C3.06784 16.2813 2.619 16.1993 2.18258 16.2742C1.74615 16.349 1.3503 16.5759 1.06514 16.9147C0.779978 17.2534 0.623905 17.6822 0.624565 18.125V18.1812C0.417886 18.2562 0.24414 18.4015 0.133698 18.5916C0.0232567 18.7817 -0.0168542 19.0046 0.0203774 19.2213C0.0576091 19.438 0.169815 19.6347 0.337379 19.777C0.504944 19.9194 0.717208 19.9983 0.937065 20H4.37456C4.70609 20 5.02403 19.8683 5.25845 19.6339C5.49287 19.3995 5.62456 19.0815 5.62456 18.75C5.62456 18.4185 5.49287 18.1005 5.25845 17.8661C5.02403 17.6317 4.70609 17.5 4.37456 17.5Z" fill="#69B7AD"/>
<path d="M5.625 1.25H2.5V6.25L5.625 3.75V1.25Z" fill="#D3525A"/>
<path d="M3.4375 1.875H5.625V2.5H3.4375C3.35462 2.5 3.27513 2.46708 3.21653 2.40847C3.15792 2.34987 3.125 2.27038 3.125 2.1875C3.125 2.10462 3.15792 2.02513 3.21653 1.96653C3.27513 1.90792 3.35462 1.875 3.4375 1.875Z" fill="#C64450"/>
<path d="M19.881 8.35938L19.4466 8.89687C19.3256 9.04777 19.1718 9.1692 18.9969 9.25203C18.8221 9.33485 18.6307 9.3769 18.4373 9.375C18.5042 9.3762 18.5698 9.35584 18.6244 9.31694C18.6789 9.27803 18.7195 9.22264 18.7401 9.15892C18.7608 9.0952 18.7604 9.02653 18.7391 8.96303C18.7177 8.89954 18.6766 8.84457 18.6216 8.80625L9.99977 2.1875L1.36852 8.80625C1.31277 8.84498 1.27116 8.90081 1.24996 8.96529C1.22876 9.02977 1.22914 9.0994 1.25102 9.16365C1.27291 9.2279 1.31512 9.28328 1.37128 9.32141C1.42743 9.35954 1.49447 9.37835 1.56227 9.375C1.37038 9.37548 1.18085 9.33275 1.00774 9.24998C0.834624 9.16721 0.682368 9.04652 0.562265 8.89687L0.118515 8.35938C0.0182478 8.21242 -0.0205583 8.03208 0.0103914 7.85689C0.041341 7.68171 0.139591 7.52558 0.28414 7.42188L9.99977 0L19.7154 7.41875C19.8608 7.52251 19.9597 7.67924 19.9906 7.85518C20.0216 8.03112 19.9823 8.21218 19.881 8.35938Z" fill="#E06064"/>
<path d="M18.4372 9.375H1.56222C1.49525 9.3762 1.42967 9.35584 1.37514 9.31694C1.32061 9.27803 1.28003 9.22264 1.25937 9.15892C1.23871 9.0952 1.23908 9.02653 1.26041 8.96303C1.28174 8.89953 1.32291 8.84457 1.37785 8.80625L9.99972 2.1875L18.631 8.80625C18.6867 8.84498 18.7283 8.90081 18.7495 8.96529C18.7707 9.02977 18.7703 9.0994 18.7485 9.16365C18.7266 9.2279 18.6844 9.28328 18.6282 9.32141C18.5721 9.35954 18.505 9.37835 18.4372 9.375Z" fill="#D3525A"/>
<path d="M10 2.1875L2.5 7.9375V18.75H17.5V7.9375L10 2.1875Z" fill="#EDEFF0"/>
<path d="M17.5 7.9375V8.5625L10 2.8125L2.5 8.5625V7.9375L10 2.1875L17.5 7.9375Z" fill="#DBDFE0"/>
<path d="M5 11.25H9.375V18.75H5V11.25Z" fill="#CD945F"/>
<path d="M5.9375 15.625C6.11009 15.625 6.25 15.4851 6.25 15.3125C6.25 15.1399 6.11009 15 5.9375 15C5.76491 15 5.625 15.1399 5.625 15.3125C5.625 15.4851 5.76491 15.625 5.9375 15.625Z" fill="#EDEFF0"/>
<path d="M1.875 19.375H18.125V20H1.875V19.375Z" fill="#CD945F"/>
<path d="M13.125 11.25H15V13.125H13.125V11.25Z" fill="#4CB8D9"/>
<path d="M10.625 11.25H12.5V13.125H10.625V11.25Z" fill="#4CB8D9"/>
<path d="M13.125 13.75H15V15.625H13.125V13.75Z" fill="#4CB8D9"/>
<path d="M10.625 13.75H12.5V15.625H10.625V13.75Z" fill="#4CB8D9"/>
<path d="M10.625 11.25H12.5V11.875H10.625V11.25Z" fill="#33A6D1"/>
<path d="M13.125 11.25H15V11.875H13.125V11.25Z" fill="#33A6D1"/>
<path d="M10.625 13.75H12.5V14.375H10.625V13.75Z" fill="#33A6D1"/>
<path d="M13.125 13.75H15V14.375H13.125V13.75Z" fill="#33A6D1"/>
<path d="M5 11.25H9.375V11.875H5V11.25Z" fill="#BB8755"/>
<path d="M2.5 18.75H17.5V19.375H2.5V18.75Z" fill="#BB8755"/>
<path d="M18.7496 17.5C18.7121 17.5 18.6808 17.5 18.6433 17.5C18.4964 17.0823 18.2063 16.7301 17.8246 16.5057C17.4428 16.2813 16.994 16.1993 16.5576 16.2742C16.1212 16.349 15.7253 16.5759 15.4401 16.9147C15.155 17.2534 14.9989 17.6822 14.9996 18.125V18.1812C14.7929 18.2562 14.6191 18.4015 14.5087 18.5916C14.3983 18.7817 14.3581 19.0046 14.3954 19.2213C14.4326 19.438 14.5448 19.6347 14.7124 19.777C14.8799 19.9194 15.0922 19.9983 15.3121 20H18.7496C19.0811 20 19.399 19.8683 19.6334 19.6339C19.8679 19.3995 19.9996 19.0815 19.9996 18.75C19.9996 18.4185 19.8679 18.1005 19.6334 17.8661C19.399 17.6317 19.0811 17.5 18.7496 17.5Z" fill="#69B7AD"/>
</svg>
