<svg width="56" height="56" viewBox="0 0 56 56" fill="none" xmlns="http://www.w3.org/2000/svg">
<path d="M0 14C0 6.26801 6.268 0 14 0H42C49.732 0 56 6.26801 56 14V42C56 49.732 49.732 56 42 56H14C6.268 56 0 49.732 0 42V14Z" fill="#3C8FCA"/>
<path d="M32.6693 37.3335V18.6668C32.6693 18.048 32.4234 17.4545 31.9859 17.0169C31.5483 16.5793 30.9548 16.3335 30.3359 16.3335H25.6693C25.0504 16.3335 24.4569 16.5793 24.0194 17.0169C23.5818 17.4545 23.3359 18.048 23.3359 18.6668V37.3335" stroke="white" stroke-width="2.33333" stroke-linecap="round" stroke-linejoin="round"/>
<path d="M37.3359 21H18.6693C17.3806 21 16.3359 22.0447 16.3359 23.3333V35C16.3359 36.2887 17.3806 37.3333 18.6693 37.3333H37.3359C38.6246 37.3333 39.6693 36.2887 39.6693 35V23.3333C39.6693 22.0447 38.6246 21 37.3359 21Z" stroke="white" stroke-width="2.33333" stroke-linecap="round" stroke-linejoin="round"/>
</svg>
