<svg width="20" height="20" viewBox="0 0 20 20" fill="none" xmlns="http://www.w3.org/2000/svg">
<path d="M13.0758 4.96L11.6433 9.72H2.96176L3.57692 5.4416C3.61735 5.1672 3.85995 4.96 4.14876 4.96H5.09316C5.09027 4.9936 5.09027 5.03 5.09027 5.0636C5.09027 7.7068 7.29676 9.0256 7.39207 9.0788L7.68954 9.2524L7.98701 9.0788C8.08232 9.0256 10.2888 7.7068 10.2888 5.0636C10.2888 5.03 10.2888 4.9936 10.2859 4.96H13.0758Z" fill="white"/>
<path d="M17.9942 16.3616L17.2808 11.4H12.9429L11.2563 17H17.4224C17.7747 17 18.0433 16.7004 17.9942 16.3616Z" fill="white"/>
<path d="M17.0382 9.72L16.4231 5.4416C16.3826 5.1672 16.1401 4.96 15.8512 4.96H14.8808L13.4484 9.72H17.0382Z" fill="white"/>
<path d="M2.71916 11.4L2.0058 16.3616C1.95671 16.7004 2.2253 17 2.57764 17H9.45126L11.1379 11.4H2.71916Z" fill="white"/>
<path d="M7.68954 3C6.57185 3 5.66788 3.924 5.66788 5.0636C5.66788 7.4212 7.68954 8.6 7.68954 8.6C7.68954 8.6 9.71119 7.4212 9.71119 5.0636C9.71119 3.924 8.80722 3 7.68954 3ZM7.68954 5.8C7.21012 5.8 6.82312 5.4248 6.82312 4.96C6.82312 4.4952 7.21012 4.12 7.68954 4.12C8.16896 4.12 8.55596 4.4952 8.55596 4.96C8.55596 5.4248 8.16896 5.8 7.68954 5.8Z" fill="white"/>
</svg>
