<svg width="20" height="17" viewBox="0 0 20 17" fill="none" xmlns="http://www.w3.org/2000/svg">
<path d="M7.57497 4.76762C7.7451 4.76762 7.85375 4.6747 7.85375 4.61075C7.85375 4.5468 7.7451 4.45388 7.57497 4.45388C7.40468 4.45388 7.29604 4.5468 7.29604 4.61075C7.29604 4.6747 7.40468 4.76762 7.57497 4.76762Z" fill="white"/>
<path d="M12.4258 7.25464C12.2556 7.25464 12.147 7.34756 12.147 7.41151C12.147 7.4756 12.2556 7.56852 12.4258 7.56852C12.596 7.56852 12.7047 7.4756 12.7047 7.41151C12.7047 7.34756 12.596 7.25464 12.4258 7.25464Z" fill="white"/>
<path d="M8.27447 7.64313C8.27804 7.64069 8.28067 7.63731 8.28435 7.635L14.1821 3.94829L13.2555 3.42185L5.81754 8.0739L6.74404 8.60032L8.27447 7.64313Z" fill="white"/>
<path d="M13.0984 5.36363L9.06165 7.88772L11.9486 9.52758C12.215 9.37766 12.5164 9.3012 12.822 9.30601C13.1066 9.30397 13.3875 9.37044 13.641 9.4998L16.1529 7.92755C16.0815 7.78952 16.0441 7.63646 16.0438 7.48108C16.0441 7.34472 16.0735 7.21 16.13 7.08588L13.0984 5.36363ZM12.4258 8.1932C12.2025 8.20791 11.9825 8.13407 11.8134 7.9877C11.6442 7.84133 11.5395 7.63421 11.522 7.4112C11.5536 7.19403 11.6623 6.9955 11.8283 6.85193C11.9943 6.70835 12.2064 6.62934 12.4258 6.62934C12.6453 6.62934 12.8574 6.70835 13.0234 6.85193C13.1894 6.9955 13.2981 7.19403 13.3297 7.4112C13.3121 7.63422 13.2074 7.84135 13.0382 7.98771C12.869 8.13408 12.649 8.20791 12.4258 8.1932Z" fill="white"/>
<path d="M12.8493 12.0222C12.9078 12.0222 12.9652 12.0058 13.0148 11.9748L19.853 7.7008C19.8989 7.67214 19.9366 7.63204 19.9623 7.58444C19.9881 7.53683 20.0011 7.48335 19.9999 7.42924C19.9988 7.37512 19.9837 7.32223 19.9559 7.27573C19.9282 7.22924 19.8889 7.19074 19.8419 7.16401L14.7997 4.29919L13.7001 4.98692L16.7325 6.7096C16.7743 6.73337 16.8101 6.76648 16.837 6.80635C16.864 6.84622 16.8813 6.89178 16.8878 6.93947C16.8942 6.98716 16.8896 7.03569 16.8742 7.08128C16.8588 7.12687 16.833 7.16829 16.799 7.20231C16.7203 7.27443 16.6735 7.37478 16.6687 7.48138C16.6714 7.5392 16.686 7.59583 16.7117 7.6477C16.7374 7.69957 16.7736 7.74555 16.8179 7.78274C16.8533 7.81532 16.8806 7.85561 16.8979 7.90048C16.9152 7.94536 16.9218 7.99361 16.9174 8.04148C16.913 8.08936 16.8976 8.13556 16.8724 8.17651C16.8472 8.21746 16.8129 8.25205 16.7721 8.27758L13.8065 10.1338C13.7525 10.1676 13.6895 10.1841 13.6259 10.1811C13.5623 10.1781 13.5011 10.1558 13.4506 10.117C13.2657 9.9907 13.0458 9.92574 12.8219 9.93131C12.5868 9.92235 12.3558 9.99449 12.1675 10.1356C12.1187 10.1769 12.0583 10.2022 11.9946 10.2081C11.931 10.2141 11.867 10.2003 11.8114 10.1687L8.45928 8.26473L7.36167 8.95121L12.6948 11.9815C12.7419 12.0082 12.7951 12.0222 12.8493 12.0222Z" fill="white"/>
<path d="M3.26771 5.31566C3.22613 5.29206 3.19051 5.25923 3.16361 5.2197C3.13671 5.18016 3.11924 5.13499 3.11255 5.08764C3.10585 5.04029 3.11012 4.99204 3.12501 4.9466C3.1399 4.90117 3.16502 4.85975 3.19844 4.82555C3.24143 4.78918 3.27569 4.7436 3.29867 4.6922C3.32165 4.64079 3.33277 4.58487 3.3312 4.52858C3.32963 4.47229 3.31542 4.41708 3.28961 4.36703C3.2638 4.31698 3.22706 4.27338 3.18211 4.23946C3.14677 4.2069 3.1194 4.16663 3.10215 4.12178C3.08489 4.07692 3.07822 4.0287 3.08263 3.98084C3.08704 3.93299 3.10243 3.88679 3.1276 3.84585C3.15276 3.80491 3.18703 3.77032 3.22774 3.74478L6.19967 1.88229C6.25285 1.8489 6.31486 1.83232 6.3776 1.83472C6.44035 1.83711 6.50091 1.85838 6.55138 1.89573C6.74524 2.01135 6.96738 2.07092 7.19308 2.06779C7.41877 2.06467 7.63918 1.99898 7.82976 1.87803C7.87859 1.83903 7.93799 1.81554 8.00029 1.81059C8.06259 1.80564 8.12495 1.81946 8.17933 1.85026L11.5393 3.75826L12.6381 3.07097L7.30516 0.0408845C7.25619 0.0129913 7.20058 -0.00111378 7.14424 6.86836e-05C7.0879 0.00125115 7.03294 0.017677 6.98518 0.0476001L0.147007 4.3214C0.101094 4.35007 0.0634125 4.39016 0.0376543 4.43777C0.0118961 4.48537 -0.00105579 4.53885 6.72913e-05 4.59297C0.00119037 4.64708 0.0163499 4.69998 0.044061 4.74647C0.0717721 4.79297 0.111085 4.83147 0.158148 4.8582L5.20015 7.72302L6.29839 7.03611L3.26771 5.31566Z" fill="white"/>
<path d="M6.89868 6.65824L10.9367 4.13493L8.03774 2.48865C7.78001 2.62105 7.49525 2.69228 7.20554 2.69684C6.91584 2.70139 6.62898 2.63914 6.36722 2.5149L3.84724 4.09433C3.91859 4.23236 3.95599 4.38542 3.95634 4.5408C3.95582 4.67806 3.92601 4.81362 3.8689 4.93844L6.89868 6.65824ZM7.57495 3.82913C7.79814 3.81442 8.01814 3.88823 8.1873 4.03458C8.35646 4.18092 8.46116 4.38801 8.47872 4.611C8.46116 4.83398 8.35646 5.04108 8.1873 5.18742C8.01814 5.33376 7.79814 5.40757 7.57495 5.39287C7.35174 5.40758 7.13171 5.33377 6.96253 5.18743C6.79335 5.04109 6.68862 4.834 6.67102 4.611C6.68862 4.388 6.79335 4.1809 6.96253 4.03456C7.13171 3.88822 7.35174 3.81442 7.57495 3.82913Z" fill="white"/>
<path d="M0 6.39722L5.19996 9.35345V8.44096L0 5.48473V6.39722Z" fill="white"/>
<path d="M0 8.00971L5.19996 10.9659V10.0722L0 7.11597V8.00971Z" fill="white"/>
<path d="M1.27482e-06 9.44056C-0.000157636 9.49598 0.0145428 9.55044 0.0425723 9.59825C0.0706018 9.64607 0.110936 9.6855 0.159375 9.71243L5.19996 12.578V11.6843L1.27482e-06 8.73119V9.44056Z" fill="white"/>
<path d="M5.82633 12.9322L6.74507 13.4544V9.31814L5.82633 8.79564V12.9322Z" fill="white"/>
<path d="M12.8499 12.6472C12.6877 12.6479 12.5282 12.6059 12.3874 12.5253L7.3687 9.6722V10.5847L12.8437 13.6972L19.9999 9.2222V8.34721L13.3468 12.5034C13.1979 12.597 13.0257 12.6468 12.8499 12.6472Z" fill="white"/>
<path d="M12.8499 14.3722C12.7961 14.3728 12.7432 14.3587 12.6968 14.3315L7.3687 11.3034V12.1972L12.8437 15.3065L19.9999 10.8347V9.9597L13.0155 14.3253C12.9657 14.3559 12.9084 14.3721 12.8499 14.3722Z" fill="white"/>
<path d="M12.8499 15.9843C12.7961 15.9849 12.7432 15.9708 12.6968 15.9436L7.3687 12.9155V13.8093L12.6937 16.8343C12.743 16.8619 12.7989 16.8759 12.8554 16.8748C12.912 16.8737 12.9673 16.8576 13.0155 16.828L19.853 12.553C19.898 12.5249 19.9352 12.4858 19.9609 12.4393C19.9866 12.3928 20 12.3405 19.9999 12.2874V11.5718L13.0155 15.9374C12.9657 15.968 12.9084 15.9842 12.8499 15.9843Z" fill="white"/>
</svg>
