<svg width="40" height="40" viewBox="0 0 40 40" fill="none" xmlns="http://www.w3.org/2000/svg">
<path fill-rule="evenodd" clip-rule="evenodd" d="M39.3125 35.959L28.9708 25.6172C33.6357 19.3297 33.1196 10.4054 27.4173 4.70552C21.1459 -1.56851 10.977 -1.56851 4.70552 4.70552C-1.56851 10.977 -1.56851 21.1459 4.70552 27.4173C10.4054 33.1194 19.3297 33.6357 25.6172 28.9708L35.959 39.3125C36.4043 39.7541 37.0065 40.0013 37.6337 40C38.2609 39.9987 38.862 39.7489 39.3055 39.3055C39.7489 38.862 39.9987 38.2609 40 37.6337C40.0013 37.0065 39.7541 36.4043 39.3125 35.959ZM24.0638 24.0638C22.4811 25.6465 20.4646 26.7244 18.2693 27.1611C16.074 27.5978 13.7985 27.3736 11.7306 26.5171C9.66264 25.6605 7.89515 24.21 6.65161 22.3489C5.40807 20.4878 4.74433 18.2998 4.74433 16.0615C4.74433 13.8232 5.40807 11.6351 6.65161 9.77403C7.89515 7.91294 9.66264 6.4624 11.7306 5.60584C13.7985 4.74928 16.074 4.52517 18.2693 4.96185C20.4646 5.39853 22.4811 6.47639 24.0638 8.05912C26.1856 10.1818 27.3775 13.0602 27.3775 16.0615C27.3775 19.0627 26.1856 21.9412 24.0638 24.0638Z" fill="white"/>
</svg>
