<svg width="36" height="36" viewBox="0 0 36 36" fill="none" xmlns="http://www.w3.org/2000/svg">
<rect width="36" height="36" rx="10" fill="white" fill-opacity="0.2"/>
<path d="M17.6342 10.7235C17.6702 10.6582 17.723 10.6037 17.7872 10.5658C17.8514 10.5278 17.9246 10.5078 17.9992 10.5078C18.0738 10.5078 18.147 10.5278 18.2112 10.5658C18.2754 10.6037 18.3282 10.6582 18.3642 10.7235L20.8242 15.3935C20.8829 15.5017 20.9648 15.5955 21.064 15.6682C21.1632 15.7409 21.2773 15.7908 21.398 15.8142C21.5188 15.8377 21.6433 15.834 21.7625 15.8037C21.8817 15.7733 21.9927 15.7169 22.0875 15.6385L25.6517 12.5852C25.7201 12.5295 25.8044 12.497 25.8925 12.4924C25.9806 12.4877 26.0679 12.5111 26.1418 12.5591C26.2157 12.6072 26.2725 12.6775 26.3039 12.7599C26.3354 12.8423 26.3398 12.9326 26.3167 13.0177L23.955 21.556C23.9068 21.7307 23.803 21.885 23.6592 21.9954C23.5155 22.1057 23.3396 22.1662 23.1584 22.1677H12.8409C12.6595 22.1664 12.4835 22.106 12.3395 21.9956C12.1956 21.8852 12.0916 21.7309 12.0434 21.556L9.68255 13.0185C9.65942 12.9334 9.6639 12.8432 9.69533 12.7608C9.72676 12.6784 9.78353 12.6081 9.85746 12.56C9.9314 12.5119 10.0187 12.4885 10.1067 12.4932C10.1948 12.4979 10.2791 12.5304 10.3475 12.586L13.9109 15.6393C14.0057 15.7177 14.1167 15.7741 14.2359 15.8045C14.3551 15.8349 14.4796 15.8385 14.6004 15.8151C14.7212 15.7916 14.8352 15.7418 14.9345 15.669C15.0337 15.5963 15.1156 15.5025 15.1742 15.3944L17.6342 10.7235Z" stroke="white" stroke-width="1.66667" stroke-linecap="round" stroke-linejoin="round"/>
<path d="M12.166 25.5H23.8327" stroke="white" stroke-width="1.66667" stroke-linecap="round" stroke-linejoin="round"/>
</svg>
