<svg width="36" height="36" viewBox="0 0 36 36" fill="none" xmlns="http://www.w3.org/2000/svg">
<rect width="36" height="36" rx="10" fill="white" fill-opacity="0.2"/>
<path d="M20.5 25.5V18.8333C20.5 18.6123 20.4122 18.4004 20.2559 18.2441C20.0996 18.0878 19.8877 18 19.6667 18H16.3333C16.1123 18 15.9004 18.0878 15.7441 18.2441C15.5878 18.4004 15.5 18.6123 15.5 18.8333V25.5" stroke="white" stroke-width="1.66667" stroke-linecap="round" stroke-linejoin="round"/>
<path d="M10.5 16.335C10.4999 16.0926 10.5528 15.8531 10.6548 15.6331C10.7569 15.4132 10.9057 15.2182 11.0908 15.0617L16.9242 10.0617C17.225 9.80746 17.6061 9.66797 18 9.66797C18.3939 9.66797 18.775 9.80746 19.0758 10.0617L24.9092 15.0617C25.0943 15.2182 25.2431 15.4132 25.3452 15.6331C25.4472 15.8531 25.5001 16.0926 25.5 16.335V23.835C25.5 24.2771 25.3244 24.701 25.0118 25.0135C24.6993 25.3261 24.2754 25.5017 23.8333 25.5017H12.1667C11.7246 25.5017 11.3007 25.3261 10.9882 25.0135C10.6756 24.701 10.5 24.2771 10.5 23.835V16.335Z" stroke="white" stroke-width="1.66667" stroke-linecap="round" stroke-linejoin="round"/>
</svg>
