<svg width="20" height="20" viewBox="0 0 20 20" fill="none" xmlns="http://www.w3.org/2000/svg">
<g clip-path="url(#clip0_5144_25990)">
<path d="M11.528 13.8067C11.7001 13.8857 11.894 13.9038 12.0777 13.8579C12.2615 13.812 12.4241 13.7049 12.5388 13.5542L12.8346 13.1667C12.9899 12.9597 13.1912 12.7917 13.4226 12.676C13.654 12.5602 13.9092 12.5 14.168 12.5H16.668C17.11 12.5 17.5339 12.6756 17.8465 12.9882C18.159 13.3007 18.3346 13.7246 18.3346 14.1667V16.6667C18.3346 17.1087 18.159 17.5326 17.8465 17.8452C17.5339 18.1577 17.11 18.3333 16.668 18.3333C12.6897 18.3333 8.87441 16.753 6.06137 13.9399C3.24832 11.1269 1.66797 7.31159 1.66797 3.33334C1.66797 2.89131 1.84356 2.46739 2.15612 2.15483C2.46868 1.84227 2.89261 1.66667 3.33464 1.66667H5.83464C6.27666 1.66667 6.70059 1.84227 7.01315 2.15483C7.32571 2.46739 7.5013 2.89131 7.5013 3.33334V5.83334C7.5013 6.09208 7.44106 6.34727 7.32535 6.57869C7.20963 6.81012 7.04163 7.01143 6.83464 7.16667L6.44464 7.45917C6.29165 7.57599 6.18382 7.74216 6.13946 7.92946C6.0951 8.11677 6.11695 8.31365 6.2013 8.48667C7.3402 10.7999 9.21332 12.6707 11.528 13.8067Z" stroke="#99A1AF" stroke-width="1.5" stroke-linecap="round" stroke-linejoin="round"/>
</g>
<defs>
<clipPath id="clip0_5144_25990">
<rect width="20" height="20" fill="white"/>
</clipPath>
</defs>
</svg>
