<svg width="20" height="20" viewBox="0 0 20 20" fill="none" xmlns="http://www.w3.org/2000/svg">
<g clip-path="url(#clip0_4832_94249)">
<path d="M11.6731 1.65881V18.3379H1.28809V1.65881H11.6731Z" fill="#F8EC7D"/>
<path d="M16.2875 5.02704V18.3379H7.93652V5.02704H16.2875Z" fill="#F5F5F5"/>
<path d="M5.92293 5.02702H2.4034V3.69257H5.92293V5.02702ZM3.95539 6.42339H2.40332V7.7578H3.95539V6.42339ZM3.95539 9.15421H2.40332V10.4887H3.95539V9.15421ZM3.95539 11.885H2.40332V13.2194H3.95539V11.885ZM3.95539 14.6158H2.40332V15.9503H3.95539V14.6158ZM6.69898 6.42339H5.14691V7.7578H6.69898V6.42339ZM6.69898 9.15421H5.14691V10.4887H6.69898V9.15421ZM6.69898 11.885H5.14691V13.2194H6.69898V11.885ZM6.69898 14.6158H5.14691V15.9503H6.69898V14.6158Z" fill="#4DA6FF"/>
<path d="M11.155 7.75782H8.85742V6.4234H11.155V7.75782ZM10.2926 9.15418H8.85742V10.4887H10.2926V9.15418ZM10.2926 11.885H8.85742V13.2194H10.2926V11.885ZM10.2926 14.6158H8.85742V15.9502H10.2926V14.6158ZM12.8296 9.15418H11.3944V10.4887H12.8296L12.8296 9.15418ZM12.8296 11.885H11.3944V13.2194H12.8296L12.8296 11.885ZM12.8296 14.6158H11.3944V15.9502H12.8296L12.8296 14.6158Z" fill="#4DA6FF"/>
<path d="M18.7309 7.74219V18.3379H12.7432V7.74219H18.7309Z" fill="#FF5959"/>
<path d="M13.4491 7.74219V18.3379H12.7432V7.74219H13.4491Z" fill="#E63A57"/>
<path d="M8.67734 5.02704V18.3379H7.93652V5.02704H8.67734Z" fill="#E6E6E6"/>
<path d="M2.06492 1.66211V18.3379H1.28809V1.66211H2.06492Z" fill="#D7BE69"/>
<path d="M15.1606 10.4887H13.7256V9.15424H15.1606V10.4887ZM15.1606 11.885H13.7256V13.2195H15.1606V11.885ZM15.1606 14.6158H13.7256V15.9503H15.1606V14.6158ZM17.6976 9.15424H16.2626V10.4887H17.6978L17.6976 9.15424ZM17.6976 11.885H16.2626V13.2195H17.6978L17.6976 11.885ZM17.6976 14.6158H16.2626V15.9503H17.6978L17.6976 14.6158Z" fill="#4DA6FF"/>
<path d="M19.4843 19.0047C19.4843 19.1816 19.4141 19.3512 19.289 19.4762C19.164 19.6013 18.9944 19.6715 18.8176 19.6715H1.18224C1.00627 19.6702 0.837972 19.5993 0.714019 19.4744C0.590065 19.3495 0.520508 19.1807 0.520508 19.0047C0.520508 18.8287 0.590065 18.6599 0.714019 18.535C0.837972 18.4101 1.00627 18.3392 1.18224 18.3379H18.8177C18.9945 18.3379 19.1641 18.4082 19.2891 18.5333C19.4141 18.6583 19.4843 18.8279 19.4843 19.0047Z" fill="#434343"/>
<path d="M19.4833 18.9777C19.4837 18.9867 19.4847 18.9956 19.4847 19.0048C19.4847 19.1816 19.4144 19.3512 19.2894 19.4762C19.1643 19.6013 18.9947 19.6716 18.8179 19.6716H1.18242C1.00558 19.6716 0.835974 19.6013 0.710925 19.4762C0.585877 19.3512 0.515625 19.1816 0.515625 19.0048C0.515625 18.9956 0.516602 18.9867 0.516992 18.9777C0.645274 19.101 0.816446 19.1697 0.994375 19.1691H19.0061C19.184 19.1696 19.3551 19.101 19.4833 18.9777Z" fill="#434343"/>
<path d="M12.4455 0.995288C12.4455 1.08285 12.4282 1.16956 12.3947 1.25046C12.3612 1.33136 12.3121 1.40487 12.2502 1.46678C12.1882 1.5287 12.1147 1.57782 12.0338 1.61133C11.9529 1.64484 11.8662 1.66208 11.7787 1.66208H1.18242C1.00558 1.66208 0.835974 1.59183 0.710925 1.46678C0.585877 1.34174 0.515625 1.17213 0.515625 0.995288C0.515625 0.818443 0.585877 0.64884 0.710925 0.523791C0.835974 0.398743 1.00558 0.328491 1.18242 0.328491H11.7787C11.9556 0.328522 12.1252 0.398786 12.2502 0.523831C12.3752 0.648875 12.4455 0.818459 12.4455 0.995288Z" fill="#68544F"/>
<path d="M12.445 0.987C12.445 0.989773 12.4454 0.992468 12.4454 0.995281C12.4454 1.08285 12.4281 1.16956 12.3946 1.25046C12.3611 1.33136 12.312 1.40487 12.2501 1.46679C12.1882 1.52871 12.1146 1.57782 12.0337 1.61133C11.9528 1.64484 11.8661 1.66208 11.7786 1.66208H1.18227C1.00544 1.66205 0.835876 1.59178 0.710859 1.46673C0.585842 1.34169 0.515615 1.1721 0.515625 0.995281C0.515625 0.992468 0.516016 0.989773 0.516055 0.987C0.581156 1.0576 0.660227 1.11389 0.748247 1.15229C0.836267 1.1907 0.931311 1.21038 1.02734 1.21009H11.9336C12.0296 1.21038 12.1247 1.19071 12.2127 1.1523C12.3008 1.1139 12.3798 1.0576 12.445 0.987Z" fill="#53433F"/>
<path d="M16.9541 4.36028C16.9541 4.44784 16.9369 4.53455 16.9034 4.61546C16.8699 4.69636 16.8208 4.76987 16.7589 4.83179C16.6969 4.89371 16.6234 4.94282 16.5425 4.97633C16.4616 5.00984 16.3749 5.02708 16.2873 5.02708H7.93633C7.75948 5.02708 7.58988 4.95682 7.46483 4.83177C7.33978 4.70673 7.26953 4.53712 7.26953 4.36028C7.26953 4.18343 7.33978 4.01383 7.46483 3.88878C7.58988 3.76373 7.75948 3.69348 7.93633 3.69348H16.2873C16.3749 3.69348 16.4616 3.71072 16.5425 3.74423C16.6234 3.77774 16.6969 3.82685 16.7589 3.88877C16.8208 3.95069 16.8699 4.0242 16.9034 4.1051C16.9369 4.186 16.9541 4.27271 16.9541 4.36028Z" fill="#68544F"/>
<path d="M16.9518 4.31396C16.9529 4.32932 16.9541 4.34463 16.9541 4.36025C16.9541 4.5371 16.8839 4.7067 16.7588 4.83175C16.6338 4.9568 16.4642 5.02705 16.2873 5.02705H7.93633C7.75949 5.02704 7.58989 4.95679 7.46484 4.83174C7.3398 4.70669 7.26954 4.5371 7.26953 4.36025C7.26953 4.34463 7.27082 4.32932 7.27187 4.31396C7.40439 4.44446 7.58312 4.51726 7.7691 4.5165H16.4546C16.6406 4.51725 16.8193 4.44445 16.9518 4.31396Z" fill="#53433F"/>
<path d="M19.3975 7.07535C19.3975 7.16292 19.3803 7.24963 19.3468 7.33054C19.3132 7.41145 19.2641 7.48496 19.2022 7.54688C19.1403 7.60881 19.0668 7.65793 18.9859 7.69145C18.905 7.72497 18.8183 7.74222 18.7307 7.74222H12.6922C12.5153 7.74222 12.3457 7.67197 12.2207 7.54692C12.0956 7.42188 12.0254 7.25227 12.0254 7.07543C12.0254 6.89858 12.0956 6.72898 12.2207 6.60393C12.3457 6.47888 12.5153 6.40863 12.6922 6.40863H18.7307C18.9075 6.40863 19.0771 6.47887 19.2022 6.6039C19.3272 6.72893 19.3975 6.89852 19.3975 7.07535Z" fill="#68544F"/>
<path d="M19.3968 7.0824C19.395 7.25798 19.324 7.42576 19.1992 7.5493C19.0744 7.67284 18.9059 7.74216 18.7304 7.7422H12.6918C12.5163 7.74218 12.3478 7.67288 12.223 7.54935C12.0982 7.42583 12.0272 7.25805 12.0254 7.08248C12.0923 7.15375 12.1731 7.21047 12.2629 7.24909C12.3527 7.28771 12.4495 7.3074 12.5472 7.30693H18.8749C18.9726 7.30738 19.0694 7.28768 19.1592 7.24905C19.249 7.21041 19.3299 7.15368 19.3968 7.0824Z" fill="#53433F"/>
</g>
<defs>
<clipPath id="clip0_4832_94249">
<rect width="20" height="20" fill="white"/>
</clipPath>
</defs>
</svg>
