<svg width="20" height="20" viewBox="0 0 20 20" fill="none" xmlns="http://www.w3.org/2000/svg">
<g clip-path="url(#clip0_4832_94088)">
<path d="M3.61438 17.4459C3.31741 17.4471 3.03015 17.5517 2.80201 17.7419C2.57387 17.932 2.41912 18.1956 2.36438 18.4875C2.25628 18.4354 2.13778 18.4083 2.01776 18.4084C1.89773 18.4085 1.77928 18.4358 1.67128 18.4882C1.56327 18.5405 1.46852 18.6167 1.3941 18.7108C1.31967 18.805 1.26752 18.9148 1.24153 19.032C1.21555 19.1491 1.2164 19.2707 1.24404 19.3875C1.27167 19.5043 1.32537 19.6133 1.40111 19.7064C1.47685 19.7996 1.57267 19.8743 1.6814 19.9252C1.79013 19.976 1.90895 20.0016 2.02896 20H3.61438C3.95308 20 4.27792 19.8655 4.51742 19.626C4.75691 19.3865 4.89146 19.0616 4.89146 18.7229C4.89146 18.3842 4.75691 18.0594 4.51742 17.8199C4.27792 17.5804 3.95308 17.4459 3.61438 17.4459Z" fill="#2AC58F"/>
<path d="M16.3855 17.4459C16.6825 17.4471 16.9697 17.5517 17.1979 17.7419C17.426 17.932 17.5807 18.1956 17.6355 18.4875C17.7436 18.4354 17.8621 18.4083 17.9821 18.4084C18.1021 18.4085 18.2206 18.4358 18.3286 18.4882C18.4366 18.5405 18.5313 18.6167 18.6058 18.7108C18.6802 18.805 18.7323 18.9148 18.7583 19.032C18.7843 19.1491 18.7835 19.2707 18.7558 19.3875C18.7282 19.5043 18.6745 19.6133 18.5988 19.7064C18.523 19.7996 18.4272 19.8743 18.3185 19.9252C18.2097 19.976 18.0909 20.0016 17.9709 20H16.3855C16.0468 20 15.7219 19.8655 15.4824 19.626C15.2429 19.3865 15.1084 19.0616 15.1084 18.7229C15.1084 18.3842 15.2429 18.0594 15.4824 17.8199C15.7219 17.5804 16.0468 17.4459 16.3855 17.4459Z" fill="#2AC58F"/>
<path d="M3.61426 1.64374H16.3872V20H3.61426V1.64374Z" fill="#DEEAFF"/>
<path d="M15.2333 4.50623H4.76667C4.63665 4.50623 4.53125 4.61163 4.53125 4.74164V16.1271C4.53125 16.2571 4.63665 16.3625 4.76667 16.3625H15.2333C15.3634 16.3625 15.4688 16.2571 15.4688 16.1271V4.74164C15.4688 4.61163 15.3634 4.50623 15.2333 4.50623Z" fill="#FCFFFF"/>
<path d="M14.8528 11.0667H11.134C11.0627 11.0667 11.0049 11.1245 11.0049 11.1959V11.8459C11.0049 11.9172 11.0627 11.975 11.134 11.975H14.8528C14.9241 11.975 14.982 11.9172 14.982 11.8459V11.1959C14.982 11.1245 14.9241 11.0667 14.8528 11.0667Z" fill="#DEEAFF"/>
<path d="M9.06276 11.0667H5.34401C5.27267 11.0667 5.21484 11.1245 5.21484 11.1959V11.8459C5.21484 11.9172 5.27267 11.975 5.34401 11.975H9.06276C9.1341 11.975 9.19193 11.9172 9.19193 11.8459V11.1959C9.19193 11.1245 9.1341 11.0667 9.06276 11.0667Z" fill="#DEEAFF"/>
<path d="M14.8528 6.03961H11.134C11.0627 6.03961 11.0049 6.09744 11.0049 6.16878V6.81878C11.0049 6.89012 11.0627 6.94794 11.134 6.94794H14.8528C14.9241 6.94794 14.982 6.89012 14.982 6.81878V6.16878C14.982 6.09744 14.9241 6.03961 14.8528 6.03961Z" fill="#DEEAFF"/>
<path d="M9.06276 6.03961H5.34401C5.27267 6.03961 5.21484 6.09744 5.21484 6.16878V6.81878C5.21484 6.89012 5.27267 6.94794 5.34401 6.94794H9.06276C9.1341 6.94794 9.19193 6.89012 9.19193 6.81878V6.16878C9.19193 6.09744 9.1341 6.03961 9.06276 6.03961Z" fill="#DEEAFF"/>
<path d="M14.8518 16.3625H11.1331C11.0617 16.3625 11.0039 16.4203 11.0039 16.4917V17.1417C11.0039 17.213 11.0617 17.2708 11.1331 17.2708H14.8518C14.9232 17.2708 14.981 17.213 14.981 17.1417V16.4917C14.981 16.4203 14.9232 16.3625 14.8518 16.3625Z" fill="#C5D1FF"/>
<path d="M3.61426 1.64374H16.3872V3.47082H3.61426V1.64374Z" fill="#CAC7FF"/>
<path d="M3.61426 17.9916H16.3872V20H3.61426V17.9916Z" fill="#FFAB8A"/>
<path d="M3.05859 0H16.9398V1.64375H3.05859V0Z" fill="#FF974E"/>
<path d="M3.05859 0.5896H16.9398V1.64377H3.05859V0.5896Z" fill="#E66F49"/>
<path d="M4.49316 18.9958H9.914V20H4.49316V18.9958Z" fill="#848BAF"/>
<path d="M7.89974 18.9958H6.50599C6.2287 18.9958 6.00391 19.2206 6.00391 19.4979C6.00391 19.7752 6.2287 20 6.50599 20H7.89974C8.17703 20 8.40182 19.7752 8.40182 19.4979C8.40182 19.2206 8.17703 18.9958 7.89974 18.9958Z" fill="#98A4C8"/>
<path d="M5.2041 17.9916H9.20202V18.9958H5.2041V17.9916Z" fill="#98AEC3"/>
<path d="M7.3974 17.9916H7.0099C6.7326 17.9916 6.50781 18.2164 6.50781 18.4937C6.50781 18.771 6.7326 18.9958 7.0099 18.9958H7.3974C7.67469 18.9958 7.89948 18.771 7.89948 18.4937C7.89948 18.2164 7.67469 17.9916 7.3974 17.9916Z" fill="#B6C7DC"/>
<path d="M5.46875 13.2604H8.93958V17.9938H5.46875V13.2604Z" fill="#F02F62"/>
<path d="M8.52051 13.6771V17.575H5.88301V13.6771H8.52051Z" fill="#FF4D6C"/>
<path d="M11.377 13.2604H14.6082V15.9084H11.377V13.2604Z" fill="#98B3EB"/>
<path d="M14.1914 13.6771V15.9083H11.7935V13.6771H14.1914Z" fill="#7F90EB"/>
<path d="M14.8518 15.9083H11.1331C11.0617 15.9083 11.0039 15.9662 11.0039 16.0375V16.6875C11.0039 16.7588 11.0617 16.8167 11.1331 16.8167H14.8518C14.9232 16.8167 14.981 16.7588 14.981 16.6875V16.0375C14.981 15.9662 14.9232 15.9083 14.8518 15.9083Z" fill="#FF926C"/>
<path d="M13.5852 15.9083H12.3977C12.3264 15.9083 12.2686 15.9662 12.2686 16.0375V16.6875C12.2686 16.7588 12.3264 16.8167 12.3977 16.8167H13.5852C13.6566 16.8167 13.7144 16.7588 13.7144 16.6875V16.0375C13.7144 15.9662 13.6566 15.9083 13.5852 15.9083Z" fill="#FFAB80"/>
<path d="M5.58691 7.96252H8.81816V10.6104H5.58691V7.96252Z" fill="#98B3EB"/>
<path d="M9.06276 10.6125H5.34401C5.27267 10.6125 5.21484 10.6703 5.21484 10.7417V11.3917C5.21484 11.463 5.27267 11.5208 5.34401 11.5208H9.06276C9.1341 11.5208 9.19193 11.463 9.19193 11.3917V10.7417C9.19193 10.6703 9.1341 10.6125 9.06276 10.6125Z" fill="#FF926C"/>
<path d="M11.377 7.96252H14.6082V10.6104H11.377V7.96252Z" fill="#98B3EB"/>
<path d="M14.8518 10.6125H11.1331C11.0617 10.6125 11.0039 10.6703 11.0039 10.7417V11.3917C11.0039 11.463 11.0617 11.5208 11.1331 11.5208H14.8518C14.9232 11.5208 14.981 11.463 14.981 11.3917V10.7417C14.981 10.6703 14.9232 10.6125 14.8518 10.6125Z" fill="#FF926C"/>
<path d="M5.58691 3.02502H8.81816V5.67294H5.58691V3.02502Z" fill="#98B3EB"/>
<path d="M9.06276 5.67499H5.34401C5.27267 5.67499 5.21484 5.73282 5.21484 5.80415V6.45415C5.21484 6.52549 5.27267 6.58332 5.34401 6.58332H9.06276C9.1341 6.58332 9.19193 6.52549 9.19193 6.45415V5.80415C9.19193 5.73282 9.1341 5.67499 9.06276 5.67499Z" fill="#FF926C"/>
<path d="M11.377 3.02502H14.6082V5.67294H11.377V3.02502Z" fill="#98B3EB"/>
<path d="M14.8518 5.67499H11.1331C11.0617 5.67499 11.0039 5.73282 11.0039 5.80415V6.45415C11.0039 6.52549 11.0617 6.58332 11.1331 6.58332H14.8518C14.9232 6.58332 14.981 6.52549 14.981 6.45415V5.80415C14.981 5.73282 14.9232 5.67499 14.8518 5.67499Z" fill="#FF926C"/>
<path d="M6.39974 15.9396C6.34449 15.9396 6.2915 15.9176 6.25243 15.8786C6.21336 15.8395 6.19141 15.7865 6.19141 15.7312V15.5229C6.19141 15.4677 6.21336 15.4147 6.25243 15.3756C6.2915 15.3365 6.34449 15.3146 6.39974 15.3146C6.45499 15.3146 6.50798 15.3365 6.54705 15.3756C6.58612 15.4147 6.60807 15.4677 6.60807 15.5229V15.7312C6.60807 15.7865 6.58612 15.8395 6.54705 15.8786C6.50798 15.9176 6.45499 15.9396 6.39974 15.9396Z" fill="#405075"/>
<path d="M11.7939 10.6104V8.37916H14.1919V10.6104H11.7939Z" fill="#7F90EB"/>
<path d="M6.00586 10.6125V8.38124H8.40378V10.6125H6.00586Z" fill="#7F90EB"/>
<path d="M11.791 5.67291V3.44166H14.1889V5.67291H11.791Z" fill="#7F90EB"/>
<path d="M6.00391 5.67499V3.44374H8.40182V5.67499H6.00391Z" fill="#7F90EB"/>
<path d="M13.5852 10.6125H12.3977C12.3264 10.6125 12.2686 10.6703 12.2686 10.7417V11.3917C12.2686 11.463 12.3264 11.5208 12.3977 11.5208H13.5852C13.6566 11.5208 13.7144 11.463 13.7144 11.3917V10.7417C13.7144 10.6703 13.6566 10.6125 13.5852 10.6125Z" fill="#FFAB80"/>
<path d="M13.5852 5.67499H12.3977C12.3264 5.67499 12.2686 5.73282 12.2686 5.80415V6.45415C12.2686 6.52549 12.3264 6.58332 12.3977 6.58332H13.5852C13.6566 6.58332 13.7144 6.52549 13.7144 6.45415V5.80415C13.7144 5.73282 13.6566 5.67499 13.5852 5.67499Z" fill="#FFAB80"/>
<path d="M7.79811 5.67499H6.61061C6.53927 5.67499 6.48145 5.73282 6.48145 5.80415V6.45415C6.48145 6.52549 6.53927 6.58332 6.61061 6.58332H7.79811C7.86945 6.58332 7.92728 6.52549 7.92728 6.45415V5.80415C7.92728 5.73282 7.86945 5.67499 7.79811 5.67499Z" fill="#FFAB80"/>
<path d="M7.79811 10.6125H6.61061C6.53927 10.6125 6.48145 10.6703 6.48145 10.7417V11.3917C6.48145 11.463 6.53927 11.5208 6.61061 11.5208H7.79811C7.86945 11.5208 7.92728 11.463 7.92728 11.3917V10.7417C7.92728 10.6703 7.86945 10.6125 7.79811 10.6125Z" fill="#FFAB80"/>
</g>
<defs>
<clipPath id="clip0_4832_94088">
<rect width="20" height="20" fill="white"/>
</clipPath>
</defs>
</svg>
