<svg width="20" height="20" viewBox="0 0 20 20" fill="none" xmlns="http://www.w3.org/2000/svg">
<path fill-rule="evenodd" clip-rule="evenodd" d="M17.7215 16.5H2.28192C2.13156 16.5 2 16.371 2 16.2236V15.1364C2 14.989 2.13156 14.86 2.28192 14.86H17.7215C17.8719 14.86 17.994 14.989 17.994 15.1364V16.2236C17.994 16.371 17.8719 16.5 17.7215 16.5ZM10.8898 5.02941V4.0528H10.5045C10.3447 4.0528 10.2226 3.92381 10.2226 3.7764C10.2226 3.61977 10.3447 3.5 10.5045 3.5H13.3236C13.4834 3.5 13.6056 3.61977 13.6056 3.7764C13.6056 3.92381 13.4834 4.0528 13.3236 4.0528H12.9383V5.02941H16.3213C16.4247 5.02941 16.5187 5.07548 16.5657 5.1584L17.9565 7.42488C18.0128 7.51701 18.0128 7.61836 17.9659 7.71049C17.9095 7.79341 17.8155 7.84869 17.7215 7.84869H15.5508V6.62332C15.5508 6.5404 15.485 6.4759 15.391 6.4759H13.0605C12.9759 6.4759 12.9008 6.5404 12.9008 6.62332V7.84869H7.09329V6.62332C7.09329 6.5404 7.02751 6.4759 6.94293 6.4759H4.60303C4.51845 6.4759 4.45267 6.5404 4.45267 6.62332V7.84869H2.28192C2.17855 7.84869 2.08457 7.79341 2.03759 7.71049C1.9906 7.61836 1.9906 7.51701 2.03759 7.42488L3.43777 5.1584C3.48476 5.07548 3.57873 5.02941 3.6727 5.02941H10.8898ZM2.6672 14.5836V8.12509H4.45267V9.14777C4.45267 9.23069 4.51845 9.30439 4.60303 9.30439H6.94293C7.02751 9.30439 7.09329 9.23069 7.09329 9.14777V8.12509H12.9008V9.14777C12.9008 9.23069 12.9759 9.30439 13.0605 9.30439H15.391C15.485 9.30439 15.5508 9.23069 15.5508 9.14777V8.12509H17.3362V14.5836H11.5194V10.7877C11.5194 10.7048 11.4442 10.6311 11.3596 10.6311H8.64383C8.55925 10.6311 8.48407 10.7048 8.48407 10.7877V14.5836H2.6672ZM11.1999 14.5836H8.79418V10.9352H11.1999V14.5836ZM10.589 13.174C10.6736 13.174 10.7488 13.1095 10.7488 13.0266V12.5936C10.7488 12.5106 10.6736 12.4369 10.589 12.4369C10.5045 12.4369 10.4387 12.5106 10.4387 12.5936V13.0266C10.4387 13.1095 10.5045 13.174 10.589 13.174ZM4.76278 8.12509H5.61792V8.99114H4.76278V8.12509ZM5.92803 8.12509H6.78318V8.99114H5.92803V8.12509ZM13.2109 8.12509H14.0754V8.99114H13.2109V8.12509ZM14.3855 8.12509H15.2407V8.99114H14.3855V8.12509ZM6.96173 13.8005C7.0463 13.8005 7.11208 13.736 7.11208 13.6531V10.7877C7.11208 10.7048 7.0463 10.6311 6.96173 10.6311H4.62182C4.53725 10.6311 4.47147 10.7048 4.47147 10.7877V13.6531C4.47147 13.736 4.53725 13.8005 4.62182 13.8005H6.96173ZM5.63672 13.4965H4.78157V10.9352H5.63672V13.4965ZM5.94683 10.9352H6.80197V13.4965H5.94683V10.9352ZM12.0926 10.0046C12.1396 10.0046 12.1866 9.98618 12.2148 9.94933C12.243 9.90326 12.2524 9.85719 12.243 9.81113L11.8671 8.57654C11.8389 8.51205 11.7825 8.47519 11.7167 8.47519H8.28673C8.22095 8.47519 8.15517 8.51205 8.13638 8.57654L7.76049 9.81113C7.74169 9.85719 7.75109 9.90326 7.77928 9.94933C7.81687 9.98618 7.86386 10.0046 7.91084 10.0046H12.0926ZM8.11758 9.70057L8.3995 8.77923H11.5945L11.8859 9.70057H8.11758ZM15.3722 13.8005C15.4568 13.8005 15.532 13.736 15.532 13.6531V10.7877C15.532 10.7048 15.4568 10.6311 15.3722 10.6311H13.0417C12.9571 10.6311 12.882 10.7048 12.882 10.7877V13.6531C12.882 13.736 12.9571 13.8005 13.0417 13.8005H15.3722ZM14.3667 10.9352H15.2219V13.4965H14.3667V10.9352ZM14.0472 13.4965H13.1921V10.9352H14.0472V13.4965ZM15.2407 7.84869H14.3855V6.77994H15.2407V7.84869ZM14.0754 7.84869H13.2109V6.77994H14.0754V7.84869ZM6.78318 7.84869H5.92803V6.77994H6.78318V7.84869ZM5.61792 7.84869H4.76278V6.77994H5.61792V7.84869Z" fill="white"/>
</svg>
