<svg width="20" height="20" viewBox="0 0 20 20" fill="none" xmlns="http://www.w3.org/2000/svg">
<path fill-rule="evenodd" clip-rule="evenodd" d="M17.3297 8.45626H2.67034C2.61909 8.45626 2.57127 8.43054 2.54221 8.38746C2.51283 8.34438 2.50596 8.28941 2.52346 8.24022L4.25478 3.39875C4.27728 3.33574 4.33572 3.29363 4.40134 3.29363H15.5987C15.664 3.29363 15.7227 3.33574 15.7452 3.39875L17.4762 8.24022C17.494 8.28941 17.4872 8.34438 17.4578 8.38746C17.4287 8.43054 17.3809 8.45626 17.3297 8.45626ZM16.089 7.56608C16.0255 7.56608 15.9655 7.5259 15.9424 7.46096L14.848 4.40016C14.8183 4.3169 14.8599 4.22463 14.9408 4.19377C15.0218 4.16323 15.1118 4.20599 15.1415 4.28925L16.2359 7.34973C16.2656 7.43331 16.224 7.52558 16.1431 7.55612C16.1252 7.56287 16.1071 7.56608 16.089 7.56608ZM3.9107 7.56608C3.89289 7.56608 3.87476 7.56287 3.85695 7.55612C3.77569 7.52558 3.73444 7.43299 3.76413 7.34973L4.85855 4.28925C4.88824 4.20599 4.97824 4.16323 5.05918 4.19377C5.14012 4.22463 5.18169 4.3169 5.15169 4.40016L4.05758 7.46064C4.03414 7.5259 3.97445 7.56608 3.9107 7.56608Z" fill="white"/>
<path fill-rule="evenodd" clip-rule="evenodd" d="M11.6979 13.7674V9.71453C11.6979 9.6258 11.6279 9.55379 11.5416 9.55379H8.45838C8.37212 9.55379 8.30212 9.6258 8.30212 9.71453V13.7674H3.48787V8.77774H16.5121V13.7674H11.6979ZM7.1602 12.8801H4.9423C4.85605 12.8801 4.78605 12.8081 4.78605 12.7194V9.71453C4.78605 9.6258 4.85605 9.55379 4.9423 9.55379H7.1602C7.24646 9.55379 7.31646 9.6258 7.31646 9.71453V12.7194C7.31646 12.8081 7.24646 12.8801 7.1602 12.8801ZM5.09856 12.5586H5.88171V9.87527H5.09856V12.5586ZM6.19423 12.5586H7.00395V9.87527H6.19423V12.5586ZM9.84374 13.7674V9.87527H8.61463V13.7674H9.84374ZM11.3854 13.7674V9.87527H10.1563V13.7674H11.3854ZM15.0577 12.8801H12.8398C12.7535 12.8801 12.6835 12.8081 12.6835 12.7194V9.71453C12.6835 9.6258 12.7535 9.55379 12.8398 9.55379H15.0577C15.144 9.55379 15.214 9.6258 15.214 9.71453V12.7194C15.214 12.8081 15.144 12.8801 15.0577 12.8801ZM12.9961 12.5586H13.7795V9.87527H12.9961V12.5586ZM14.092 12.5586H14.9014V9.87527H14.092V12.5586Z" fill="white"/>
<path fill-rule="evenodd" clip-rule="evenodd" d="M6.69643 2.97215L6.98551 2.10834C7.00707 2.0434 7.06645 2 7.13301 2H12.867C12.9339 2 12.9929 2.0434 13.0148 2.10834L13.3036 2.97215H6.69643Z" fill="white"/>
<path fill-rule="evenodd" clip-rule="evenodd" d="M17.8437 15.4677H2.15626C2.07 15.4677 2 15.3957 2 15.307V14.2496C2 14.1609 2.07 14.0889 2.15626 14.0889H17.8437C17.93 14.0889 18 14.1609 18 14.2496V15.307C18 15.3957 17.93 15.4677 17.8437 15.4677Z" fill="white"/>
<path fill-rule="evenodd" clip-rule="evenodd" d="M4.40134 18H3.22474C3.13848 18 3.06848 17.9283 3.06848 17.8393V15.7892H4.5576V17.8393C4.5576 17.9283 4.4876 18 4.40134 18ZM16.7753 18H15.5987C15.5124 18 15.4427 17.9283 15.4427 17.8393V15.7892H16.9315V17.8393C16.9315 17.9283 16.8615 18 16.7753 18ZM10.5881 18H9.41185C9.32529 18 9.2556 17.9283 9.2556 17.8393V15.7892H10.7444V17.8393C10.7444 17.9283 10.6747 18 10.5881 18Z" fill="white"/>
</svg>
