<svg width="20" height="20" viewBox="0 0 20 20" fill="none" xmlns="http://www.w3.org/2000/svg">
<g clip-path="url(#clip0_4832_94329)">
<path d="M12.1874 15.6251C12.0473 15.6251 11.9199 15.5304 11.8844 15.3883L11.6311 14.375H8.36908L8.11576 15.3883C8.07393 15.5557 7.90428 15.6575 7.73678 15.6157C7.56936 15.5738 7.46756 15.4042 7.5094 15.2367L7.8219 13.9867C7.8567 13.8476 7.98166 13.75 8.12506 13.75H11.8751C12.0185 13.75 12.1435 13.8476 12.1782 13.9867L12.4907 15.2367C12.5326 15.4042 12.4308 15.5738 12.2633 15.6157C12.2379 15.6221 12.2124 15.6251 12.1874 15.6251Z" fill="#994545"/>
<path d="M10 15.3125C9.82742 15.3125 9.6875 15.1726 9.6875 15V12.5C9.6875 12.3274 9.82742 12.1875 10 12.1875C10.1726 12.1875 10.3125 12.3274 10.3125 12.5V15C10.3125 15.1726 10.1726 15.3125 10 15.3125Z" fill="#994545"/>
<path d="M9.375 10H10.625V11.5625H9.375V10Z" fill="#994545"/>
<path d="M14.6875 6.5625H15.9375V8.75H14.6875V6.5625Z" fill="#4C639C"/>
<path d="M0.937921 16.2501C0.917569 16.2501 0.896983 16.2481 0.87628 16.244C0.707022 16.2101 0.597296 16.0455 0.631124 15.8762L1.88112 9.62622C1.90952 9.48438 2.03151 9.38052 2.17608 9.3752C2.32046 9.37001 2.44995 9.46446 2.48866 9.60388L4.05116 15.2289C4.09737 15.3952 3.99999 15.5674 3.8337 15.6136C3.66737 15.6599 3.49515 15.5624 3.44898 15.3961L2.2371 11.0334L1.24401 15.9988C1.21429 16.1474 1.08382 16.2501 0.937921 16.2501Z" fill="#595958"/>
<path d="M19.0622 16.2501C18.9163 16.2501 18.7859 16.1474 18.7561 15.9988L17.763 11.0333L16.5512 15.3961C16.505 15.5624 16.3327 15.6599 16.1664 15.6136C16.0002 15.5674 15.9028 15.3951 15.949 15.2288L17.5115 9.60384C17.5502 9.46447 17.6807 9.37044 17.8241 9.37517C17.9686 9.38048 18.0906 9.48431 18.119 9.62619L19.369 15.8762C19.4029 16.0454 19.2931 16.2101 19.1239 16.2439C19.1032 16.2481 19.0825 16.2501 19.0622 16.2501Z" fill="#595958"/>
<path d="M18.8251 9.99996H1.17492C1.04379 9.99996 0.9375 9.89367 0.9375 9.76254V8.98742C0.9375 8.85629 1.04379 8.75 1.17492 8.75H18.825C18.9562 8.75 19.0625 8.85629 19.0625 8.98742V9.76254C19.0625 9.89367 18.9562 9.99996 18.8251 9.99996Z" fill="#F7D877"/>
<path d="M10.3125 7.8125H4.0625V4.45312C4.0625 4.23738 4.23738 4.0625 4.45312 4.0625H9.92188C10.1376 4.0625 10.3125 4.23738 10.3125 4.45312V7.8125Z" fill="#7598F0"/>
<path d="M10.9375 8.75H3.4375V8.33063C3.4375 8.04445 3.66945 7.8125 3.95562 7.8125H10.4194C10.7055 7.8125 10.9375 8.04445 10.9375 8.33063V8.75H10.9375Z" fill="#4C639C"/>
<path d="M9.37503 5.62496C9.29507 5.62496 9.21507 5.59445 9.15405 5.53344L8.84155 5.22094C8.71948 5.09891 8.71948 4.90105 8.84155 4.77902C8.96358 4.65699 9.16144 4.65699 9.28347 4.77902L9.59597 5.09152C9.71804 5.21355 9.71804 5.41141 9.59597 5.53344C9.53499 5.59445 9.45499 5.62496 9.37503 5.62496Z" fill="#4B6199"/>
<path d="M8.90628 6.71871C8.82632 6.71871 8.74632 6.6882 8.6853 6.62719L7.59155 5.53344C7.46948 5.41141 7.46948 5.21355 7.59155 5.09152C7.71358 4.96949 7.91144 4.96949 8.03347 5.09152L9.12722 6.18527C9.24929 6.3073 9.24929 6.50516 9.12722 6.62719C9.06624 6.6882 8.98624 6.71871 8.90628 6.71871Z" fill="#4B6199"/>
<path d="M18.6719 6.875H11.9531C11.7374 6.875 11.5625 6.70012 11.5625 6.48438V2.89062C11.5625 2.67488 11.7374 2.5 11.9531 2.5H18.6719C18.8876 2.5 19.0625 2.67488 19.0625 2.89062V6.48438C19.0625 6.70012 18.8876 6.875 18.6719 6.875Z" fill="#7598F0"/>
<path d="M18.125 4.06246C18.0451 4.06246 17.9651 4.03195 17.9041 3.97094L17.5916 3.65844C17.4695 3.53641 17.4695 3.33855 17.5916 3.21652C17.7136 3.09449 17.9114 3.09449 18.0335 3.21652L18.346 3.52902C18.468 3.65105 18.468 3.84891 18.346 3.97094C18.285 4.03195 18.205 4.06246 18.125 4.06246Z" fill="#4B6199"/>
<path d="M17.8125 5.31246C17.7326 5.31246 17.6526 5.28195 17.5916 5.22094L16.3416 3.97094C16.2195 3.84891 16.2195 3.65105 16.3416 3.52902C16.4636 3.40699 16.6614 3.40699 16.7835 3.52902L18.0335 4.77902C18.1555 4.90105 18.1555 5.09891 18.0335 5.22094C17.9725 5.28195 17.8925 5.31246 17.8125 5.31246Z" fill="#4B6199"/>
<path d="M11.3671 10.3125H8.63346C8.34186 10.3125 8.09463 10.0981 8.05342 9.80941L7.59584 6.60629C7.54541 6.25332 7.81932 5.9375 8.17588 5.9375H11.8247C12.1813 5.9375 12.4552 6.25332 12.4047 6.60629L11.9472 9.80941C11.9059 10.0981 11.6587 10.3125 11.3671 10.3125Z" fill="#DE6464"/>
<path d="M12.1875 12.5H7.8125C7.4673 12.5 7.1875 12.2202 7.1875 11.875C7.1875 11.5298 7.4673 11.25 7.8125 11.25H12.1875C12.5327 11.25 12.8125 11.5298 12.8125 11.875C12.8125 12.2202 12.5327 12.5 12.1875 12.5Z" fill="#DE6464"/>
<path d="M10 16.25C10.3452 16.25 10.625 15.9702 10.625 15.625C10.625 15.2798 10.3452 15 10 15C9.65482 15 9.375 15.2798 9.375 15.625C9.375 15.9702 9.65482 16.25 10 16.25Z" fill="#595958"/>
<path d="M12.1875 16.25C12.5327 16.25 12.8125 15.9702 12.8125 15.625C12.8125 15.2798 12.5327 15 12.1875 15C11.8423 15 11.5625 15.2798 11.5625 15.625C11.5625 15.9702 11.8423 16.25 12.1875 16.25Z" fill="#595958"/>
<path d="M7.8125 16.25C8.15768 16.25 8.4375 15.9702 8.4375 15.625C8.4375 15.2798 8.15768 15 7.8125 15C7.46732 15 7.1875 15.2798 7.1875 15.625C7.1875 15.9702 7.46732 16.25 7.8125 16.25Z" fill="#595958"/>
<path d="M2.5 8.75H1.25L0.9375 6.875H2.8125L2.5 8.75Z" fill="#DE6464"/>
<path d="M14.0625 11.25H16.5625V16.25H14.0625V11.25Z" fill="#7598F0"/>
<path d="M15.3137 15.625C15.1411 15.625 15.001 15.4851 15.001 15.3125C15.001 15.1399 15.1407 15 15.3133 15H15.3137C15.4862 15 15.6262 15.1399 15.6262 15.3125C15.6262 15.4851 15.4862 15.625 15.3137 15.625Z" fill="#F7D877"/>
<path d="M15.3137 14.6875C15.1411 14.6875 15.001 14.5476 15.001 14.375C15.001 14.2024 15.1407 14.0625 15.3133 14.0625H15.3137C15.4862 14.0625 15.6262 14.2024 15.6262 14.375C15.6262 14.5476 15.4862 14.6875 15.3137 14.6875Z" fill="#F7D877"/>
<path d="M15.625 12.5H15C14.8274 12.5 14.6875 12.3601 14.6875 12.1875C14.6875 12.0149 14.8274 11.875 15 11.875H15.625C15.7976 11.875 15.9375 12.0149 15.9375 12.1875C15.9375 12.3601 15.7976 12.5 15.625 12.5Z" fill="#4B6199"/>
<path d="M15.625 13.4375H15C14.8274 13.4375 14.6875 13.2976 14.6875 13.125C14.6875 12.9524 14.8274 12.8125 15 12.8125H15.625C15.7976 12.8125 15.9375 12.9524 15.9375 13.125C15.9375 13.2976 15.7976 13.4375 15.625 13.4375Z" fill="#4B6199"/>
<path d="M1.24941 6.25C1.20715 6.25 1.16426 6.24133 1.12309 6.22305C1.03992 6.1861 0.625 5.98297 0.625 5.61344C0.625 5.37117 0.792578 5.17383 1.12309 5.02695C1.1432 5.01801 1.16074 5.00957 1.17602 5.00172C1.15777 4.99063 1.13895 4.98039 1.1216 4.97242C0.965273 4.9009 0.895273 4.71613 0.965938 4.55942C1.03664 4.4027 1.21984 4.33211 1.37691 4.40195C1.46008 4.43891 1.875 4.64203 1.875 5.01156C1.875 5.25383 1.70742 5.45117 1.37691 5.59805C1.3568 5.60699 1.33926 5.61543 1.32398 5.62328C1.34223 5.63438 1.36105 5.64461 1.3784 5.65258C1.53473 5.7241 1.60473 5.90887 1.53406 6.06559C1.48191 6.18129 1.36844 6.25 1.24941 6.25Z" fill="#D5D5D3"/>
<path d="M2.49941 6.25C2.45715 6.25 2.41426 6.24133 2.37309 6.22305C2.28992 6.1861 1.875 5.98297 1.875 5.61344C1.875 5.37117 2.04258 5.17383 2.37309 5.02695C2.3932 5.01801 2.41074 5.00957 2.42602 5.00172C2.40777 4.99063 2.38895 4.98039 2.3716 4.97242C2.21527 4.9009 2.14527 4.71613 2.21594 4.55942C2.28664 4.4027 2.46984 4.33211 2.62691 4.40195C2.71008 4.43891 3.125 4.64203 3.125 5.01156C3.125 5.25383 2.95742 5.45117 2.62691 5.59805C2.6068 5.60699 2.58926 5.61543 2.57398 5.62328C2.59223 5.63438 2.61105 5.64461 2.6284 5.65258C2.78473 5.7241 2.85473 5.90887 2.78406 6.06559C2.73191 6.18129 2.61844 6.25 2.49941 6.25Z" fill="#D5D5D3"/>
</g>
<defs>
<clipPath id="clip0_4832_94329">
<rect width="20" height="20" fill="white"/>
</clipPath>
</defs>
</svg>
