<svg width="64" height="64" viewBox="0 0 64 64" fill="none" xmlns="http://www.w3.org/2000/svg">
<path d="M0 16C0 7.16344 7.1634 0 16 0H48C56.8366 0 64 7.16344 64 16V48C64 56.8366 56.8366 64 48 64H16C7.1634 64 0 56.8366 0 48V16Z" fill="white"/>
<path d="M29.5 32H34.5" stroke="#4A5565" stroke-width="2.5" stroke-linecap="round" stroke-linejoin="round"/>
<path d="M29.5 27H34.5" stroke="#4A5565" stroke-width="2.5" stroke-linecap="round" stroke-linejoin="round"/>
<path d="M34.5 43.25V39.5C34.5 38.837 34.2366 38.2011 33.7678 37.7322C33.2989 37.2634 32.663 37 32 37C31.337 37 30.7011 37.2634 30.2322 37.7322C29.7634 38.2011 29.5 38.837 29.5 39.5V43.25" stroke="#4A5565" stroke-width="2.5" stroke-linecap="round" stroke-linejoin="round"/>
<path d="M24.5 29.5H22C21.337 29.5 20.7011 29.7634 20.2322 30.2322C19.7634 30.7011 19.5 31.337 19.5 32V40.75C19.5 41.413 19.7634 42.0489 20.2322 42.5178C20.7011 42.9866 21.337 43.25 22 43.25H42C42.663 43.25 43.2989 42.9866 43.7678 42.5178C44.2366 42.0489 44.5 41.413 44.5 40.75V28.25C44.5 27.587 44.2366 26.9511 43.7678 26.4822C43.2989 26.0134 42.663 25.75 42 25.75H39.5" stroke="#4A5565" stroke-width="2.5" stroke-linecap="round" stroke-linejoin="round"/>
<path d="M24.5 43.25V23.25C24.5 22.587 24.7634 21.9511 25.2322 21.4822C25.7011 21.0134 26.337 20.75 27 20.75H37C37.663 20.75 38.2989 21.0134 38.7678 21.4822C39.2366 21.9511 39.5 22.587 39.5 23.25V43.25" stroke="#4A5565" stroke-width="2.5" stroke-linecap="round" stroke-linejoin="round"/>
</svg>
