<svg width="40" height="40" viewBox="0 0 40 40" fill="none" xmlns="http://www.w3.org/2000/svg">
<path d="M25.5383 18.1451C26.2543 18.1458 26.9408 18.4364 27.4472 18.9531C27.9535 19.4698 28.2384 20.1704 28.2394 20.9012C28.2381 21.0131 28.2303 21.1248 28.216 21.2358C29.432 20.7651 30.5226 20.0093 31.3999 19.0294C32.2771 18.0495 32.9165 16.8729 33.2665 15.5945C33.6164 14.3161 33.6672 12.9717 33.4146 11.6696C33.162 10.3675 32.6132 9.14418 31.8123 8.09832C31.0115 7.05245 29.9811 6.21329 28.8042 5.64849C27.6273 5.08368 26.3369 4.80905 25.0369 4.84672C23.7369 4.88439 22.4638 5.23332 21.3202 5.86537C20.1765 6.49742 19.1945 7.39491 18.4531 8.48546C18.9372 8.82006 19.3336 9.27058 19.6077 9.79764C19.8818 10.3247 20.0253 10.9123 20.0256 11.509V18.1451H25.5383ZM26.9784 6.89853C27.0087 6.80879 27.0561 6.72603 27.1178 6.65497C27.1795 6.58392 27.2543 6.52597 27.3379 6.48443C27.4215 6.44288 27.5124 6.41857 27.6052 6.41287C27.6981 6.40718 27.7911 6.4202 27.879 6.45122C28.7553 6.75604 29.5561 7.25165 30.2261 7.90373C31.4219 9.10776 32.1552 10.7094 32.2928 12.4181C32.31 12.6084 32.2526 12.7979 32.1331 12.9451C32.0137 13.0924 31.842 13.1853 31.6556 13.2036C31.6337 13.2036 31.6117 13.2036 31.5898 13.2036C31.4127 13.2044 31.2419 13.1374 31.1108 13.016C30.9797 12.8945 30.898 12.7274 30.8817 12.5474C30.7758 11.1865 30.1962 9.90913 29.2476 8.94651C28.7248 8.43826 28.1001 8.0519 27.4167 7.81413C27.2399 7.75156 27.0946 7.62015 27.0125 7.44859C26.9304 7.27704 26.9181 7.07929 26.9784 6.89853Z" fill="white"/>
<path d="M22.2254 35.1525H19.3176V39.9299L24.5024 36.8225C24.6059 36.76 24.7234 36.7256 24.8436 36.7225C24.9638 36.7195 25.0828 36.7479 25.1892 36.8052L31.1869 40V26.7387C30.9379 26.8239 30.6777 26.8698 30.4151 26.8746H28.546C28.3712 26.876 28.1989 26.9164 28.0411 26.9931L26.3667 27.8227C26.2568 27.8704 26.1437 27.91 26.0282 27.9412C26.2022 28.5641 26.1389 29.231 25.8508 29.8081C25.5628 30.3852 25.0715 30.8297 24.4755 31.0522C24.7206 31.4604 24.8547 31.9278 24.8638 32.4064C24.873 32.8851 24.757 33.3575 24.5278 33.7752C24.2986 34.1928 23.9644 34.5405 23.5597 34.7825C23.155 35.0245 22.6944 35.1519 22.2254 35.1518V35.1525Z" fill="white"/>
<path d="M9.31814 21.0017H9.29194V32.0798C9.85098 32.1846 10.3797 32.4165 10.839 32.7584L11.4762 33.2339C11.8874 33.5403 12.3831 33.706 12.8922 33.7072H22.2261C22.5454 33.6994 22.8491 33.5644 23.0722 33.3311C23.2953 33.0979 23.4202 32.7848 23.4202 32.4588C23.4202 32.1329 23.2953 31.8198 23.0722 31.5865C22.8491 31.3533 22.5454 31.2183 22.2261 31.2105H19.2361C19.0484 31.2105 18.8683 31.1343 18.7355 30.9988C18.6027 30.8633 18.5281 30.6795 18.5281 30.4878C18.5281 30.2962 18.6027 30.1124 18.7355 29.9768C18.8683 29.8413 19.0484 29.7652 19.2361 29.7652H23.611C23.8983 29.7577 24.1713 29.6361 24.3719 29.4261C24.5725 29.2161 24.6848 28.9344 24.6848 28.6411C24.6848 28.3478 24.5725 28.0661 24.3719 27.8562C24.1713 27.6462 23.8983 27.5245 23.611 27.517H19.9718C19.784 27.517 19.6039 27.4409 19.4711 27.3054C19.3384 27.1699 19.2638 26.986 19.2638 26.7944C19.2638 26.6027 19.3384 26.4189 19.4711 26.2834C19.6039 26.1479 19.784 26.0717 19.9718 26.0717H24.6235C24.9322 26.064 25.2257 25.9335 25.4413 25.7079C25.657 25.4824 25.7777 25.1797 25.7777 24.8646C25.7777 24.5494 25.657 24.2468 25.4413 24.0212C25.2257 23.7957 24.9322 23.6651 24.6235 23.6574H21.0253C20.8375 23.6574 20.6575 23.5813 20.5247 23.4457C20.3919 23.3102 20.3173 23.1264 20.3173 22.9347C20.3173 22.7431 20.3919 22.5593 20.5247 22.4238C20.6575 22.2882 20.8375 22.2121 21.0253 22.2121H25.5383C25.8789 22.2121 26.2056 22.074 26.4464 21.8282C26.6873 21.5823 26.8226 21.2489 26.8226 20.9012C26.8226 20.5536 26.6873 20.2201 26.4464 19.9743C26.2056 19.7285 25.8789 19.5903 25.5383 19.5903H16.3892C16.2014 19.5903 16.0213 19.5142 15.8885 19.3787C15.7558 19.2432 15.6812 19.0594 15.6812 18.8677C15.6812 18.676 15.7558 18.4922 15.8885 18.3567C16.0213 18.2212 16.2014 18.1451 16.3892 18.1451H18.6088V11.509C18.6083 10.9232 18.3801 10.3616 17.9743 9.9473C17.5685 9.53302 17.0183 9.29993 16.4444 9.29916C16.2726 9.29916 16.1079 9.3687 15.9863 9.49253C15.8647 9.61635 15.7962 9.78435 15.7959 9.95966V13.0251C15.7966 13.6748 15.6113 14.3105 15.2627 14.8541L12.4242 19.2868C12.0876 19.8143 11.6271 20.2475 11.0847 20.547C10.5422 20.8465 9.93491 21.0028 9.31814 21.0017Z" fill="white"/>
<path d="M37.9712 10.8745C38.0094 10.7023 38.0089 10.5235 37.9697 10.3515C37.9304 10.1795 37.8535 10.0189 37.7446 9.88161L36.5849 8.39369C36.3452 8.08838 36.1758 7.73201 36.0893 7.35091L35.6772 5.48649C35.6384 5.31641 35.5628 5.15735 35.4559 5.02094C35.3491 4.88453 35.2138 4.77422 35.0598 4.69808L33.369 3.86126C33.0188 3.68958 32.7121 3.43785 32.4727 3.12561L31.3115 1.64563C31.2038 1.50756 31.0671 1.39595 30.9114 1.31903C30.7558 1.24211 30.5852 1.20184 30.4123 1.2012H28.5431C28.1596 1.1994 27.7811 1.11183 27.4344 0.944665L25.7507 0.118682C25.5957 0.0406088 25.4251 0 25.2522 0C25.0794 0 24.9088 0.0406088 24.7538 0.118682L23.0729 0.940329C22.7245 1.10878 22.3441 1.19709 21.9585 1.19904H20.0893C19.9171 1.19952 19.7472 1.23936 19.5921 1.31564C19.437 1.39193 19.3006 1.50271 19.193 1.63985L18.0219 3.13428C17.7843 3.44159 17.4805 3.68888 17.134 3.85692L15.4475 4.6923C15.2921 4.76889 15.1554 4.88005 15.0476 5.01761C14.9398 5.15517 14.8635 5.31563 14.8244 5.48721L14.4145 7.34079C14.3275 7.72576 14.1564 8.08569 13.9139 8.39369L12.7563 9.87872C12.6477 10.0159 12.5709 10.1765 12.5318 10.3484C12.4927 10.5202 12.4922 10.6989 12.5304 10.8709L12.9489 12.7281C13.0264 13.1095 13.0264 13.503 12.9489 13.8843L12.5241 15.7545C12.4777 15.9712 12.493 16.1968 12.568 16.4049L14.0718 14.0571C14.2697 13.749 14.3748 13.3885 14.3741 13.0201V9.95966C14.3749 9.40115 14.5927 8.86576 14.9798 8.47098C15.3668 8.07619 15.8915 7.85425 16.4387 7.85387C16.6594 7.85554 16.8793 7.87828 17.0958 7.9218C17.9653 6.55244 19.1524 5.42323 20.5519 4.63429C21.9513 3.84536 23.5199 3.42109 25.1186 3.3991C26.7172 3.37711 28.2964 3.75809 29.7162 4.50824C31.136 5.2584 32.3525 6.35455 33.2578 7.69949C34.1631 9.04444 34.7293 10.5966 34.9061 12.2184C35.0829 13.8401 34.8649 15.4814 34.2714 16.9965C33.6779 18.5117 32.7272 19.854 31.5037 20.9043C30.2802 21.9547 28.8216 22.6806 27.2574 23.0178C27.1049 23.1496 26.9387 23.2637 26.7617 23.3582C27.0114 23.7249 27.1653 24.1505 27.2091 24.5949C27.2528 25.0392 27.1849 25.4875 27.0117 25.8976L27.4266 25.6916C27.7755 25.5223 28.1567 25.4335 28.5431 25.4315H30.4123C30.5835 25.4325 30.7527 25.3941 30.9073 25.319C31.0619 25.2439 31.1979 25.1341 31.3051 24.9979C31.323 24.9742 31.3424 24.9517 31.3632 24.9307L32.4783 23.5027C32.7147 23.1997 33.0131 22.953 33.3527 22.7801L35.0562 21.9483C35.2112 21.8713 35.3473 21.76 35.4547 21.6225C35.5621 21.485 35.6381 21.3247 35.6772 21.1534L36.0871 19.2991C36.1718 18.9091 36.3457 18.545 36.5948 18.2368L37.7453 16.7605C37.8544 16.6222 37.9314 16.4605 37.9705 16.2876C38.0096 16.1146 38.0098 15.9348 37.9712 15.7618L37.5527 13.9039C37.4756 13.5246 37.4742 13.1333 37.5485 12.7534L37.9712 10.8745Z" fill="white"/>
<path d="M2 18.9544H7.87589V33.1125H2V18.9544Z" fill="white"/>
</svg>
