<svg width="56" height="56" viewBox="0 0 56 56" fill="none" xmlns="http://www.w3.org/2000/svg">
<path d="M0 14C0 6.26801 6.268 0 14 0H42C49.732 0 56 6.26801 56 14V42C56 49.732 49.732 56 42 56H14C6.268 56 0 49.732 0 42V14Z" fill="#3C8FCA"/>
<path d="M34.7667 36.4L32.6667 26.8333L36.75 22.75C38.5 21 39.0833 18.6667 38.5 17.5C37.3333 16.9167 35 17.5 33.25 19.25L29.1667 23.3333L19.6 21.2333C19.0167 21.1167 18.55 21.35 18.3167 21.8167L17.9667 22.4C17.7333 22.9833 17.85 23.5667 18.3167 23.9167L24.5 28L22.1667 31.5H18.6667L17.5 32.6667L21 35L23.3333 38.5L24.5 37.3333V33.8333L28 31.5L32.0833 37.6833C32.4333 38.15 33.0167 38.2667 33.6 38.0333L34.1833 37.8C34.65 37.45 34.8833 36.9833 34.7667 36.4Z" stroke="white" stroke-width="2.33333" stroke-linecap="round" stroke-linejoin="round"/>
</svg>
