<svg width="32" height="32" viewBox="0 0 32 32" fill="none" xmlns="http://www.w3.org/2000/svg">
<path d="M28 7.79756V26.1888C28 27.0349 27.3142 27.7208 26.4681 27.7208H5.53193C4.68589 27.7208 4 27.0349 4 26.1888V7.79756C4 6.95151 4.68584 6.26562 5.53193 6.26562H26.4681C27.3142 6.26562 28 6.95151 28 7.79756Z" fill="#E4E3FF"/>
<path d="M26.4678 5.76562C27.59 5.76562 28.5 6.67568 28.5 7.79785V26.1885C28.5 27.3107 27.59 28.2207 26.4678 28.2207H5.53223C4.41005 28.2207 3.5 27.3107 3.5 26.1885V7.79785C3.5 6.67567 4.40998 5.76562 5.53223 5.76562H26.4678Z" fill="#E4E3FF" stroke="white"/>
<path d="M28.0001 7.79531V26.1903C28.0001 27.0353 27.3152 27.7203 26.4703 27.7203H5.53018C4.84521 27.7203 4.27017 27.2752 4.0752 26.6553C4.22524 26.7053 4.38013 26.7303 4.54517 26.7303H25.4801C26.3251 26.7303 27.0101 26.0453 27.0101 25.2003V6.80532C27.0101 6.64033 26.9852 6.48535 26.9352 6.34033C27.5552 6.5353 28.0001 7.11035 28.0001 7.79531Z" fill="#D0D0F7"/>
<path d="M28 13.1918V8.76631C28 7.92026 27.3142 7.23438 26.4681 7.23438H5.53193C4.68589 7.23438 4 7.92021 4 8.76631V13.1918H28Z" fill="#D0D0F7"/>
<path d="M26.4678 5.76562C27.59 5.76562 28.5 6.67567 28.5 7.79785V12.7227H3.5V7.79785C3.5 6.67561 4.41005 5.76562 5.53223 5.76562H26.4678Z" fill="#FC6559" stroke="white"/>
<path d="M8.32354 9.28437C8.32354 9.93838 7.78745 10.4745 7.13345 10.4745C6.47407 10.4745 5.94336 9.93838 5.94336 9.28437C5.94336 8.62495 6.47407 8.09424 7.13345 8.09424C7.7874 8.09424 8.32354 8.62495 8.32354 9.28437Z" fill="#E24B40"/>
<path d="M7.80273 5.66763V9.2939C7.80273 9.6626 7.50386 9.96152 7.13511 9.96152H7.13149C6.76279 9.96152 6.46387 9.66265 6.46387 9.2939V5.66763C6.46387 5.29893 6.76274 5 7.13149 5H7.13511C7.50381 5 7.80273 5.29893 7.80273 5.66763Z" fill="#474646"/>
<path d="M11.5882 9.28437C11.5882 9.93838 11.0521 10.4745 10.3981 10.4745C9.73872 10.4745 9.20801 9.93838 9.20801 9.28437C9.20801 8.62495 9.73872 8.09424 10.3981 8.09424C11.0521 8.09424 11.5882 8.62495 11.5882 9.28437Z" fill="#E24B40"/>
<path d="M11.0674 5.66763V9.2939C11.0674 9.6626 10.7685 9.96152 10.3998 9.96152H10.3961C10.0274 9.96152 9.72852 9.66265 9.72852 9.2939V5.66763C9.72852 5.29893 10.0274 5 10.3961 5H10.3998C10.7685 5 11.0674 5.29893 11.0674 5.66763Z" fill="#474646"/>
<path d="M22.7913 9.28437C22.7913 9.93838 22.2552 10.4745 21.6012 10.4745C20.9418 10.4745 20.4111 9.93838 20.4111 9.28437C20.4111 8.62495 20.9418 8.09424 21.6012 8.09424C22.2552 8.09424 22.7913 8.62495 22.7913 9.28437Z" fill="#E24B40"/>
<path d="M22.2705 5.66763V9.2939C22.2705 9.6626 21.9716 9.96152 21.6029 9.96152H21.5993C21.2306 9.96152 20.9316 9.66265 20.9316 9.2939V5.66763C20.9316 5.29893 21.2305 5 21.5993 5H21.6029C21.9716 5 22.2705 5.29893 22.2705 5.66763Z" fill="#474646"/>
<path d="M26.056 9.28437C26.056 9.93838 25.5199 10.4745 24.8659 10.4745C24.2065 10.4745 23.6758 9.93838 23.6758 9.28437C23.6758 8.62495 24.2065 8.09424 24.8659 8.09424C25.5199 8.09424 26.056 8.62495 26.056 9.28437Z" fill="#E24B40"/>
<path d="M25.5352 5.66763V9.2939C25.5352 9.6626 25.2363 9.96152 24.8675 9.96152H24.8639C24.4952 9.96152 24.1963 9.66265 24.1963 9.2939V5.66763C24.1963 5.29893 24.4952 5 24.8639 5H24.8675C25.2363 5 25.5352 5.29893 25.5352 5.66763Z" fill="#474646"/>
<path d="M17.4072 14.9203V16.8863C17.4072 17.1206 17.2173 17.3104 16.983 17.3104H15.0169C14.7827 17.3104 14.5928 17.1206 14.5928 16.8863V14.9203C14.5928 14.686 14.7827 14.4961 15.0169 14.4961H16.983C17.2172 14.4961 17.4072 14.686 17.4072 14.9203Z" fill="#D0D0F7"/>
<path d="M21.5722 14.9203V16.8863C21.5722 17.1206 21.3823 17.3104 21.148 17.3104H19.182C18.9477 17.3104 18.7578 17.1206 18.7578 16.8863V14.9203C18.7578 14.686 18.9477 14.4961 19.182 14.4961H21.148C21.3823 14.4961 21.5722 14.686 21.5722 14.9203Z" fill="#D0D0F7"/>
<path d="M25.7373 14.9203V16.8863C25.7373 17.1206 25.5474 17.3104 25.3131 17.3104H23.347C23.1127 17.3104 22.9229 17.1206 22.9229 16.8863V14.9203C22.9229 14.686 23.1127 14.4961 23.347 14.4961H25.3131C25.5474 14.4961 25.7373 14.686 25.7373 14.9203Z" fill="#D0D0F7"/>
<path d="M13.2421 14.9203V16.8863C13.2421 17.1206 13.0522 17.3104 12.818 17.3104H10.8519C10.6176 17.3104 10.4277 17.1206 10.4277 16.8863V14.9203C10.4277 14.686 10.6176 14.4961 10.8519 14.4961H12.818C13.0522 14.4961 13.2421 14.686 13.2421 14.9203Z" fill="#F9B938"/>
<path d="M9.07715 19.0628V21.0289C9.07715 21.2631 8.88726 21.453 8.65298 21.453H6.68687C6.45259 21.453 6.2627 21.2631 6.2627 21.0289V19.0628C6.2627 18.8286 6.45259 18.6387 6.68687 18.6387H8.65293C8.88721 18.6387 9.07715 18.8286 9.07715 19.0628Z" fill="#D0D0F7"/>
<path d="M17.4072 19.0628V21.0289C17.4072 21.2631 17.2173 21.453 16.983 21.453H15.0169C14.7827 21.453 14.5928 21.2631 14.5928 21.0289V19.0628C14.5928 18.8286 14.7827 18.6387 15.0169 18.6387H16.983C17.2172 18.6387 17.4072 18.8286 17.4072 19.0628Z" fill="#D0D0F7"/>
<path d="M21.5722 19.0628V21.0289C21.5722 21.2631 21.3823 21.453 21.148 21.453H19.182C18.9477 21.453 18.7578 21.2631 18.7578 21.0289V19.0628C18.7578 18.8286 18.9477 18.6387 19.182 18.6387H21.148C21.3823 18.6387 21.5722 18.8286 21.5722 19.0628Z" fill="#D0D0F7"/>
<path d="M25.7373 19.0628V21.0289C25.7373 21.2631 25.5474 21.453 25.3131 21.453H23.347C23.1127 21.453 22.9229 21.2631 22.9229 21.0289V19.0628C22.9229 18.8286 23.1127 18.6387 23.347 18.6387H25.3131C25.5474 18.6387 25.7373 18.8286 25.7373 19.0628Z" fill="#00D67F"/>
<path d="M13.2421 19.0628V21.0289C13.2421 21.2631 13.0522 21.453 12.818 21.453H10.8519C10.6176 21.453 10.4277 21.2631 10.4277 21.0289V19.0628C10.4277 18.8286 10.6176 18.6387 10.8519 18.6387H12.818C13.0522 18.6387 13.2421 18.8286 13.2421 19.0628Z" fill="#D0D0F7"/>
<path d="M9.07715 23.2054V25.1714C9.07715 25.4057 8.88726 25.5956 8.65298 25.5956H6.68687C6.45259 25.5956 6.2627 25.4057 6.2627 25.1714V23.2054C6.2627 22.9711 6.45259 22.7812 6.68687 22.7812H8.65293C8.88721 22.7812 9.07715 22.9711 9.07715 23.2054Z" fill="#FC6559"/>
<path d="M17.4072 23.2054V25.1714C17.4072 25.4057 17.2173 25.5956 16.983 25.5956H15.0169C14.7827 25.5956 14.5928 25.4057 14.5928 25.1714V23.2054C14.5928 22.9711 14.7827 22.7812 15.0169 22.7812H16.983C17.2172 22.7812 17.4072 22.9711 17.4072 23.2054Z" fill="#D0D0F7"/>
<path d="M21.5722 23.2054V25.1714C21.5722 25.4057 21.3823 25.5956 21.148 25.5956H19.182C18.9477 25.5956 18.7578 25.4057 18.7578 25.1714V23.2054C18.7578 22.9711 18.9477 22.7812 19.182 22.7812H21.148C21.3823 22.7812 21.5722 22.9711 21.5722 23.2054Z" fill="#D0D0F7"/>
<path d="M13.2421 23.2054V25.1714C13.2421 25.4057 13.0522 25.5956 12.818 25.5956H10.8519C10.6176 25.5956 10.4277 25.4057 10.4277 25.1714V23.2054C10.4277 22.9711 10.6176 22.7812 10.8519 22.7812H12.818C13.0522 22.7812 13.2421 22.9711 13.2421 23.2054Z" fill="#D0D0F7"/>
<path d="M27.9995 7.79531V12.2253H27.0095V6.80532C27.0095 6.64033 26.9846 6.48535 26.9346 6.34033C27.074 6.36309 27.9995 6.75928 27.9995 7.79531Z" fill="#F05543"/>
<path opacity="0.5" d="M4.74902 22.9673V19.0302C4.74902 18.799 4.93613 18.6118 5.16743 18.6118C5.39873 18.6118 5.58584 18.7989 5.58584 19.0302V22.9673C5.58584 23.1985 5.39873 23.3857 5.16743 23.3857C4.93613 23.3857 4.74902 23.1986 4.74902 22.9673Z" fill="white"/>
<path opacity="0.5" d="M4.74902 17.4012V17.125C4.74902 16.8937 4.93613 16.7065 5.16743 16.7065C5.39873 16.7065 5.58584 16.8937 5.58584 17.125V17.4012C5.58584 17.6324 5.39873 17.8196 5.16743 17.8196C4.93613 17.8196 4.74902 17.6325 4.74902 17.4012Z" fill="white"/>
<path opacity="0.5" d="M13.2358 7.01562H17.1729C17.4042 7.01562 17.5913 7.20273 17.5913 7.43394C17.5913 7.66514 17.4042 7.85225 17.1729 7.85225H13.2358C13.0045 7.85225 12.8174 7.66514 12.8174 7.43394C12.8174 7.20273 13.0045 7.01562 13.2358 7.01562Z" fill="white"/>
<path opacity="0.5" d="M18.8012 7.01562H19.0774C19.3087 7.01562 19.4958 7.20273 19.4958 7.43394C19.4958 7.66514 19.3087 7.85225 19.0774 7.85225H18.8012C18.57 7.85225 18.3828 7.66514 18.3828 7.43394C18.3828 7.20273 18.57 7.01562 18.8012 7.01562Z" fill="white"/>
</svg>
