<svg width="36" height="36" viewBox="0 0 36 36" fill="none" xmlns="http://www.w3.org/2000/svg">
<path d="M0 10C0 4.47715 4.4772 0 10 0H26C31.5228 0 36 4.47715 36 10V26C36 31.5228 31.5228 36 26 36H10C4.4772 36 0 31.5228 0 26V10Z" fill="url(#paint0_linear_805_191)"/>
<mask id="mask0_805_191" style="mask-type:luminance" maskUnits="userSpaceOnUse" x="8" y="8" width="20" height="20">
<path d="M28 8H8V28H28V8Z" fill="white"/>
</mask>
<g mask="url(#mask0_805_191)">
<path d="M19.528 21.8067C19.7001 21.8857 19.894 21.9038 20.0777 21.8579C20.2615 21.812 20.4241 21.7049 20.5388 21.5542L20.8346 21.1667C20.9899 20.9597 21.1912 20.7917 21.4226 20.676C21.654 20.5603 21.9092 20.5 22.168 20.5H24.668C25.11 20.5 25.5339 20.6756 25.8465 20.9882C26.159 21.3007 26.3346 21.7247 26.3346 22.1667V24.6667C26.3346 25.1087 26.159 25.5326 25.8465 25.8452C25.5339 26.1578 25.11 26.3334 24.668 26.3334C20.6897 26.3334 16.8744 24.753 14.0614 21.94C11.2483 19.1269 9.668 15.3116 9.668 11.3334C9.668 10.8913 9.8436 10.4674 10.1561 10.1548C10.4687 9.84229 10.8926 9.66669 11.3346 9.66669H13.8346C14.2767 9.66669 14.7006 9.84229 15.0131 10.1548C15.3257 10.4674 15.5013 10.8913 15.5013 11.3334V13.8334C15.5013 14.0921 15.4411 14.3473 15.3253 14.5787C15.2096 14.8101 15.0416 15.0114 14.8346 15.1667L14.4446 15.4592C14.2916 15.576 14.1838 15.7422 14.1395 15.9295C14.0951 16.1168 14.117 16.3137 14.2013 16.4867C15.3402 18.7999 17.2133 20.6707 19.528 21.8067Z" stroke="white" stroke-width="2" stroke-linecap="round" stroke-linejoin="round"/>
</g>
<defs>
<linearGradient id="paint0_linear_805_191" x1="0" y1="0" x2="36" y2="36" gradientUnits="userSpaceOnUse">
<stop stop-color="#00BC7D"/>
<stop offset="1" stop-color="#00BBA7"/>
</linearGradient>
</defs>
</svg>
