<svg width="56" height="56" viewBox="0 0 56 56" fill="none" xmlns="http://www.w3.org/2000/svg">
<path d="M0 14C0 6.26801 6.268 0 14 0H42C49.732 0 56 6.26801 56 14V42C56 49.732 49.732 56 42 56H14C6.268 56 0 49.732 0 42V14Z" fill="#3C8FCA"/>
<path d="M30.3324 18.6665C30.7534 18.6665 31.1665 18.7804 31.5279 18.996C31.8894 19.2117 32.1858 19.5211 32.3858 19.8915L32.9528 20.9415C33.1527 21.3119 33.4491 21.6213 33.8106 21.837C34.1721 22.0527 34.5852 22.1665 35.0061 22.1665H37.3359C37.9548 22.1665 38.5483 22.4123 38.9859 22.8499C39.4234 23.2875 39.6693 23.881 39.6693 24.4998V34.9998C39.6693 35.6187 39.4234 36.2122 38.9859 36.6498C38.5483 37.0873 37.9548 37.3332 37.3359 37.3332H18.6693C18.0504 37.3332 17.4569 37.0873 17.0194 36.6498C16.5818 36.2122 16.3359 35.6187 16.3359 34.9998V24.4998C16.3359 23.881 16.5818 23.2875 17.0194 22.8499C17.4569 22.4123 18.0504 22.1665 18.6693 22.1665H20.9991C21.4196 22.1665 21.8323 22.0529 22.1935 21.8377C22.5548 21.6225 22.8511 21.3136 23.0513 20.9438L23.6218 19.8892C23.8219 19.5194 24.1183 19.2105 24.4795 18.9953C24.8408 18.7801 25.2534 18.6665 25.6739 18.6665H30.3324Z" stroke="white" stroke-width="2.33333" stroke-linecap="round" stroke-linejoin="round"/>
<path d="M28 32.6665C29.933 32.6665 31.5 31.0995 31.5 29.1665C31.5 27.2335 29.933 25.6665 28 25.6665C26.067 25.6665 24.5 27.2335 24.5 29.1665C24.5 31.0995 26.067 32.6665 28 32.6665Z" stroke="white" stroke-width="2.33333" stroke-linecap="round" stroke-linejoin="round"/>
</svg>
