<svg width="104" height="90" viewBox="0 0 104 90" fill="none" xmlns="http://www.w3.org/2000/svg">
<g filter="url(#filter0_dd_5153_28446)">
<path d="M20 16C20 7.16344 27.1634 0 36 0H68C76.8366 0 84 7.16344 84 16V48C84 56.8366 76.8366 64 68 64H36C27.1634 64 20 56.8366 20 48V16Z" fill="white" shape-rendering="crispEdges"/>
<path d="M40.75 20.75V40.75C40.75 41.413 41.0134 42.0489 41.4822 42.5178C41.9511 42.9866 42.587 43.25 43.25 43.25H63.25" stroke="#4A5565" stroke-width="2.5" stroke-linecap="round" stroke-linejoin="round"/>
<path d="M59.5 38.25V28.25" stroke="#4A5565" stroke-width="2.5" stroke-linecap="round" stroke-linejoin="round"/>
<path d="M53.25 38.25V23.25" stroke="#4A5565" stroke-width="2.5" stroke-linecap="round" stroke-linejoin="round"/>
<path d="M47 38.25V34.5" stroke="#4A5565" stroke-width="2.5" stroke-linecap="round" stroke-linejoin="round"/>
</g>
<defs>
<filter id="filter0_dd_5153_28446" x="0" y="0" width="104" height="104" filterUnits="userSpaceOnUse" color-interpolation-filters="sRGB">
<feFlood flood-opacity="0" result="BackgroundImageFix"/>
<feColorMatrix in="SourceAlpha" type="matrix" values="0 0 0 0 0 0 0 0 0 0 0 0 0 0 0 0 0 0 127 0" result="hardAlpha"/>
<feMorphology radius="6" operator="erode" in="SourceAlpha" result="effect1_dropShadow_5153_28446"/>
<feOffset dy="8"/>
<feGaussianBlur stdDeviation="5"/>
<feComposite in2="hardAlpha" operator="out"/>
<feColorMatrix type="matrix" values="0 0 0 0 0 0 0 0 0 0 0 0 0 0 0 0 0 0 0.1 0"/>
<feBlend mode="normal" in2="BackgroundImageFix" result="effect1_dropShadow_5153_28446"/>
<feColorMatrix in="SourceAlpha" type="matrix" values="0 0 0 0 0 0 0 0 0 0 0 0 0 0 0 0 0 0 127 0" result="hardAlpha"/>
<feMorphology radius="5" operator="erode" in="SourceAlpha" result="effect2_dropShadow_5153_28446"/>
<feOffset dy="20"/>
<feGaussianBlur stdDeviation="12.5"/>
<feComposite in2="hardAlpha" operator="out"/>
<feColorMatrix type="matrix" values="0 0 0 0 0 0 0 0 0 0 0 0 0 0 0 0 0 0 0.1 0"/>
<feBlend mode="normal" in2="effect1_dropShadow_5153_28446" result="effect2_dropShadow_5153_28446"/>
<feBlend mode="normal" in="SourceGraphic" in2="effect2_dropShadow_5153_28446" result="shape"/>
</filter>
</defs>
</svg>
