<svg width="104" height="90" viewBox="0 0 104 90" fill="none" xmlns="http://www.w3.org/2000/svg">
<g filter="url(#filter0_dd_5153_28517)">
<path d="M20 16C20 7.16344 27.1634 0 36 0H68C76.8366 0 84 7.16344 84 16V48C84 56.8366 76.8366 64 68 64H36C27.1634 64 20 56.8366 20 48V16Z" fill="white" shape-rendering="crispEdges"/>
<path d="M39.5781 32.435C39.474 32.1543 39.474 31.8456 39.5781 31.565C40.5928 29.1048 42.315 27.0013 44.5266 25.5211C46.7382 24.0409 49.3394 23.2507 52.0006 23.2507C54.6618 23.2507 57.2631 24.0409 59.4747 25.5211C61.6862 27.0013 63.4085 29.1048 64.4231 31.565C64.5273 31.8456 64.5273 32.1543 64.4231 32.435C63.4085 34.8951 61.6862 36.9987 59.4747 38.4788C57.2631 39.959 54.6618 40.7492 52.0006 40.7492C49.3394 40.7492 46.7382 39.959 44.5266 38.4788C42.315 36.9987 40.5928 34.8951 39.5781 32.435Z" stroke="#4A5565" stroke-width="2.5" stroke-linecap="round" stroke-linejoin="round"/>
<path d="M52 35.75C54.0711 35.75 55.75 34.0711 55.75 32C55.75 29.9289 54.0711 28.25 52 28.25C49.9289 28.25 48.25 29.9289 48.25 32C48.25 34.0711 49.9289 35.75 52 35.75Z" stroke="#4A5565" stroke-width="2.5" stroke-linecap="round" stroke-linejoin="round"/>
</g>
<defs>
<filter id="filter0_dd_5153_28517" x="0" y="0" width="104" height="104" filterUnits="userSpaceOnUse" color-interpolation-filters="sRGB">
<feFlood flood-opacity="0" result="BackgroundImageFix"/>
<feColorMatrix in="SourceAlpha" type="matrix" values="0 0 0 0 0 0 0 0 0 0 0 0 0 0 0 0 0 0 127 0" result="hardAlpha"/>
<feMorphology radius="6" operator="erode" in="SourceAlpha" result="effect1_dropShadow_5153_28517"/>
<feOffset dy="8"/>
<feGaussianBlur stdDeviation="5"/>
<feComposite in2="hardAlpha" operator="out"/>
<feColorMatrix type="matrix" values="0 0 0 0 0 0 0 0 0 0 0 0 0 0 0 0 0 0 0.1 0"/>
<feBlend mode="normal" in2="BackgroundImageFix" result="effect1_dropShadow_5153_28517"/>
<feColorMatrix in="SourceAlpha" type="matrix" values="0 0 0 0 0 0 0 0 0 0 0 0 0 0 0 0 0 0 127 0" result="hardAlpha"/>
<feMorphology radius="5" operator="erode" in="SourceAlpha" result="effect2_dropShadow_5153_28517"/>
<feOffset dy="20"/>
<feGaussianBlur stdDeviation="12.5"/>
<feComposite in2="hardAlpha" operator="out"/>
<feColorMatrix type="matrix" values="0 0 0 0 0 0 0 0 0 0 0 0 0 0 0 0 0 0 0.1 0"/>
<feBlend mode="normal" in2="effect1_dropShadow_5153_28517" result="effect2_dropShadow_5153_28517"/>
<feBlend mode="normal" in="SourceGraphic" in2="effect2_dropShadow_5153_28517" result="shape"/>
</filter>
</defs>
</svg>
