<svg width="40" height="40" viewBox="0 0 40 40" fill="none" xmlns="http://www.w3.org/2000/svg">
<path d="M20.0001 10.4597L5.73425 22.2822C5.73425 22.2989 5.73008 22.3235 5.72174 22.3569C5.71357 22.3901 5.70922 22.4142 5.70922 22.4313V34.4029C5.70922 34.8352 5.86643 35.2098 6.18075 35.5252C6.49498 35.8408 6.86708 35.9996 7.29715 35.9996H16.824V26.4221H23.1762V36H32.703C33.133 36 33.5056 35.8415 33.8194 35.5252C34.1337 35.2101 34.2914 34.8353 34.2914 34.4029V22.4313C34.2914 22.3649 34.2824 22.3148 34.2664 22.2822L20.0001 10.4597Z" fill="white"/>
<path d="M39.7241 19.5885L34.2909 15.0492V4.87314C34.2909 4.64051 34.2165 4.44919 34.0672 4.29946C33.9192 4.14991 33.7288 4.07513 33.4969 4.07513H28.7334C28.5017 4.07513 28.3115 4.14991 28.1624 4.29946C28.0138 4.44919 27.9395 4.64059 27.9395 4.87314V9.73661L21.8858 4.64846C21.3571 4.21612 20.7285 4 20.0006 4C19.2728 4 18.6442 4.21612 18.115 4.64846L0.275696 19.5885C0.110325 19.7212 0.0196879 19.9 0.00282925 20.1245C-0.0139425 20.3488 0.0438462 20.5448 0.176369 20.7109L1.71459 22.5566C1.84711 22.7062 2.02057 22.7976 2.23565 22.8311C2.43421 22.8479 2.63278 22.7895 2.83135 22.6565L20.0001 8.26507L37.169 22.6565C37.3016 22.7725 37.4749 22.8304 37.69 22.8304H37.7646C37.9793 22.7975 38.1524 22.7055 38.2856 22.5563L39.824 20.7108C39.9563 20.5443 40.0143 20.3487 39.997 20.1241C39.9801 19.9002 39.8891 19.7215 39.7241 19.5885Z" fill="white"/>
</svg>
