<svg width="64" height="64" viewBox="0 0 64 64" fill="none" xmlns="http://www.w3.org/2000/svg">
<path d="M0 16C0 7.16344 7.1634 0 16 0H48C56.8366 0 64 7.16344 64 16V48C64 56.8366 56.8366 64 48 64H16C7.1634 64 0 56.8366 0 48V16Z" fill="white"/>
<path d="M30.75 24.5C34.5517 24.5979 38.2674 23.3594 41.25 21C41.4357 20.8607 41.6565 20.7759 41.8877 20.7551C42.1189 20.7342 42.3514 20.7782 42.559 20.882C42.7666 20.9858 42.9413 21.1454 43.0633 21.3428C43.1854 21.5403 43.25 21.7679 43.25 22V37C43.25 37.2321 43.1854 37.4597 43.0633 37.6572C42.9413 37.8546 42.7666 38.0142 42.559 38.118C42.3514 38.2218 42.1189 38.2658 41.8877 38.245C41.6565 38.2241 41.4357 38.1393 41.25 38C38.2674 35.6406 34.5517 34.4021 30.75 34.5H23.25C22.587 34.5 21.9511 34.2366 21.4822 33.7678C21.0134 33.2989 20.75 32.663 20.75 32V27C20.75 26.337 21.0134 25.7011 21.4822 25.2322C21.9511 24.7634 22.587 24.5 23.25 24.5H30.75Z" stroke="#4A5565" stroke-width="2.5" stroke-linecap="round" stroke-linejoin="round"/>
<path d="M24.5 34.5C24.5 37.7456 25.5527 40.9036 27.5 43.5C27.8978 44.0304 28.4901 44.3811 29.1464 44.4749C29.8028 44.5686 30.4696 44.3978 31 44C31.5304 43.6022 31.8811 43.0099 31.9749 42.3536C32.0686 41.6972 31.8978 41.0304 31.5 40.5C30.2018 38.769 29.5 36.6637 29.5 34.5" stroke="#4A5565" stroke-width="2.5" stroke-linecap="round" stroke-linejoin="round"/>
<path d="M27 24.5V34.5" stroke="#4A5565" stroke-width="2.5" stroke-linecap="round" stroke-linejoin="round"/>
</svg>
