<svg width="56" height="56" viewBox="0 0 56 56" fill="none" xmlns="http://www.w3.org/2000/svg">
<path d="M0 14C0 6.26801 6.268 0 14 0H42C49.732 0 56 6.26801 56 14V42C56 49.732 49.732 56 42 56H14C6.268 56 0 49.732 0 42V14Z" fill="#3C8FCA"/>
<path d="M21 39.6668V18.6668C21 18.048 21.2458 17.4545 21.6834 17.0169C22.121 16.5793 22.7145 16.3335 23.3333 16.3335H32.6667C33.2855 16.3335 33.879 16.5793 34.3166 17.0169C34.7542 17.4545 35 18.048 35 18.6668V39.6668H21Z" stroke="white" stroke-width="2.33333" stroke-linecap="round" stroke-linejoin="round"/>
<path d="M21.0007 28H18.6673C18.0485 28 17.455 28.2458 17.0174 28.6834C16.5798 29.121 16.334 29.7145 16.334 30.3333V37.3333C16.334 37.9522 16.5798 38.5457 17.0174 38.9832C17.455 39.4208 18.0485 39.6667 18.6673 39.6667H21.0007" stroke="white" stroke-width="2.33333" stroke-linecap="round" stroke-linejoin="round"/>
<path d="M35 24.5H37.3333C37.9522 24.5 38.5457 24.7458 38.9832 25.1834C39.4208 25.621 39.6667 26.2145 39.6667 26.8333V37.3333C39.6667 37.9522 39.4208 38.5457 38.9832 38.9832C38.5457 39.4208 37.9522 39.6667 37.3333 39.6667H35" stroke="white" stroke-width="2.33333" stroke-linecap="round" stroke-linejoin="round"/>
<path d="M25.666 21H30.3327" stroke="white" stroke-width="2.33333" stroke-linecap="round" stroke-linejoin="round"/>
<path d="M25.666 25.6665H30.3327" stroke="white" stroke-width="2.33333" stroke-linecap="round" stroke-linejoin="round"/>
<path d="M25.666 30.3335H30.3327" stroke="white" stroke-width="2.33333" stroke-linecap="round" stroke-linejoin="round"/>
<path d="M25.666 35H30.3327" stroke="white" stroke-width="2.33333" stroke-linecap="round" stroke-linejoin="round"/>
</svg>
