<svg width="64" height="64" viewBox="0 0 64 64" fill="none" xmlns="http://www.w3.org/2000/svg">
<path d="M0 16C0 7.16344 7.1634 0 16 0H48C56.8366 0 64 7.16344 64 16V48C64 56.8366 56.8366 64 48 64H16C7.1634 64 0 56.8366 0 48V16Z" fill="white"/>
<path d="M19.5781 32.435C19.474 32.1543 19.474 31.8456 19.5781 31.565C20.5928 29.1048 22.315 27.0013 24.5266 25.5211C26.7382 24.0409 29.3394 23.2507 32.0006 23.2507C34.6618 23.2507 37.2631 24.0409 39.4747 25.5211C41.6862 27.0013 43.4085 29.1048 44.4231 31.565C44.5273 31.8456 44.5273 32.1543 44.4231 32.435C43.4085 34.8951 41.6862 36.9987 39.4747 38.4788C37.2631 39.959 34.6618 40.7492 32.0006 40.7492C29.3394 40.7492 26.7382 39.959 24.5266 38.4788C22.315 36.9987 20.5928 34.8951 19.5781 32.435Z" stroke="#4A5565" stroke-width="2.5" stroke-linecap="round" stroke-linejoin="round"/>
<path d="M32 35.75C34.0711 35.75 35.75 34.0711 35.75 32C35.75 29.9289 34.0711 28.25 32 28.25C29.9289 28.25 28.25 29.9289 28.25 32C28.25 34.0711 29.9289 35.75 32 35.75Z" stroke="#4A5565" stroke-width="2.5" stroke-linecap="round" stroke-linejoin="round"/>
</svg>
