<svg width="20" height="20" viewBox="0 0 20 20" fill="none" xmlns="http://www.w3.org/2000/svg">
<path d="M0.9375 0.9375H11.5625V2.1875H0.9375V0.9375Z" fill="#C3565A"/>
<path d="M2.1875 2.1875H8.4375V8.4375H2.1875V2.1875Z" fill="#F4F4E6"/>
<path d="M9.6875 2.1875H8.4375V19.0625H9.6875V3.4375H19.0625V2.1875H9.6875Z" fill="#143441"/>
<path d="M0.9375 8.4375H8.4375V9.6875H0.9375V8.4375Z" fill="#C3565A"/>
<path d="M0.9375 6.5625H1.5625V8.4375H0.9375V6.5625Z" fill="#F9BB4B"/>
<path d="M3.125 6.5625H3.75V8.4375H3.125V6.5625Z" fill="#F9BB4B"/>
<path d="M4.375 6.5625H5V8.4375H4.375V6.5625Z" fill="#F9BB4B"/>
<path d="M5.625 6.5625H6.25V8.4375H5.625V6.5625Z" fill="#F9BB4B"/>
<path d="M6.875 6.5625H7.5V8.4375H6.875V6.5625Z" fill="#F9BB4B"/>
<path d="M3.4375 3.75H7.1875V6.5625H3.4375V3.75Z" fill="#87CEE9"/>
<path d="M5 3.75H5.625V6.5625H5V3.75Z" fill="#195C85"/>
<path d="M1.5625 9.6875H8.4375V17.8125H1.5625V9.6875Z" fill="#F4F4E6"/>
<path d="M0.9375 17.8125H8.4375V19.0625H0.9375V17.8125Z" fill="#C3565A"/>
<path d="M3.4375 13.4375H6.5625V17.8125H3.4375V13.4375Z" fill="#87CEE9"/>
<path d="M4.6875 13.4375H5.3125V17.8125H4.6875V13.4375Z" fill="#195C85"/>
<path d="M3.4375 12.1875H6.5625V13.4375H3.4375V12.1875Z" fill="#2D75BB"/>
<path d="M2.5 10.625H3.125V11.25H2.5V10.625Z" fill="#87CEE9"/>
<path d="M3.75 10.625H4.375V11.25H3.75V10.625Z" fill="#87CEE9"/>
<path d="M5 10.625H5.625V11.25H5V10.625Z" fill="#87CEE9"/>
<path d="M6.25 10.625H6.875V11.25H6.25V10.625Z" fill="#87CEE9"/>
<path d="M9.6875 3.4375H18.4375V9.6875H9.6875V3.4375Z" fill="#F4F4E6"/>
<path d="M9.6875 9.6875V10.9375V19.0625H10.9375V10.9375H17.8125V19.0625H19.0625V10.9375V9.6875H9.6875Z" fill="#C3565A"/>
<path d="M10.9375 4.6875H12.5V8.4375H10.9375V4.6875Z" fill="#87CEE9"/>
<path d="M15.625 4.6875H17.1875V8.4375H15.625V4.6875Z" fill="#87CEE9"/>
<path d="M10.9375 10.9375H17.8125V19.0625H10.9375V10.9375Z" fill="#F4F4E6"/>
<path d="M11.875 11.875H12.8125V12.5H11.875V11.875Z" fill="#2D75BB"/>
<path d="M13.4375 11.875H14.0625V12.5H13.4375V11.875Z" fill="#2D75BB"/>
<path d="M14.6875 11.875H15.3125V12.5H14.6875V11.875Z" fill="#2D75BB"/>
<path d="M15.9375 11.875H16.875V12.5H15.9375V11.875Z" fill="#2D75BB"/>
<path d="M11.875 13.125H12.8125V13.75H11.875V13.125Z" fill="#2D75BB"/>
<path d="M13.4375 13.125H14.0625V13.75H13.4375V13.125Z" fill="#2D75BB"/>
<path d="M14.6875 13.125H15.3125V13.75H14.6875V13.125Z" fill="#2D75BB"/>
<path d="M15.9375 13.125H16.875V13.75H15.9375V13.125Z" fill="#2D75BB"/>
<path d="M11.875 14.375H12.8125V15H11.875V14.375Z" fill="#2D75BB"/>
<path d="M13.4375 14.375H14.0625V15H13.4375V14.375Z" fill="#2D75BB"/>
<path d="M14.6875 14.375H15.3125V15H14.6875V14.375Z" fill="#2D75BB"/>
<path d="M15.9375 14.375H16.875V15H15.9375V14.375Z" fill="#2D75BB"/>
<path d="M11.875 15.625H12.8125V16.25H11.875V15.625Z" fill="#2D75BB"/>
<path d="M13.4375 15.625H14.0625V16.25H13.4375V15.625Z" fill="#2D75BB"/>
<path d="M14.6875 15.625H15.3125V16.25H14.6875V15.625Z" fill="#2D75BB"/>
<path d="M15.9375 15.625H16.875V16.25H15.9375V15.625Z" fill="#2D75BB"/>
<path d="M0.625 6.25H8.4375V6.875H0.625V6.25Z" fill="#C3565A"/>
</svg>
