<svg width="409" height="847" viewBox="0 0 409 847" fill="none" xmlns="http://www.w3.org/2000/svg">
<g clip-path="url(#clip0_716_614)">
<path opacity="0.05" fill-rule="evenodd" clip-rule="evenodd" d="M404.593 731.271C290.962 700.823 207.476 606.181 191.834 490.159C186.786 452.67 189.178 415.145 198.951 378.669L243.411 212.743L247.989 210.606C274.114 198.465 300.666 186.032 326.285 174.045C406.077 136.668 488.583 98.0457 570.757 62.1766L578.703 58.7373L583.864 65.6887C611.241 102.606 638.722 139.783 666.148 176.946L620.877 345.903L605.007 331.036C581.985 309.496 553.576 293.764 522.921 285.549C472.929 272.154 420.711 278.986 375.874 304.848C331.038 330.71 299.007 372.475 285.622 422.426C272.238 472.377 279.095 524.561 304.994 569.377C330.893 614.193 372.699 646.218 422.691 659.614C469.107 672.051 518.211 666.879 560.913 645.085C603.34 623.449 636.163 587.175 653.327 543.051C657.205 533.128 659.844 523.278 662.411 513.699L729.608 262.916C746.687 286.054 763.617 309.093 780.429 331.927L803.239 362.923L802.746 364.763L960.357 406.994C929.579 365.221 898.708 323.365 868.623 282.474C798.437 187.161 725.855 88.6542 654.128 -8.05775C639.96 -27.109 624.485 -38.6801 606.828 -43.4113C605.907 -43.658 604.986 -43.9047 604.051 -44.0973C586.152 -48.1394 566.273 -45.2293 543.148 -35.1847C456.855 2.19089 370.169 42.7672 286.402 81.9798C205.952 119.645 122.72 158.595 39.8345 194.737C15.6397 205.307 -0.276198 225.926 1.12064 244.978C2.15805 258.654 12.5029 268.793 30.2138 273.538C54.1282 279.83 78.3385 286.317 101.805 292.547L117.025 296.625L102.06 352.475C88.8348 401.831 85.5844 452.525 92.4251 503.255C102.912 580.89 135.479 657.364 184.253 718.634C235.504 783.004 301.003 827.352 373.58 846.798C446.156 866.245 525.054 860.588 601.624 830.468C670.213 803.487 733.117 757.641 780.199 700.652L669.492 670.988C597.845 732.996 499.106 756.595 404.593 731.271ZM444.297 578.978C385.586 563.246 350.605 502.714 366.324 444.05C382.043 385.386 442.603 350.454 501.314 366.185C560.026 381.917 595.007 442.449 579.288 501.113C563.569 559.777 503.008 594.709 444.297 578.978Z" fill="#3C8FCA"/>
</g>
<defs>
<clipPath id="clip0_716_614">
<rect width="409" height="847" fill="white"/>
</clipPath>
</defs>
</svg>
