<svg width="20" height="20" viewBox="0 0 20 20" fill="none" xmlns="http://www.w3.org/2000/svg">
<path d="M18 3H2V15.1333H3.14766L2.54937 16.3246L3.38812 16.7421L3.90625 15.7104C3.90625 14.8102 3.90625 9.39741 3.90625 8.6H5.78125V4.86667H16.0938V15.7104L16.6119 16.7421L17.4506 16.3246L16.8523 15.1333H18V3Z" fill="white"/>
<path d="M4.84375 17H9.53125V9.53333H4.84375V17ZM6.71875 14.2H7.65625V15.1333H6.71875V14.2Z" fill="white"/>
<path d="M6.71875 8.6H10.4688V14.2H11.4062V15.1333H10.4688V17H15.1562V5.8H6.71875V8.6ZM9.53125 6.73333H12.3438V7.66667H9.53125V6.73333Z" fill="white"/>
</svg>
