<svg width="64" height="64" viewBox="0 0 64 64" fill="none" xmlns="http://www.w3.org/2000/svg">
<path d="M0 16C0 7.16344 7.1634 0 16 0H48C56.8366 0 64 7.16344 64 16V48C64 56.8366 56.8366 64 48 64H16C7.1634 64 0 56.8366 0 48V16Z" fill="white"/>
<path d="M35.75 43.25V33.25C35.75 32.9185 35.6183 32.6005 35.3839 32.3661C35.1495 32.1317 34.8315 32 34.5 32H29.5C29.1685 32 28.8505 32.1317 28.6161 32.3661C28.3817 32.6005 28.25 32.9185 28.25 33.25V43.25" stroke="#4A5565" stroke-width="2.5" stroke-linecap="round" stroke-linejoin="round"/>
<path d="M20.75 29.5C20.7499 29.1363 20.8292 28.777 20.9822 28.4472C21.1353 28.1173 21.3585 27.8248 21.6363 27.59L30.3862 20.09C30.8375 19.7086 31.4092 19.4994 32 19.4994C32.5908 19.4994 33.1625 19.7086 33.6138 20.09L42.3638 27.59C42.6415 27.8248 42.8647 28.1173 43.0178 28.4472C43.1708 28.777 43.2501 29.1363 43.25 29.5V40.75C43.25 41.413 42.9866 42.0489 42.5178 42.5178C42.0489 42.9866 41.413 43.25 40.75 43.25H23.25C22.587 43.25 21.9511 42.9866 21.4822 42.5178C21.0134 42.0489 20.75 41.413 20.75 40.75V29.5Z" stroke="#4A5565" stroke-width="2.5" stroke-linecap="round" stroke-linejoin="round"/>
</svg>
