<svg width="80" height="80" viewBox="0 0 80 80" fill="none" xmlns="http://www.w3.org/2000/svg">
<g filter="url(#filter0_dd_4656_27394)">
<path d="M12 16C12 8.26801 18.268 2 26 2H54C61.732 2 68 8.26801 68 16V44C68 51.732 61.732 58 54 58H26C18.268 58 12 51.732 12 44V16Z" fill="#3C8FCA" shape-rendering="crispEdges"/>
<path d="M42.3359 36.9998V22.9998C42.3359 22.381 42.0901 21.7875 41.6525 21.3499C41.2149 20.9123 40.6214 20.6665 40.0026 20.6665H30.6693C30.0504 20.6665 29.4569 20.9123 29.0194 21.3499C28.5818 21.7875 28.3359 22.381 28.3359 22.9998V35.8332C28.3359 36.1426 28.4589 36.4393 28.6776 36.6581C28.8964 36.8769 29.1932 36.9998 29.5026 36.9998H31.8359" stroke="white" stroke-width="2.33333" stroke-linecap="round" stroke-linejoin="round"/>
<path d="M43.5 37H36.5" stroke="white" stroke-width="2.33333" stroke-linecap="round" stroke-linejoin="round"/>
<path d="M48.1693 37.0002H50.5026C50.812 37.0002 51.1088 36.8772 51.3276 36.6585C51.5464 36.4397 51.6693 36.1429 51.6693 35.8335V31.5752C51.6688 31.3104 51.5783 31.0537 51.4126 30.8472L47.3526 25.7722C47.2435 25.6355 47.1051 25.5252 46.9475 25.4492C46.79 25.3733 46.6175 25.3337 46.4426 25.3335H42.3359" stroke="white" stroke-width="2.33333" stroke-linecap="round" stroke-linejoin="round"/>
<path d="M45.8333 39.3332C47.122 39.3332 48.1667 38.2885 48.1667 36.9998C48.1667 35.7112 47.122 34.6665 45.8333 34.6665C44.5447 34.6665 43.5 35.7112 43.5 36.9998C43.5 38.2885 44.5447 39.3332 45.8333 39.3332Z" stroke="white" stroke-width="2.33333" stroke-linecap="round" stroke-linejoin="round"/>
<path d="M34.1693 39.3332C35.4579 39.3332 36.5026 38.2885 36.5026 36.9998C36.5026 35.7112 35.4579 34.6665 34.1693 34.6665C32.8806 34.6665 31.8359 35.7112 31.8359 36.9998C31.8359 38.2885 32.8806 39.3332 34.1693 39.3332Z" stroke="white" stroke-width="2.33333" stroke-linecap="round" stroke-linejoin="round"/>
</g>
<defs>
<filter id="filter0_dd_4656_27394" x="0" y="0" width="80" height="80" filterUnits="userSpaceOnUse" color-interpolation-filters="sRGB">
<feFlood flood-opacity="0" result="BackgroundImageFix"/>
<feColorMatrix in="SourceAlpha" type="matrix" values="0 0 0 0 0 0 0 0 0 0 0 0 0 0 0 0 0 0 127 0" result="hardAlpha"/>
<feMorphology radius="4" operator="erode" in="SourceAlpha" result="effect1_dropShadow_4656_27394"/>
<feOffset dy="4"/>
<feGaussianBlur stdDeviation="3"/>
<feComposite in2="hardAlpha" operator="out"/>
<feColorMatrix type="matrix" values="0 0 0 0 0 0 0 0 0 0 0 0 0 0 0 0 0 0 0.1 0"/>
<feBlend mode="normal" in2="BackgroundImageFix" result="effect1_dropShadow_4656_27394"/>
<feColorMatrix in="SourceAlpha" type="matrix" values="0 0 0 0 0 0 0 0 0 0 0 0 0 0 0 0 0 0 127 0" result="hardAlpha"/>
<feMorphology radius="3" operator="erode" in="SourceAlpha" result="effect2_dropShadow_4656_27394"/>
<feOffset dy="10"/>
<feGaussianBlur stdDeviation="7.5"/>
<feComposite in2="hardAlpha" operator="out"/>
<feColorMatrix type="matrix" values="0 0 0 0 0 0 0 0 0 0 0 0 0 0 0 0 0 0 0.1 0"/>
<feBlend mode="normal" in2="effect1_dropShadow_4656_27394" result="effect2_dropShadow_4656_27394"/>
<feBlend mode="normal" in="SourceGraphic" in2="effect2_dropShadow_4656_27394" result="shape"/>
</filter>
</defs>
</svg>
