<svg width="80" height="80" viewBox="0 0 80 80" fill="none" xmlns="http://www.w3.org/2000/svg">
<g filter="url(#filter0_dd_7211_8986)">
<path d="M12 16C12 8.26801 18.268 2 26 2H54C61.732 2 68 8.26801 68 16V44C68 51.732 61.732 58 54 58H26C18.268 58 12 51.732 12 44V16Z" fill="#3C8FCA" shape-rendering="crispEdges"/>
<path d="M42.334 36.9998V22.9998C42.334 22.381 42.0882 21.7875 41.6506 21.3499C41.213 20.9123 40.6195 20.6665 40.0007 20.6665H30.6673C30.0485 20.6665 29.455 20.9123 29.0174 21.3499C28.5798 21.7875 28.334 22.381 28.334 22.9998V35.8332C28.334 36.1426 28.4569 36.4393 28.6757 36.6581C28.8945 36.8769 29.1912 36.9998 29.5007 36.9998H31.834" stroke="white" stroke-width="2.33333" stroke-linecap="round" stroke-linejoin="round"/>
<path d="M43.5 37H36.5" stroke="white" stroke-width="2.33333" stroke-linecap="round" stroke-linejoin="round"/>
<path d="M48.1673 37.0002H50.5007C50.8101 37.0002 51.1068 36.8772 51.3256 36.6585C51.5444 36.4397 51.6673 36.1429 51.6673 35.8335V31.5752C51.6668 31.3104 51.5763 31.0537 51.4107 30.8472L47.3506 25.7722C47.2415 25.6355 47.1031 25.5252 46.9456 25.4492C46.7881 25.3733 46.6155 25.3337 46.4407 25.3335H42.334" stroke="white" stroke-width="2.33333" stroke-linecap="round" stroke-linejoin="round"/>
<path d="M45.8333 39.3332C47.122 39.3332 48.1667 38.2885 48.1667 36.9998C48.1667 35.7112 47.122 34.6665 45.8333 34.6665C44.5447 34.6665 43.5 35.7112 43.5 36.9998C43.5 38.2885 44.5447 39.3332 45.8333 39.3332Z" stroke="white" stroke-width="2.33333" stroke-linecap="round" stroke-linejoin="round"/>
<path d="M34.1673 39.3332C35.456 39.3332 36.5007 38.2885 36.5007 36.9998C36.5007 35.7112 35.456 34.6665 34.1673 34.6665C32.8787 34.6665 31.834 35.7112 31.834 36.9998C31.834 38.2885 32.8787 39.3332 34.1673 39.3332Z" stroke="white" stroke-width="2.33333" stroke-linecap="round" stroke-linejoin="round"/>
</g>
<defs>
<filter id="filter0_dd_7211_8986" x="0" y="0" width="80" height="80" filterUnits="userSpaceOnUse" color-interpolation-filters="sRGB">
<feFlood flood-opacity="0" result="BackgroundImageFix"/>
<feColorMatrix in="SourceAlpha" type="matrix" values="0 0 0 0 0 0 0 0 0 0 0 0 0 0 0 0 0 0 127 0" result="hardAlpha"/>
<feMorphology radius="4" operator="erode" in="SourceAlpha" result="effect1_dropShadow_7211_8986"/>
<feOffset dy="4"/>
<feGaussianBlur stdDeviation="3"/>
<feComposite in2="hardAlpha" operator="out"/>
<feColorMatrix type="matrix" values="0 0 0 0 0 0 0 0 0 0 0 0 0 0 0 0 0 0 0.1 0"/>
<feBlend mode="normal" in2="BackgroundImageFix" result="effect1_dropShadow_7211_8986"/>
<feColorMatrix in="SourceAlpha" type="matrix" values="0 0 0 0 0 0 0 0 0 0 0 0 0 0 0 0 0 0 127 0" result="hardAlpha"/>
<feMorphology radius="3" operator="erode" in="SourceAlpha" result="effect2_dropShadow_7211_8986"/>
<feOffset dy="10"/>
<feGaussianBlur stdDeviation="7.5"/>
<feComposite in2="hardAlpha" operator="out"/>
<feColorMatrix type="matrix" values="0 0 0 0 0 0 0 0 0 0 0 0 0 0 0 0 0 0 0.1 0"/>
<feBlend mode="normal" in2="effect1_dropShadow_7211_8986" result="effect2_dropShadow_7211_8986"/>
<feBlend mode="normal" in="SourceGraphic" in2="effect2_dropShadow_7211_8986" result="shape"/>
</filter>
</defs>
</svg>
