<svg width="16" height="16" viewBox="0 0 16 16" fill="none" xmlns="http://www.w3.org/2000/svg">
<path d="M7.33316 13.3333C6.16253 13.3368 5.03333 12.9003 4.1695 12.1102C3.30568 11.3201 2.77033 10.2343 2.66965 9.06799C2.56896 7.9017 2.91028 6.74016 3.62592 5.81375C4.34156 4.88733 5.37924 4.26372 6.53316 4.06659C10.3332 3.33325 11.3332 2.98659 12.6665 1.33325C13.3332 2.66659 13.9998 4.11992 13.9998 6.66659C13.9998 10.3333 10.8132 13.3333 7.33316 13.3333Z" stroke="#434343" stroke-width="1.33333" stroke-linecap="round" stroke-linejoin="round"/>
<path d="M1.33398 14C1.33398 12 2.56732 10.4267 4.72065 10C6.33398 9.68 8.00065 8.66667 8.66732 8" stroke="#434343" stroke-width="1.33333" stroke-linecap="round" stroke-linejoin="round"/>
</svg>
