<svg width="407" height="540" viewBox="0 0 407 540" fill="none" xmlns="http://www.w3.org/2000/svg">
<g clip-path="url(#clip0_796_70)">
<g opacity="0.1">
<path fill-rule="evenodd" clip-rule="evenodd" d="M380.716 439.215C319.673 469.144 247.225 467.461 186.826 432.589C114.254 390.69 74.4733 309.782 85.4692 226.437C89.0123 199.498 97.6999 173.921 111.269 150.419L173.044 43.4211L176.607 42.77C196.89 39.1246 217.478 35.3583 237.427 31.7286C299.412 20.4074 363.475 8.70827 426.836 -1.16357L432.965 -2.11872L435.215 3.64422C463.868 77.1455 492.749 151.939 520.693 224.317L530.615 250.014L529.932 251.197L630.59 309.311C617.217 274.718 603.815 240.019 590.738 206.192C560.261 127.263 528.738 45.6469 497.445 -34.5268C491.258 -50.3892 482.769 -61.242 471.504 -67.7461C470.907 -68.0911 470.296 -68.4138 469.708 -68.7237C458.15 -74.7718 443.869 -76.4104 426.078 -73.7072C359.601 -63.5509 292.313 -51.2739 227.207 -39.4033C164.723 -27.9837 100.091 -16.167 36.1893 -6.27963C17.5393 -3.41764 2.70506 8.01576 0.118696 21.4912C-1.74447 31.1585 3.48178 40.0979 14.7914 46.6275C30.0792 55.3646 45.5625 64.2742 60.559 72.9026L70.288 78.4899L49.5158 114.468C31.1533 146.273 19.4167 180.862 14.6057 217.306C7.2501 273.083 15.3824 332.088 37.4764 383.472C60.7211 437.513 97.5097 480.209 143.877 506.979C190.244 533.749 245.614 544.261 304.038 537.371C356.347 531.206 408.313 510.916 451.432 479.983L380.741 439.17L380.716 439.215Z" fill="#3C8FCA"/>
<path fill-rule="evenodd" clip-rule="evenodd" d="M212.794 386.168C180.857 367.729 158.087 337.859 148.656 302.059C139.225 266.26 144.273 228.792 162.854 196.608C181.449 164.401 211.36 141.318 247.079 131.586C282.798 121.854 320.073 126.65 351.988 145.076C371.575 156.385 388.163 172.479 400.003 191.635L408.171 204.832L481.595 77.6577L514.293 140.013L405.316 328.766C401.76 334.927 398.087 341.288 393.578 347.463C373.458 374.95 344.048 394.098 310.77 401.34C277.221 408.694 242.429 403.278 212.794 386.168ZM322.002 197.013C284.488 175.354 236.22 188.524 214.391 226.333C192.549 264.164 205.313 312.54 242.805 334.186C280.319 355.845 328.587 342.675 350.416 304.867C372.245 267.058 359.516 218.672 322.002 197.013Z" fill="#3C8FCA"/>
</g>
</g>
<defs>
<clipPath id="clip0_796_70">
<rect width="407" height="540" fill="white"/>
</clipPath>
</defs>
</svg>
