<svg width="134" height="208" viewBox="0 0 134 208" fill="none" xmlns="http://www.w3.org/2000/svg">
<g clip-path="url(#clip0_754_45)">
<path opacity="0.1" fill-rule="evenodd" clip-rule="evenodd" d="M145.307 191.985C174.8 184.082 196.469 159.517 200.529 129.403C201.839 119.673 201.218 109.933 198.682 100.466L187.142 57.3994L185.954 56.8446C179.173 53.6934 172.281 50.4665 165.632 47.3553C144.921 37.6539 123.507 27.6294 102.178 18.3194L100.116 17.4268L98.7763 19.231C91.6706 28.813 84.5379 38.4625 77.4192 48.1082L89.1696 91.9614L93.2886 88.1026C99.2639 82.512 106.638 78.4285 114.594 76.2965C127.57 72.8198 141.123 74.5929 152.761 81.3055C164.398 88.0182 172.712 98.8583 176.186 111.823C179.66 124.788 177.88 138.333 171.158 149.965C164.436 161.597 153.585 169.909 140.609 173.386C128.562 176.614 115.817 175.272 104.733 169.615C93.7213 163.999 85.2019 154.584 80.747 143.132C79.7405 140.556 79.0555 138 78.3893 135.514L60.9481 70.422C56.5153 76.4274 52.1209 82.4074 47.7574 88.334L41.837 96.3789L41.965 96.8565L1.05655 107.818C9.04494 96.9756 17.0577 86.1118 24.8663 75.4983C43.0834 50.7595 61.922 25.1918 80.539 0.0899027C84.2163 -4.8549 88.2331 -7.85823 92.816 -9.0862C93.055 -9.15024 93.2939 -9.21428 93.5367 -9.26426C98.1825 -10.3134 103.342 -9.55807 109.344 -6.95097C131.742 2.74997 154.242 13.2817 175.983 23.4594C196.864 33.2355 218.467 43.3451 239.981 52.7259C246.261 55.4694 250.392 60.8211 250.029 65.766C249.76 69.3158 247.075 71.9473 242.478 73.179C236.271 74.8121 229.987 76.4958 223.896 78.1128L219.946 79.1713L223.83 93.6673C227.263 106.478 228.106 119.635 226.331 132.803C223.609 152.953 215.156 172.802 202.497 188.705C189.194 205.412 172.194 216.923 153.356 221.97C134.519 227.018 114.041 225.549 94.1667 217.732C76.3643 210.729 60.0372 198.829 47.817 184.038L76.5513 176.338C95.1474 192.432 120.776 198.558 145.307 191.985ZM135.001 152.457C150.24 148.373 159.319 132.662 155.24 117.436C151.16 102.209 135.441 93.1426 120.202 97.2258C104.964 101.309 95.8841 117.02 99.964 132.247C104.044 147.473 119.763 156.54 135.001 152.457Z" fill="white"/>
</g>
<defs>
<clipPath id="clip0_754_45">
<rect width="134" height="208" rx="20" fill="white"/>
</clipPath>
</defs>
</svg>
