<svg width="48" height="48" viewBox="0 0 48 48" fill="none" xmlns="http://www.w3.org/2000/svg">
<path d="M0 14C0 6.26801 6.26801 0 14 0H34C41.732 0 48 6.26801 48 14V34C48 41.732 41.732 48 34 48H14C6.26801 48 0 41.732 0 34V14Z" fill="#2575D6"/>
<path d="M33.8026 21.9995C34.2593 24.2408 33.9338 26.5709 32.8804 28.6013C31.827 30.6317 30.1095 32.2396 28.0141 33.1568C25.9187 34.0741 23.5722 34.2453 21.3659 33.6419C19.1595 33.0385 17.2268 31.6969 15.8898 29.8409C14.5529 27.9849 13.8927 25.7267 14.0192 23.4429C14.1458 21.159 15.0514 18.9876 16.5852 17.2907C18.119 15.5938 20.1881 14.4739 22.4476 14.118C24.7071 13.762 27.0203 14.1914 29.0016 15.3345" stroke="white" stroke-width="2" stroke-linecap="round" stroke-linejoin="round"/>
<path d="M21 23L24 26L34 16" stroke="white" stroke-width="2" stroke-linecap="round" stroke-linejoin="round"/>
</svg>
