<svg width="48" height="48" viewBox="0 0 48 48" fill="none" xmlns="http://www.w3.org/2000/svg">
<path d="M0 14C0 6.26801 6.26801 0 14 0H33.7344C41.4664 0 47.7344 6.26801 47.7344 14V34C47.7344 41.732 41.4664 48 33.7344 48H14C6.26801 48 0 41.732 0 34V14Z" fill="#2575D6"/>
<path d="M27.8594 33V31C27.8594 29.9391 27.4379 28.9217 26.6878 28.1716C25.9377 27.4214 24.9202 27 23.8594 27H17.8594C16.7985 27 15.7811 27.4214 15.0309 28.1716C14.2808 28.9217 13.8594 29.9391 13.8594 31V33" stroke="white" stroke-width="2" stroke-linecap="round" stroke-linejoin="round"/>
<path d="M27.8594 15.1289C28.7171 15.3513 29.4768 15.8522 30.0191 16.553C30.5613 17.2538 30.8556 18.1148 30.8556 19.0009C30.8556 19.887 30.5613 20.748 30.0191 21.4488C29.4768 22.1496 28.7171 22.6505 27.8594 22.8729" stroke="white" stroke-width="2" stroke-linecap="round" stroke-linejoin="round"/>
<path d="M33.8594 33.0009V31.0009C33.8587 30.1146 33.5637 29.2536 33.0207 28.5532C32.4778 27.8527 31.7175 27.3524 30.8594 27.1309" stroke="white" stroke-width="2" stroke-linecap="round" stroke-linejoin="round"/>
<path d="M20.8594 23C23.0685 23 24.8594 21.2091 24.8594 19C24.8594 16.7909 23.0685 15 20.8594 15C18.6502 15 16.8594 16.7909 16.8594 19C16.8594 21.2091 18.6502 23 20.8594 23Z" stroke="white" stroke-width="2" stroke-linecap="round" stroke-linejoin="round"/>
</svg>
