<svg width="32" height="32" viewBox="0 0 32 32" fill="none" xmlns="http://www.w3.org/2000/svg">
<path d="M0 10C0 4.47715 4.47715 0 10 0H22C27.5228 0 32 4.47715 32 10V22C32 27.5228 27.5228 32 22 32H10C4.47715 32 0 27.5228 0 22V10Z" fill="#2575D6" fill-opacity="0.1"/>
<path d="M6.06251 16.3484C5.97916 16.1238 5.97916 15.8769 6.06251 15.6524C6.87421 13.6842 8.25202 12.0014 10.0213 10.8173C11.7905 9.63312 13.8715 9.00098 16.0005 9.00098C18.1295 9.00098 20.2105 9.63312 21.9797 10.8173C23.749 12.0014 25.1268 13.6842 25.9385 15.6524C26.0218 15.8769 26.0218 16.1238 25.9385 16.3484C25.1268 18.3165 23.749 19.9993 21.9797 21.1835C20.2105 22.3676 18.1295 22.9997 16.0005 22.9997C13.8715 22.9997 11.7905 22.3676 10.0213 21.1835C8.25202 19.9993 6.87421 18.3165 6.06251 16.3484Z" stroke="#2575D6" stroke-width="2" stroke-linecap="round" stroke-linejoin="round"/>
<path d="M16 19C17.6569 19 19 17.6569 19 16C19 14.3431 17.6569 13 16 13C14.3431 13 13 14.3431 13 16C13 17.6569 14.3431 19 16 19Z" stroke="#2575D6" stroke-width="2" stroke-linecap="round" stroke-linejoin="round"/>
</svg>
