<svg width="32" height="32" viewBox="0 0 32 32" fill="none" xmlns="http://www.w3.org/2000/svg">
<path d="M0 10C0 4.47715 4.47715 0 10 0H22C27.5228 0 32 4.47715 32 10V22C32 27.5228 27.5228 32 22 32H10C4.47715 32 0 27.5228 0 22V10Z" fill="#2575D6" fill-opacity="0.1"/>
<path d="M25.8026 14.0005C26.2593 16.2418 25.9338 18.5719 24.8804 20.6023C23.827 22.6326 22.1095 24.2405 20.0141 25.1578C17.9187 26.0751 15.5722 26.2463 13.3659 25.6428C11.1595 25.0394 9.22676 23.6979 7.88984 21.8419C6.55293 19.9859 5.89269 17.7277 6.01923 15.4439C6.14577 13.16 7.05144 10.9886 8.58522 9.29165C10.119 7.59473 12.1881 6.47491 14.4476 6.11893C16.7071 5.76295 19.0203 6.19234 21.0016 7.33548" stroke="#2575D6" stroke-width="2" stroke-linecap="round" stroke-linejoin="round"/>
<path d="M13 15L16 18L26 8" stroke="#2575D6" stroke-width="2" stroke-linecap="round" stroke-linejoin="round"/>
</svg>
