<svg width="48" height="48" viewBox="0 0 48 48" fill="none" xmlns="http://www.w3.org/2000/svg">
<path d="M0 14C0 6.26801 6.26801 0 14 0H34C41.732 0 48 6.26801 48 14V34C48 41.732 41.732 48 34 48H14C6.26801 48 0 41.732 0 34V14Z" fill="#2575D6"/>
<path d="M34 19L25.009 24.727C24.7039 24.9042 24.3573 24.9976 24.0045 24.9976C23.6517 24.9976 23.3051 24.9042 23 24.727L14 19" stroke="white" stroke-width="2" stroke-linecap="round" stroke-linejoin="round"/>
<path d="M32 16H16C14.8954 16 14 16.8954 14 18V30C14 31.1046 14.8954 32 16 32H32C33.1046 32 34 31.1046 34 30V18C34 16.8954 33.1046 16 32 16Z" stroke="white" stroke-width="2" stroke-linecap="round" stroke-linejoin="round"/>
</svg>
