<svg width="32" height="32" viewBox="0 0 32 32" fill="none" xmlns="http://www.w3.org/2000/svg">
<path d="M0 10C0 4.47715 4.47715 0 10 0H22C27.5228 0 32 4.47715 32 10V22C32 27.5228 27.5228 32 22 32H10C4.47715 32 0 27.5228 0 22V10Z" fill="#2575D6" fill-opacity="0.1"/>
<path d="M20 20L23 12L26 20C25.13 20.65 24.08 21 23 21C21.92 21 20.87 20.65 20 20Z" stroke="#2575D6" stroke-width="2" stroke-linecap="round" stroke-linejoin="round"/>
<path d="M6 20L9 12L12 20C11.13 20.65 10.08 21 9 21C7.92 21 6.87 20.65 6 20Z" stroke="#2575D6" stroke-width="2" stroke-linecap="round" stroke-linejoin="round"/>
<path d="M11 25H21" stroke="#2575D6" stroke-width="2" stroke-linecap="round" stroke-linejoin="round"/>
<path d="M16 7V25" stroke="#2575D6" stroke-width="2" stroke-linecap="round" stroke-linejoin="round"/>
<path d="M7 11H9C11 11 14 10 16 9C18 10 21 11 23 11H25" stroke="#2575D6" stroke-width="2" stroke-linecap="round" stroke-linejoin="round"/>
</svg>
